{
.appVersion = "1352";
DisplayStrings = (
ABCDEFGHIJKLMNOPQRSTUVWXYZ,
abcdefghijklmnopqrstuvwxyz
);
copyright = "Copyright 2008 The Sassy Frass Project Authors (https://github.com/googlefonts/sassy-frass)";
customParameters = (
{
name = Axes;
value = (
{
Name = Weight;
Tag = wght;
}
);
},
{
name = license;
value = "This Font Software is licensed under the SIL Open Font License, Version 1.1. This license is available with a FAQ at: https://scripts.sil.org/OFL";
},
{
name = licenseURL;
value = "https://scripts.sil.org/OFL";
},
{
name = vendorID;
value = GOOG;
},
{
name = glyphOrder;
value = (
.notdef,
CR,
NULL,
space,
nbspace
);
},
{
name = fsType;
value = (
);
},
{
name = "Use Typo Metrics";
value = 1;
}
);
date = "2021-09-15 00:46:13 +0000";
designer = "Robert E. Leuschke";
designerURL = www.typesetit.com;
disablesNiceNames = 1;
familyName = "Sassy Frass";
featurePrefixes = (
{
automatic = 1;
code = "languagesystem DFLT dflt;\012\012languagesystem latn dflt;\012languagesystem latn AZE;\012languagesystem latn CRT;\012languagesystem latn KAZ;\012languagesystem latn TAT;\012languagesystem latn TRK;\012languagesystem latn ROM;\012languagesystem latn MOL;\012languagesystem latn CAT;\012";
name = Languagesystems;
}
);
features = (
{
automatic = 1;
code = "feature locl;\012feature sups;\012feature frac;\012feature ordn;\012";
name = aalt;
},
{
automatic = 1;

glyphs = (
{
glyphname = .notdef;
lastChange = "2021-09-15 00:52:07 +0000";
layers = (
{
background = {
paths = (
{
closed = 1;
nodes = (
"438 -5 LINE",
"449 7 LINE",
"449 575 LINE",
"438 587 LINE",
"47 587 LINE",
"35 575 LINE",
"35 7 LINE",
"47 -5 LINE"
);
},
{
closed = 1;
nodes = (
"142 139 LINE",
"225 292 LINE",
"142 443 LINE",
"153 465 LINE",
"236 314 LINE",
"321 466 LINE",
"334 443 LINE",
"248 290 LINE",
"334 139 LINE",
"321 117 LINE",
"236 267 LINE",
"153 117 LINE"
);
},
{
closed = 1;
nodes = (
"61 561 LINE",
"425 561 LINE",
"425 21 LINE",
"61 21 LINE"
);
},
{
closed = 1;
nodes = (
"402 40 LINE",
"402 538 LINE",
"82 538 LINE",
"82 40 LINE"
);
}
);
};
layerId = "95C423A7-595F-441F-915A-E5EF8B5EF971";
paths = (
{
closed = 1;
nodes = (
"438 -5 LINE",
"449 7 LINE",
"449 575 LINE",
"438 587 LINE",
"47 587 LINE",
"35 575 LINE",
"35 7 LINE",
"47 -5 LINE"
);
},
{
closed = 1;
nodes = (
"142 139 LINE",
"225 292 LINE",
"142 443 LINE",
"153 465 LINE",
"236 314 LINE",
"321 466 LINE",
"334 443 LINE",
"248 290 LINE",
"334 139 LINE",
"321 117 LINE",
"236 267 LINE",
"153 117 LINE"
);
},
{
closed = 1;
nodes = (
"61 21 LINE",
"61 561 LINE",
"425 561 LINE",
"425 21 LINE"
);
},
{
closed = 1;
nodes = (
"82 40 LINE",
"402 40 LINE",
"402 538 LINE",
"82 538 LINE"
);
}
);
width = 484;
}
);
note = .notdef;
},
{
glyphname = A;
lastChange = "2021-09-15 00:54:42 +0000";
layers = (
{
background = {
paths = (
{
closed = 1;
nodes = (
"1503 654 OFFCURVE",
"1679 846 OFFCURVE",
"1679 861 CURVE SMOOTH",
"1679 875 OFFCURVE",
"1655 882 OFFCURVE",
"1644 882 CURVE SMOOTH",
"1642 882 OFFCURVE",
"1640 882 OFFCURVE",
"1637 882 CURVE",
"1604 869 OFFCURVE",
"1388 681 OFFCURVE",
"1363 647 CURVE SMOOTH",
"1360 642 OFFCURVE",
"1356 637 OFFCURVE",
"1356 631 CURVE SMOOTH",
"1356 611 OFFCURVE",
"1394 605 OFFCURVE",
"1408 602 CURVE",
"1354 532 OFFCURVE",
"1304 459 OFFCURVE",
"1260 383 CURVE",
"1218 375 OFFCURVE",
"1177 370 OFFCURVE",
"1135 366 CURVE",
"1218 463 OFFCURVE",
"1295 568 OFFCURVE",
"1362 677 CURVE",
"1363 678 OFFCURVE",
"1364 681 OFFCURVE",
"1364 683 CURVE SMOOTH",
"1364 688 OFFCURVE",
"1359 690 OFFCURVE",
"1355 690 CURVE SMOOTH",
"1348 690 OFFCURVE",
"1343 687 OFFCURVE",
"1339 682 CURVE SMOOTH",
"1332 671 OFFCURVE",
"1325 660 OFFCURVE",
"1318 649 CURVE SMOOTH",
"1300 624 OFFCURVE",
"1282 599 OFFCURVE",
"1263 575 CURVE SMOOTH",
"1206 500 OFFCURVE",
"1143 428 OFFCURVE",
"1077 360 CURVE",
"1015 355 OFFCURVE",
"768 339 OFFCURVE",
"728 322 CURVE SMOOTH",
"721 319 OFFCURVE",
"708 314 OFFCURVE",
"708 303 CURVE SMOOTH",
"708 300 OFFCURVE",
"709 296 OFFCURVE",
"711 294 CURVE SMOOTH",
"729 272 OFFCURVE",
"803 250 OFFCURVE",
"831 244 CURVE SMOOTH",
"867 236 OFFCURVE",
"905 232 OFFCURVE",
"941 229 CURVE",
"781 82 OFFCURVE",
"441 -193 OFFCURVE",
"208 -193 CURVE SMOOTH",
"110 -193 OFFCURVE",
"46 -141 OFFCURVE",
"46 -41 CURVE SMOOTH",
"46 128 OFFCURVE",
"207 291 OFFCURVE",
"343 371 CURVE SMOOTH",
"403 407 OFFCURVE",
"467 433 OFFCURVE",
"534 453 CURVE SMOOTH",
"560 460 OFFCURVE",
"587 465 OFFCURVE",
"613 465 CURVE SMOOTH",
"637 465 OFFCURVE",
"672 460 OFFCURVE",
"686 439 CURVE SMOOTH",
"689 434 OFFCURVE",
"691 431 OFFCURVE",
"697 431 CURVE SMOOTH",
"704 431 OFFCURVE",
"711 436 OFFCURVE",
"711 443 CURVE SMOOTH",
"711 445 OFFCURVE",
"710 447 OFFCURVE",
"709 448 CURVE",
"694 482 OFFCURVE",
"647 490 OFFCURVE",
"613 490 CURVE SMOOTH",
"584 490 OFFCURVE",
"555 485 OFFCURVE",
"527 477 CURVE SMOOTH",
"455 455 OFFCURVE",
"384 428 OFFCURVE",
"318 391 CURVE SMOOTH",
"173 310 OFFCURVE",
"13 153 OFFCURVE",
"13 -25 CURVE SMOOTH",
"13 -151 OFFCURVE",
"98 -221 OFFCURVE",
"220 -221 CURVE SMOOTH",
"290 -221 OFFCURVE",
"362 -200 OFFCURVE",
"426 -172 CURVE SMOOTH",
"646 -78 OFFCURVE",
"836 56 OFFCURVE",
"1005 224 CURVE",
"1045 222 OFFCURVE",
"1085 221 OFFCURVE",
"1124 221 CURVE SMOOTH",
"1144 221 OFFCURVE",
"1163 221 OFFCURVE",
"1183 222 CURVE",
"1169 182 OFFCURVE",
"1158 139 OFFCURVE",
"1158 97 CURVE SMOOTH",
"1158 51 OFFCURVE",
"1172 10 OFFCURVE",
"1209 -19 CURVE",
"1212 -20 OFFCURVE",
"1214 -21 OFFCURVE",
"1217 -21 CURVE SMOOTH",
"1224 -21 OFFCURVE",
"1230 -15 OFFCURVE",
"1230 -8 CURVE SMOOTH",
"1230 4 OFFCURVE",
"1199 11 OFFCURVE",
"1199 68 CURVE SMOOTH",
"1199 118 OFFCURVE",
"1220 179 OFFCURVE",
"1240 225 CURVE",
"1256 227 OFFCURVE",
"1345 234 OFFCURVE",
"1345 257 CURVE SMOOTH",
"1345 261 OFFCURVE",
"1342 264 OFFCURVE",
"1338 264 CURVE SMOOTH",
"1336 264 OFFCURVE",
"1334 263 OFFCURVE",
"1333 263 CURVE",
"1306 253 OFFCURVE",
"1278 249 OFFCURVE",
"1249 247 CURVE",
"1268 290 OFFCURVE",
"1290 333 OFFCURVE",
"1314 374 CURVE",
"1372 387 OFFCURVE",
"1664 460 OFFCURVE",
"1664 536 CURVE SMOOTH",
"1664 586 OFFCURVE",
"1514 610 OFFCURVE",
"1475 618 CURVE"
);
},
{
closed = 1;
nodes = (
"1581 805 OFFCURVE",
"1571 794 OFFCURVE",
"1562 783 CURVE SMOOTH",
"1518 732 OFFCURVE",
"1472 682 OFFCURVE",
"1430 629 CURVE",
"1422 631 OFFCURVE",
"1402 637 OFFCURVE",
"1402 648 CURVE SMOOTH",
"1402 656 OFFCURVE",
"1410 663 OFFCURVE",
"1415 668 CURVE SMOOTH",
"1452 702 OFFCURVE",
"1490 735 OFFCURVE",
"1528 767 CURVE SMOOTH",
"1548 784 OFFCURVE",
"1568 802 OFFCURVE",
"1590 817 CURVE"
);
},
{
closed = 1;
nodes = (
"1481 583 OFFCURVE",
"1508 577 OFFCURVE",
"1536 571 CURVE SMOOTH",
"1555 566 OFFCURVE",
"1577 562 OFFCURVE",
"1595 555 CURVE SMOOTH",
"1603 551 OFFCURVE",
"1619 547 OFFCURVE",
"1619 535 CURVE SMOOTH",
"1619 530 OFFCURVE",
"1617 525 OFFCURVE",
"1614 521 CURVE",
"1581 458 OFFCURVE",
"1391 411 OFFCURVE",
"1327 397 CURVE",
"1366 463 OFFCURVE",
"1408 528 OFFCURVE",
"1454 590 CURVE"
);
},
{
closed = 1;
nodes = (
"1156 343 OFFCURVE",
"1201 351 OFFCURVE",
"1247 360 CURVE",
"1226 323 OFFCURVE",
"1207 284 OFFCURVE",
"1192 245 CURVE",
"1139 244 OFFCURVE",
"1086 248 OFFCURVE",
"1034 253 CURVE",
"1060 280 OFFCURVE",
"1085 308 OFFCURVE",
"1110 336 CURVE"
);
},
{
closed = 1;
nodes = (
"850 287 OFFCURVE",
"851 287 OFFCURVE",
"851 287 CURVE",
"865 293 OFFCURVE",
"880 296 OFFCURVE",
"894 299 CURVE SMOOTH",
"943 310 OFFCURVE",
"993 317 OFFCURVE",
"1043 325 CURVE",
"1021 303 OFFCURVE",
"998 282 OFFCURVE",
"976 260 CURVE",
"938 266 OFFCURVE",
"886 272 OFFCURVE",
"851 286 CURVE",
"851 286 OFFCURVE",
"850 286 OFFCURVE",
"850 286 CURVE"
);
}
);
};
layerId = "95C423A7-595F-441F-915A-E5EF8B5EF971";
paths = (
{
closed = 1;
nodes = (
"290 -221 OFFCURVE",
"362 -200 OFFCURVE",
"426 -172 CURVE SMOOTH",
"646 -78 OFFCURVE",
"836 56 OFFCURVE",
"1005 224 CURVE",
"1047 222 OFFCURVE",
"1148 220 OFFCURVE",
"1183 222 CURVE",
"1169 182 OFFCURVE",
"1158 139 OFFCURVE",
"1158 97 CURVE SMOOTH",
"1158 51 OFFCURVE",
"1172 10 OFFCURVE",
"1209 -19 CURVE",
"1212 -20 OFFCURVE",
"1214 -21 OFFCURVE",
"1217 -21 CURVE SMOOTH",
"1224 -21 OFFCURVE",
"1230 -15 OFFCURVE",
"1230 -8 CURVE SMOOTH",
"1230 4 OFFCURVE",
"1199 11 OFFCURVE",
"1199 68 CURVE SMOOTH",
"1199 118 OFFCURVE",
"1220 179 OFFCURVE",
"1240 225 CURVE",
"1256 227 OFFCURVE",
"1345 234 OFFCURVE",
"1345 257 CURVE SMOOTH",
"1345 261 OFFCURVE",
"1342 264 OFFCURVE",
"1338 264 CURVE SMOOTH",
"1336 264 OFFCURVE",
"1334 263 OFFCURVE",
"1333 263 CURVE",
"1306 253 OFFCURVE",
"1278 249 OFFCURVE",
"1249 247 CURVE",
"1268 290 OFFCURVE",
"1290 333 OFFCURVE",
"1314 374 CURVE",
"1372 387 OFFCURVE",
"1664 460 OFFCURVE",
"1664 536 CURVE SMOOTH",
"1664 586 OFFCURVE",
"1514 610 OFFCURVE",
"1475 618 CURVE",
"1503 654 OFFCURVE",
"1679 846 OFFCURVE",
"1679 861 CURVE SMOOTH",
"1679 875 OFFCURVE",
"1655 882 OFFCURVE",
"1644 882 CURVE SMOOTH",
"1631 880 OFFCURVE",
"1634 882 OFFCURVE",
"1608 863 CURVE SMOOTH",
"1534 808 OFFCURVE",
"1356 656 OFFCURVE",
"1356 631 CURVE SMOOTH",
"1356 611 OFFCURVE",
"1394 605 OFFCURVE",
"1408 602 CURVE",
"1354 532 OFFCURVE",
"1304 459 OFFCURVE",
"1260 383 CURVE",
"1218 375 OFFCURVE",
"1177 370 OFFCURVE",
"1135 366 CURVE",
"1215 460 OFFCURVE",
"1290 561 OFFCURVE",
"1355 666 CURVE SMOOTH",
"1359 671 OFFCURVE",
"1364 678 OFFCURVE",
"1364 683 CURVE SMOOTH",
"1364 688 OFFCURVE",
"1359 690 OFFCURVE",
"1355 690 CURVE SMOOTH",
"1348 690 OFFCURVE",
"1342 687 OFFCURVE",
"1339 682 CURVE SMOOTH",
"1318 649 LINE SMOOTH",
"1301 623 OFFCURVE",
"1282 599 OFFCURVE",
"1263 575 CURVE SMOOTH",
"1206 500 OFFCURVE",
"1143 428 OFFCURVE",
"1077 360 CURVE",
"1015 355 OFFCURVE",
"768 339 OFFCURVE",
"728 322 CURVE SMOOTH",
"721 319 OFFCURVE",
"708 314 OFFCURVE",
"708 303 CURVE SMOOTH",
"708 277 OFFCURVE",
"801 251 OFFCURVE",
"831 244 CURVE SMOOTH",
"867 236 OFFCURVE",
"905 232 OFFCURVE",
"941 229 CURVE",
"781 82 OFFCURVE",
"441 -193 OFFCURVE",
"208 -193 CURVE SMOOTH",
"110 -193 OFFCURVE",
"46 -141 OFFCURVE",
"46 -41 CURVE SMOOTH",
"46 128 OFFCURVE",
"207 291 OFFCURVE",
"343 371 CURVE SMOOTH",
"416 415 OFFCURVE",
"537 465 OFFCURVE",
"613 465 CURVE SMOOTH",
"637 465 OFFCURVE",
"672 460 OFFCURVE",
"686 439 CURVE SMOOTH",
"689 434 OFFCURVE",
"691 431 OFFCURVE",
"697 431 CURVE SMOOTH",
"704 431 OFFCURVE",
"713 436 OFFCURVE",
"710 445 CURVE SMOOTH",
"701 477 OFFCURVE",
"654 490 OFFCURVE",
"613 490 CURVE SMOOTH",
"534 490 OFFCURVE",
"401 438 OFFCURVE",
"318 391 CURVE SMOOTH",
"173 310 OFFCURVE",
"13 153 OFFCURVE",
"13 -25 CURVE SMOOTH",
"13 -151 OFFCURVE",
"98 -221 OFFCURVE",
"220 -221 CURVE SMOOTH"
);
},
{
closed = 1;
nodes = (
"938 266 OFFCURVE",
"863 278 OFFCURVE",
"851 287 CURVE",
"879 299 OFFCURVE",
"962 312 OFFCURVE",
"1043 325 CURVE",
"1021 303 OFFCURVE",
"998 282 OFFCURVE",
"976 260 CURVE"
);
},
{
closed = 1;
nodes = (
"1139 244 OFFCURVE",
"1086 248 OFFCURVE",
"1034 253 CURVE",
"1060 280 OFFCURVE",
"1085 308 OFFCURVE",
"1110 336 CURVE",
"1156 343 OFFCURVE",
"1201 351 OFFCURVE",
"1247 360 CURVE",
"1226 323 OFFCURVE",
"1207 284 OFFCURVE",
"1192 245 CURVE"
);
},
{
closed = 1;
nodes = (
"1366 463 OFFCURVE",
"1408 528 OFFCURVE",
"1454 590 CURVE",
"1478 584 OFFCURVE",
"1573 563 OFFCURVE",
"1595 555 CURVE SMOOTH",
"1603 551 OFFCURVE",
"1619 547 OFFCURVE",
"1619 535 CURVE SMOOTH",
"1619 471 OFFCURVE",
"1399 413 OFFCURVE",
"1327 397 CURVE"
);
},
{
closed = 1;
nodes = (
"1422 631 OFFCURVE",
"1402 637 OFFCURVE",
"1402 648 CURVE SMOOTH",
"1402 662 OFFCURVE",
"1454 703 OFFCURVE",
"1490 735 CURVE SMOOTH",
"1519 761 OFFCURVE",
"1568 802 OFFCURVE",
"1590 817 CURVE",
"1581 805 OFFCURVE",
"1571 794 OFFCURVE",
"1562 783 CURVE SMOOTH",
"1518 732 OFFCURVE",
"1472 682 OFFCURVE",
"1430 629 CURVE"
);
}
);
width = 1407;
}
);
note = A;
unicode = 0041;
},
{
color = 11;
glyphname = Aacute;
lastChange = "2021-09-15 00:52:07 +0000";
layers = (
{
background = {
paths = (
{
closed = 1;
nodes = (
"1674 935 OFFCURVE",
"1677 936 OFFCURVE",
"1680 938 CURVE SMOOTH",
"1726 965 OFFCURVE",
"1773 989 OFFCURVE",
"1820 1014 CURVE SMOOTH",
"1832 1020 OFFCURVE",
"1854 1033 OFFCURVE",
"1854 1049 CURVE SMOOTH",
"1854 1060 OFFCURVE",
"1840 1065 OFFCURVE",
"1831 1065 CURVE SMOOTH",
"1813 1065 OFFCURVE",
"1797 1055 OFFCURVE",
"1785 1044 CURVE SMOOTH",
"1768 1029 OFFCURVE",
"1665 958 OFFCURVE",
"1665 942 CURVE SMOOTH",
"1665 938 OFFCURVE",
"1667 935 OFFCURVE",
"1671 935 CURVE SMOOTH"
);
},
{
closed = 1;
nodes = (
"1503 654 OFFCURVE",
"1679 846 OFFCURVE",
"1679 861 CURVE SMOOTH",
"1679 875 OFFCURVE",
"1655 882 OFFCURVE",
"1644 882 CURVE SMOOTH",
"1642 882 OFFCURVE",
"1640 882 OFFCURVE",
"1637 882 CURVE",
"1604 869 OFFCURVE",
"1388 681 OFFCURVE",
"1363 647 CURVE SMOOTH",
"1360 642 OFFCURVE",
"1356 637 OFFCURVE",
"1356 631 CURVE SMOOTH",
"1356 611 OFFCURVE",
"1394 605 OFFCURVE",
"1408 602 CURVE",
"1354 532 OFFCURVE",
"1304 459 OFFCURVE",
"1260 383 CURVE",
"1218 375 OFFCURVE",
"1177 370 OFFCURVE",
"1135 366 CURVE",
"1218 463 OFFCURVE",
"1295 568 OFFCURVE",
"1362 677 CURVE",
"1363 678 OFFCURVE",
"1364 681 OFFCURVE",
"1364 683 CURVE SMOOTH",
"1364 688 OFFCURVE",
"1359 690 OFFCURVE",
"1355 690 CURVE SMOOTH",
"1348 690 OFFCURVE",
"1343 687 OFFCURVE",
"1339 682 CURVE SMOOTH",
"1332 671 OFFCURVE",
"1325 660 OFFCURVE",
"1318 649 CURVE SMOOTH",
"1300 624 OFFCURVE",
"1282 599 OFFCURVE",
"1263 575 CURVE SMOOTH",
"1206 500 OFFCURVE",
"1143 428 OFFCURVE",
"1077 360 CURVE",
"1015 355 OFFCURVE",
"768 339 OFFCURVE",
"728 322 CURVE SMOOTH",
"721 319 OFFCURVE",
"708 314 OFFCURVE",
"708 303 CURVE SMOOTH",
"708 300 OFFCURVE",
"709 296 OFFCURVE",
"711 294 CURVE SMOOTH",
"729 272 OFFCURVE",
"803 250 OFFCURVE",
"831 244 CURVE SMOOTH",
"867 236 OFFCURVE",
"905 232 OFFCURVE",
"941 229 CURVE",
"781 82 OFFCURVE",
"441 -193 OFFCURVE",
"208 -193 CURVE SMOOTH",
"110 -193 OFFCURVE",
"46 -141 OFFCURVE",
"46 -41 CURVE SMOOTH",
"46 128 OFFCURVE",
"207 291 OFFCURVE",
"343 371 CURVE SMOOTH",
"403 407 OFFCURVE",
"467 433 OFFCURVE",
"534 453 CURVE SMOOTH",
"560 460 OFFCURVE",
"587 465 OFFCURVE",
"613 465 CURVE SMOOTH",
"637 465 OFFCURVE",
"672 460 OFFCURVE",
"686 439 CURVE SMOOTH",
"689 434 OFFCURVE",
"691 431 OFFCURVE",
"697 431 CURVE SMOOTH",
"704 431 OFFCURVE",
"711 436 OFFCURVE",
"711 443 CURVE SMOOTH",
"711 445 OFFCURVE",
"710 447 OFFCURVE",
"709 448 CURVE",
"694 482 OFFCURVE",
"647 490 OFFCURVE",
"613 490 CURVE SMOOTH",
"584 490 OFFCURVE",
"555 485 OFFCURVE",
"527 477 CURVE SMOOTH",
"455 455 OFFCURVE",
"384 428 OFFCURVE",
"318 391 CURVE SMOOTH",
"173 310 OFFCURVE",
"13 153 OFFCURVE",
"13 -25 CURVE SMOOTH",
"13 -151 OFFCURVE",
"98 -221 OFFCURVE",
"220 -221 CURVE SMOOTH",
"290 -221 OFFCURVE",
"362 -200 OFFCURVE",
"426 -172 CURVE SMOOTH",
"646 -78 OFFCURVE",
"836 56 OFFCURVE",
"1005 224 CURVE",
"1045 222 OFFCURVE",
"1085 221 OFFCURVE",
"1124 221 CURVE SMOOTH",
"1144 221 OFFCURVE",
"1163 221 OFFCURVE",
"1183 222 CURVE",
"1169 182 OFFCURVE",
"1158 139 OFFCURVE",
"1158 97 CURVE SMOOTH",
"1158 51 OFFCURVE",
"1172 10 OFFCURVE",
"1209 -19 CURVE",
"1212 -20 OFFCURVE",
"1214 -21 OFFCURVE",
"1217 -21 CURVE SMOOTH",
"1224 -21 OFFCURVE",
"1230 -15 OFFCURVE",
"1230 -8 CURVE SMOOTH",
"1230 4 OFFCURVE",
"1199 11 OFFCURVE",
"1199 68 CURVE SMOOTH",
"1199 118 OFFCURVE",
"1220 179 OFFCURVE",
"1240 225 CURVE",
"1256 227 OFFCURVE",
"1345 234 OFFCURVE",
"1345 257 CURVE SMOOTH",
"1345 261 OFFCURVE",
"1342 264 OFFCURVE",
"1338 264 CURVE SMOOTH",
"1336 264 OFFCURVE",
"1334 263 OFFCURVE",
"1333 263 CURVE",
"1306 253 OFFCURVE",
"1278 249 OFFCURVE",
"1249 247 CURVE",
"1268 290 OFFCURVE",
"1290 333 OFFCURVE",
"1314 374 CURVE",
"1372 387 OFFCURVE",
"1664 460 OFFCURVE",
"1664 536 CURVE SMOOTH",
"1664 586 OFFCURVE",
"1514 610 OFFCURVE",
"1475 618 CURVE"
);
},
{
closed = 1;
nodes = (
"1581 805 OFFCURVE",
"1571 794 OFFCURVE",
"1562 783 CURVE SMOOTH",
"1518 732 OFFCURVE",
"1472 682 OFFCURVE",
"1430 629 CURVE",
"1422 631 OFFCURVE",
"1402 637 OFFCURVE",
"1402 648 CURVE SMOOTH",
"1402 656 OFFCURVE",
"1410 663 OFFCURVE",
"1415 668 CURVE SMOOTH",
"1452 702 OFFCURVE",
"1490 735 OFFCURVE",
"1528 767 CURVE SMOOTH",
"1548 784 OFFCURVE",
"1568 802 OFFCURVE",
"1590 817 CURVE"
);
},
{
closed = 1;
nodes = (
"1481 583 OFFCURVE",
"1508 577 OFFCURVE",
"1536 571 CURVE SMOOTH",
"1555 566 OFFCURVE",
"1577 562 OFFCURVE",
"1595 555 CURVE SMOOTH",
"1603 551 OFFCURVE",
"1619 547 OFFCURVE",
"1619 535 CURVE SMOOTH",
"1619 530 OFFCURVE",
"1617 525 OFFCURVE",
"1614 521 CURVE",
"1581 458 OFFCURVE",
"1391 411 OFFCURVE",
"1327 397 CURVE",
"1366 463 OFFCURVE",
"1408 528 OFFCURVE",
"1454 590 CURVE"
);
},
{
closed = 1;
nodes = (
"1156 343 OFFCURVE",
"1201 351 OFFCURVE",
"1247 360 CURVE",
"1226 323 OFFCURVE",
"1207 284 OFFCURVE",
"1192 245 CURVE",
"1139 244 OFFCURVE",
"1086 248 OFFCURVE",
"1034 253 CURVE",
"1060 280 OFFCURVE",
"1085 308 OFFCURVE",
"1110 336 CURVE"
);
},
{
closed = 1;
nodes = (
"850 287 OFFCURVE",
"851 287 OFFCURVE",
"851 287 CURVE",
"865 293 OFFCURVE",
"880 296 OFFCURVE",
"894 299 CURVE SMOOTH",
"943 310 OFFCURVE",
"993 317 OFFCURVE",
"1043 325 CURVE",
"1021 303 OFFCURVE",
"998 282 OFFCURVE",
"976 260 CURVE",
"938 266 OFFCURVE",
"886 272 OFFCURVE",
"851 286 CURVE",
"851 286 OFFCURVE",
"850 286 OFFCURVE",
"850 286 CURVE"
);
}
);
};
layerId = "95C423A7-595F-441F-915A-E5EF8B5EF971";
paths = (
{
closed = 1;
nodes = (
"290 -221 OFFCURVE",
"362 -200 OFFCURVE",
"426 -172 CURVE SMOOTH",
"646 -78 OFFCURVE",
"836 56 OFFCURVE",
"1005 224 CURVE",
"1045 222 OFFCURVE",
"1085 221 OFFCURVE",
"1124 221 CURVE SMOOTH",
"1144 221 OFFCURVE",
"1163 221 OFFCURVE",
"1183 222 CURVE",
"1169 182 OFFCURVE",
"1158 139 OFFCURVE",
"1158 97 CURVE SMOOTH",
"1158 51 OFFCURVE",
"1172 10 OFFCURVE",
"1209 -19 CURVE",
"1212 -20 OFFCURVE",
"1214 -21 OFFCURVE",
"1217 -21 CURVE SMOOTH",
"1224 -21 OFFCURVE",
"1230 -15 OFFCURVE",
"1230 -8 CURVE SMOOTH",
"1230 4 OFFCURVE",
"1199 11 OFFCURVE",
"1199 68 CURVE SMOOTH",
"1199 118 OFFCURVE",
"1220 179 OFFCURVE",
"1240 225 CURVE",
"1256 227 OFFCURVE",
"1345 234 OFFCURVE",
"1345 257 CURVE SMOOTH",
"1345 261 OFFCURVE",
"1342 264 OFFCURVE",
"1338 264 CURVE SMOOTH",
"1336 264 OFFCURVE",
"1334 263 OFFCURVE",
"1333 263 CURVE",
"1306 253 OFFCURVE",
"1278 249 OFFCURVE",
"1249 247 CURVE",
"1268 290 OFFCURVE",
"1290 333 OFFCURVE",
"1314 374 CURVE",
"1372 387 OFFCURVE",
"1664 460 OFFCURVE",
"1664 536 CURVE SMOOTH",
"1664 586 OFFCURVE",
"1514 610 OFFCURVE",
"1475 618 CURVE",
"1503 654 OFFCURVE",
"1679 846 OFFCURVE",
"1679 861 CURVE SMOOTH",
"1679 875 OFFCURVE",
"1655 882 OFFCURVE",
"1644 882 CURVE SMOOTH",
"1637 882 LINE",
"1604 869 OFFCURVE",
"1388 681 OFFCURVE",
"1363 647 CURVE SMOOTH",
"1360 642 OFFCURVE",
"1356 637 OFFCURVE",
"1356 631 CURVE SMOOTH",
"1356 611 OFFCURVE",
"1394 605 OFFCURVE",
"1408 602 CURVE",
"1354 532 OFFCURVE",
"1304 459 OFFCURVE",
"1260 383 CURVE",
"1218 375 OFFCURVE",
"1177 370 OFFCURVE",
"1135 366 CURVE",
"1218 463 OFFCURVE",
"1295 568 OFFCURVE",
"1362 677 CURVE",
"1363 678 OFFCURVE",
"1364 681 OFFCURVE",
"1364 683 CURVE SMOOTH",
"1364 688 OFFCURVE",
"1359 690 OFFCURVE",
"1355 690 CURVE SMOOTH",
"1348 690 OFFCURVE",
"1343 687 OFFCURVE",
"1339 682 CURVE SMOOTH",
"1318 649 LINE SMOOTH",
"1300 624 OFFCURVE",
"1282 599 OFFCURVE",
"1263 575 CURVE SMOOTH",
"1206 500 OFFCURVE",
"1143 428 OFFCURVE",
"1077 360 CURVE",
"1015 355 OFFCURVE",
"768 339 OFFCURVE",
"728 322 CURVE SMOOTH",
"721 319 OFFCURVE",
"708 314 OFFCURVE",
"708 303 CURVE SMOOTH",
"708 300 OFFCURVE",
"709 296 OFFCURVE",
"711 294 CURVE SMOOTH",
"729 272 OFFCURVE",
"803 250 OFFCURVE",
"831 244 CURVE SMOOTH",
"867 236 OFFCURVE",
"905 232 OFFCURVE",
"941 229 CURVE",
"781 82 OFFCURVE",
"441 -193 OFFCURVE",
"208 -193 CURVE SMOOTH",
"110 -193 OFFCURVE",
"46 -141 OFFCURVE",
"46 -41 CURVE SMOOTH",
"46 128 OFFCURVE",
"207 291 OFFCURVE",
"343 371 CURVE SMOOTH",
"403 407 OFFCURVE",
"467 433 OFFCURVE",
"534 453 CURVE SMOOTH",
"560 460 OFFCURVE",
"587 465 OFFCURVE",
"613 465 CURVE SMOOTH",
"637 465 OFFCURVE",
"672 460 OFFCURVE",
"686 439 CURVE SMOOTH",
"689 434 OFFCURVE",
"691 431 OFFCURVE",
"697 431 CURVE SMOOTH",
"704 431 OFFCURVE",
"711 436 OFFCURVE",
"711 443 CURVE SMOOTH",
"711 445 OFFCURVE",
"710 447 OFFCURVE",
"709 448 CURVE",
"694 482 OFFCURVE",
"647 490 OFFCURVE",
"613 490 CURVE SMOOTH",
"584 490 OFFCURVE",
"555 485 OFFCURVE",
"527 477 CURVE SMOOTH",
"455 455 OFFCURVE",
"384 428 OFFCURVE",
"318 391 CURVE SMOOTH",
"173 310 OFFCURVE",
"13 153 OFFCURVE",
"13 -25 CURVE SMOOTH",
"13 -151 OFFCURVE",
"98 -221 OFFCURVE",
"220 -221 CURVE SMOOTH"
);
},
{
closed = 1;
nodes = (
"938 266 OFFCURVE",
"886 272 OFFCURVE",
"851 286 CURVE",
"850 286 LINE",
"850 287 OFFCURVE",
"851 287 OFFCURVE",
"851 287 CURVE",
"865 293 OFFCURVE",
"880 296 OFFCURVE",
"894 299 CURVE SMOOTH",
"943 310 OFFCURVE",
"993 317 OFFCURVE",
"1043 325 CURVE",
"1021 303 OFFCURVE",
"998 282 OFFCURVE",
"976 260 CURVE"
);
},
{
closed = 1;
nodes = (
"1139 244 OFFCURVE",
"1086 248 OFFCURVE",
"1034 253 CURVE",
"1060 280 OFFCURVE",
"1085 308 OFFCURVE",
"1110 336 CURVE",
"1156 343 OFFCURVE",
"1201 351 OFFCURVE",
"1247 360 CURVE",
"1226 323 OFFCURVE",
"1207 284 OFFCURVE",
"1192 245 CURVE"
);
},
{
closed = 1;
nodes = (
"1366 463 OFFCURVE",
"1408 528 OFFCURVE",
"1454 590 CURVE",
"1481 583 OFFCURVE",
"1508 577 OFFCURVE",
"1536 571 CURVE SMOOTH",
"1555 566 OFFCURVE",
"1577 562 OFFCURVE",
"1595 555 CURVE SMOOTH",
"1603 551 OFFCURVE",
"1619 547 OFFCURVE",
"1619 535 CURVE SMOOTH",
"1619 530 OFFCURVE",
"1617 525 OFFCURVE",
"1614 521 CURVE",
"1581 458 OFFCURVE",
"1391 411 OFFCURVE",
"1327 397 CURVE"
);
},
{
closed = 1;
nodes = (
"1422 631 OFFCURVE",
"1402 637 OFFCURVE",
"1402 648 CURVE SMOOTH",
"1402 656 OFFCURVE",
"1410 663 OFFCURVE",
"1415 668 CURVE SMOOTH",
"1452 702 OFFCURVE",
"1490 735 OFFCURVE",
"1528 767 CURVE SMOOTH",
"1548 784 OFFCURVE",
"1568 802 OFFCURVE",
"1590 817 CURVE",
"1581 805 OFFCURVE",
"1571 794 OFFCURVE",
"1562 783 CURVE SMOOTH",
"1518 732 OFFCURVE",
"1472 682 OFFCURVE",
"1430 629 CURVE"
);
},
{
closed = 1;
nodes = (
"1674 935 OFFCURVE",
"1677 936 OFFCURVE",
"1680 938 CURVE SMOOTH",
"1726 965 OFFCURVE",
"1773 989 OFFCURVE",
"1820 1014 CURVE SMOOTH",
"1832 1020 OFFCURVE",
"1854 1033 OFFCURVE",
"1854 1049 CURVE SMOOTH",
"1854 1060 OFFCURVE",
"1840 1065 OFFCURVE",
"1831 1065 CURVE SMOOTH",
"1813 1065 OFFCURVE",
"1797 1055 OFFCURVE",
"1785 1044 CURVE SMOOTH",
"1768 1029 OFFCURVE",
"1665 958 OFFCURVE",
"1665 942 CURVE SMOOTH",
"1665 938 OFFCURVE",
"1667 935 OFFCURVE",
"1671 935 CURVE SMOOTH"
);
}
);
width = 1407;
}
);
note = Aacute;
unicode = 00C1;
},
{
color = 11;
glyphname = Adieresis;
lastChange = "2021-09-15 00:52:07 +0000";
layers = (
{
background = {
paths = (
{
closed = 1;
nodes = (
"1655 1063 LINE",
"1654 1065 OFFCURVE",
"1653 1065 OFFCURVE",
"1652 1065 CURVE SMOOTH",
"1633 1065 OFFCURVE",
"1576 1029 OFFCURVE",
"1576 1007 CURVE SMOOTH",
"1576 998 OFFCURVE",
"1587 978 OFFCURVE",
"1597 978 CURVE SMOOTH",
"1612 978 OFFCURVE",
"1623 999 OFFCURVE",
"1626 1011 CURVE SMOOTH",
"1630 1023 OFFCURVE",
"1634 1035 OFFCURVE",
"1641 1045 CURVE",
"1642 1048 OFFCURVE",
"1655 1061 OFFCURVE",
"1655 1062 CURVE SMOOTH",
"1655 1064 LINE"
);
},
{
closed = 1;
nodes = (
"1776 1063 LINE",
"1775 1065 OFFCURVE",
"1774 1065 OFFCURVE",
"1773 1065 CURVE SMOOTH",
"1754 1065 OFFCURVE",
"1697 1029 OFFCURVE",
"1697 1007 CURVE SMOOTH",
"1697 998 OFFCURVE",
"1708 978 OFFCURVE",
"1718 978 CURVE SMOOTH",
"1733 978 OFFCURVE",
"1744 999 OFFCURVE",
"1747 1011 CURVE SMOOTH",
"1751 1023 OFFCURVE",
"1755 1035 OFFCURVE",
"1762 1045 CURVE",
"1763 1048 OFFCURVE",
"1776 1061 OFFCURVE",
"1776 1062 CURVE SMOOTH",
"1776 1064 LINE"
);
},
{
closed = 1;
nodes = (
"1503 654 OFFCURVE",
"1679 846 OFFCURVE",
"1679 861 CURVE SMOOTH",
"1679 875 OFFCURVE",
"1655 882 OFFCURVE",
"1644 882 CURVE SMOOTH",
"1642 882 OFFCURVE",
"1640 882 OFFCURVE",
"1637 882 CURVE",
"1604 869 OFFCURVE",
"1388 681 OFFCURVE",
"1363 647 CURVE SMOOTH",
"1360 642 OFFCURVE",
"1356 637 OFFCURVE",
"1356 631 CURVE SMOOTH",
"1356 611 OFFCURVE",
"1394 605 OFFCURVE",
"1408 602 CURVE",
"1354 532 OFFCURVE",
"1304 459 OFFCURVE",
"1260 383 CURVE",
"1218 375 OFFCURVE",
"1177 370 OFFCURVE",
"1135 366 CURVE",
"1218 463 OFFCURVE",
"1295 568 OFFCURVE",
"1362 677 CURVE",
"1363 678 OFFCURVE",
"1364 681 OFFCURVE",
"1364 683 CURVE SMOOTH",
"1364 688 OFFCURVE",
"1359 690 OFFCURVE",
"1355 690 CURVE SMOOTH",
"1348 690 OFFCURVE",
"1343 687 OFFCURVE",
"1339 682 CURVE SMOOTH",
"1332 671 OFFCURVE",
"1325 660 OFFCURVE",
"1318 649 CURVE SMOOTH",
"1300 624 OFFCURVE",
"1282 599 OFFCURVE",
"1263 575 CURVE SMOOTH",
"1206 500 OFFCURVE",
"1143 428 OFFCURVE",
"1077 360 CURVE",
"1015 355 OFFCURVE",
"768 339 OFFCURVE",
"728 322 CURVE SMOOTH",
"721 319 OFFCURVE",
"708 314 OFFCURVE",
"708 303 CURVE SMOOTH",
"708 300 OFFCURVE",
"709 296 OFFCURVE",
"711 294 CURVE SMOOTH",
"729 272 OFFCURVE",
"803 250 OFFCURVE",
"831 244 CURVE SMOOTH",
"867 236 OFFCURVE",
"905 232 OFFCURVE",
"941 229 CURVE",
"781 82 OFFCURVE",
"441 -193 OFFCURVE",
"208 -193 CURVE SMOOTH",
"110 -193 OFFCURVE",
"46 -141 OFFCURVE",
"46 -41 CURVE SMOOTH",
"46 128 OFFCURVE",
"207 291 OFFCURVE",
"343 371 CURVE SMOOTH",
"403 407 OFFCURVE",
"467 433 OFFCURVE",
"534 453 CURVE SMOOTH",
"560 460 OFFCURVE",
"587 465 OFFCURVE",
"613 465 CURVE SMOOTH",
"637 465 OFFCURVE",
"672 460 OFFCURVE",
"686 439 CURVE SMOOTH",
"689 434 OFFCURVE",
"691 431 OFFCURVE",
"697 431 CURVE SMOOTH",
"704 431 OFFCURVE",
"711 436 OFFCURVE",
"711 443 CURVE SMOOTH",
"711 445 OFFCURVE",
"710 447 OFFCURVE",
"709 448 CURVE",
"694 482 OFFCURVE",
"647 490 OFFCURVE",
"613 490 CURVE SMOOTH",
"584 490 OFFCURVE",
"555 485 OFFCURVE",
"527 477 CURVE SMOOTH",
"455 455 OFFCURVE",
"384 428 OFFCURVE",
"318 391 CURVE SMOOTH",
"173 310 OFFCURVE",
"13 153 OFFCURVE",
"13 -25 CURVE SMOOTH",
"13 -151 OFFCURVE",
"98 -221 OFFCURVE",
"220 -221 CURVE SMOOTH",
"290 -221 OFFCURVE",
"362 -200 OFFCURVE",
"426 -172 CURVE SMOOTH",
"646 -78 OFFCURVE",
"836 56 OFFCURVE",
"1005 224 CURVE",
"1045 222 OFFCURVE",
"1085 221 OFFCURVE",
"1124 221 CURVE SMOOTH",
"1144 221 OFFCURVE",
"1163 221 OFFCURVE",
"1183 222 CURVE",
"1169 182 OFFCURVE",
"1158 139 OFFCURVE",
"1158 97 CURVE SMOOTH",
"1158 51 OFFCURVE",
"1172 10 OFFCURVE",
"1209 -19 CURVE",
"1212 -20 OFFCURVE",
"1214 -21 OFFCURVE",
"1217 -21 CURVE SMOOTH",
"1224 -21 OFFCURVE",
"1230 -15 OFFCURVE",
"1230 -8 CURVE SMOOTH",
"1230 4 OFFCURVE",
"1199 11 OFFCURVE",
"1199 68 CURVE SMOOTH",
"1199 118 OFFCURVE",
"1220 179 OFFCURVE",
"1240 225 CURVE",
"1256 227 OFFCURVE",
"1345 234 OFFCURVE",
"1345 257 CURVE SMOOTH",
"1345 261 OFFCURVE",
"1342 264 OFFCURVE",
"1338 264 CURVE SMOOTH",
"1336 264 OFFCURVE",
"1334 263 OFFCURVE",
"1333 263 CURVE",
"1306 253 OFFCURVE",
"1278 249 OFFCURVE",
"1249 247 CURVE",
"1268 290 OFFCURVE",
"1290 333 OFFCURVE",
"1314 374 CURVE",
"1372 387 OFFCURVE",
"1664 460 OFFCURVE",
"1664 536 CURVE SMOOTH",
"1664 586 OFFCURVE",
"1514 610 OFFCURVE",
"1475 618 CURVE"
);
},
{
closed = 1;
nodes = (
"1581 805 OFFCURVE",
"1571 794 OFFCURVE",
"1562 783 CURVE SMOOTH",
"1518 732 OFFCURVE",
"1472 682 OFFCURVE",
"1430 629 CURVE",
"1422 631 OFFCURVE",
"1402 637 OFFCURVE",
"1402 648 CURVE SMOOTH",
"1402 656 OFFCURVE",
"1410 663 OFFCURVE",
"1415 668 CURVE SMOOTH",
"1452 702 OFFCURVE",
"1490 735 OFFCURVE",
"1528 767 CURVE SMOOTH",
"1548 784 OFFCURVE",
"1568 802 OFFCURVE",
"1590 817 CURVE"
);
},
{
closed = 1;
nodes = (
"1481 583 OFFCURVE",
"1508 577 OFFCURVE",
"1536 571 CURVE SMOOTH",
"1555 566 OFFCURVE",
"1577 562 OFFCURVE",
"1595 555 CURVE SMOOTH",
"1603 551 OFFCURVE",
"1619 547 OFFCURVE",
"1619 535 CURVE SMOOTH",
"1619 530 OFFCURVE",
"1617 525 OFFCURVE",
"1614 521 CURVE",
"1581 458 OFFCURVE",
"1391 411 OFFCURVE",
"1327 397 CURVE",
"1366 463 OFFCURVE",
"1408 528 OFFCURVE",
"1454 590 CURVE"
);
},
{
closed = 1;
nodes = (
"1156 343 OFFCURVE",
"1201 351 OFFCURVE",
"1247 360 CURVE",
"1226 323 OFFCURVE",
"1207 284 OFFCURVE",
"1192 245 CURVE",
"1139 244 OFFCURVE",
"1086 248 OFFCURVE",
"1034 253 CURVE",
"1060 280 OFFCURVE",
"1085 308 OFFCURVE",
"1110 336 CURVE"
);
},
{
closed = 1;
nodes = (
"850 287 OFFCURVE",
"851 287 OFFCURVE",
"851 287 CURVE",
"865 293 OFFCURVE",
"880 296 OFFCURVE",
"894 299 CURVE SMOOTH",
"943 310 OFFCURVE",
"993 317 OFFCURVE",
"1043 325 CURVE",
"1021 303 OFFCURVE",
"998 282 OFFCURVE",
"976 260 CURVE",
"938 266 OFFCURVE",
"886 272 OFFCURVE",
"851 286 CURVE",
"851 286 OFFCURVE",
"850 286 OFFCURVE",
"850 286 CURVE"
);
}
);
};
layerId = "95C423A7-595F-441F-915A-E5EF8B5EF971";
paths = (
{
closed = 1;
nodes = (
"290 -221 OFFCURVE",
"362 -200 OFFCURVE",
"426 -172 CURVE SMOOTH",
"646 -78 OFFCURVE",
"836 56 OFFCURVE",
"1005 224 CURVE",
"1045 222 OFFCURVE",
"1085 221 OFFCURVE",
"1124 221 CURVE SMOOTH",
"1144 221 OFFCURVE",
"1163 221 OFFCURVE",
"1183 222 CURVE",
"1169 182 OFFCURVE",
"1158 139 OFFCURVE",
"1158 97 CURVE SMOOTH",
"1158 51 OFFCURVE",
"1172 10 OFFCURVE",
"1209 -19 CURVE",
"1212 -20 OFFCURVE",
"1214 -21 OFFCURVE",
"1217 -21 CURVE SMOOTH",
"1224 -21 OFFCURVE",
"1230 -15 OFFCURVE",
"1230 -8 CURVE SMOOTH",
"1230 4 OFFCURVE",
"1199 11 OFFCURVE",
"1199 68 CURVE SMOOTH",
"1199 118 OFFCURVE",
"1220 179 OFFCURVE",
"1240 225 CURVE",
"1256 227 OFFCURVE",
"1345 234 OFFCURVE",
"1345 257 CURVE SMOOTH",
"1345 261 OFFCURVE",
"1342 264 OFFCURVE",
"1338 264 CURVE SMOOTH",
"1336 264 OFFCURVE",
"1334 263 OFFCURVE",
"1333 263 CURVE",
"1306 253 OFFCURVE",
"1278 249 OFFCURVE",
"1249 247 CURVE",
"1268 290 OFFCURVE",
"1290 333 OFFCURVE",
"1314 374 CURVE",
"1372 387 OFFCURVE",
"1664 460 OFFCURVE",
"1664 536 CURVE SMOOTH",
"1664 586 OFFCURVE",
"1514 610 OFFCURVE",
"1475 618 CURVE",
"1503 654 OFFCURVE",
"1679 846 OFFCURVE",
"1679 861 CURVE SMOOTH",
"1679 875 OFFCURVE",
"1655 882 OFFCURVE",
"1644 882 CURVE SMOOTH",
"1637 882 LINE",
"1604 869 OFFCURVE",
"1388 681 OFFCURVE",
"1363 647 CURVE SMOOTH",
"1360 642 OFFCURVE",
"1356 637 OFFCURVE",
"1356 631 CURVE SMOOTH",
"1356 611 OFFCURVE",
"1394 605 OFFCURVE",
"1408 602 CURVE",
"1354 532 OFFCURVE",
"1304 459 OFFCURVE",
"1260 383 CURVE",
"1218 375 OFFCURVE",
"1177 370 OFFCURVE",
"1135 366 CURVE",
"1218 463 OFFCURVE",
"1295 568 OFFCURVE",
"1362 677 CURVE",
"1363 678 OFFCURVE",
"1364 681 OFFCURVE",
"1364 683 CURVE SMOOTH",
"1364 688 OFFCURVE",
"1359 690 OFFCURVE",
"1355 690 CURVE SMOOTH",
"1348 690 OFFCURVE",
"1343 687 OFFCURVE",
"1339 682 CURVE SMOOTH",
"1318 649 LINE SMOOTH",
"1300 624 OFFCURVE",
"1282 599 OFFCURVE",
"1263 575 CURVE SMOOTH",
"1206 500 OFFCURVE",
"1143 428 OFFCURVE",
"1077 360 CURVE",
"1015 355 OFFCURVE",
"768 339 OFFCURVE",
"728 322 CURVE SMOOTH",
"721 319 OFFCURVE",
"708 314 OFFCURVE",
"708 303 CURVE SMOOTH",
"708 300 OFFCURVE",
"709 296 OFFCURVE",
"711 294 CURVE SMOOTH",
"729 272 OFFCURVE",
"803 250 OFFCURVE",
"831 244 CURVE SMOOTH",
"867 236 OFFCURVE",
"905 232 OFFCURVE",
"941 229 CURVE",
"781 82 OFFCURVE",
"441 -193 OFFCURVE",
"208 -193 CURVE SMOOTH",
"110 -193 OFFCURVE",
"46 -141 OFFCURVE",
"46 -41 CURVE SMOOTH",
"46 128 OFFCURVE",
"207 291 OFFCURVE",
"343 371 CURVE SMOOTH",
"403 407 OFFCURVE",
"467 433 OFFCURVE",
"534 453 CURVE SMOOTH",
"560 460 OFFCURVE",
"587 465 OFFCURVE",
"613 465 CURVE SMOOTH",
"637 465 OFFCURVE",
"672 460 OFFCURVE",
"686 439 CURVE SMOOTH",
"689 434 OFFCURVE",
"691 431 OFFCURVE",
"697 431 CURVE SMOOTH",
"704 431 OFFCURVE",
"711 436 OFFCURVE",
"711 443 CURVE SMOOTH",
"711 445 OFFCURVE",
"710 447 OFFCURVE",
"709 448 CURVE",
"694 482 OFFCURVE",
"647 490 OFFCURVE",
"613 490 CURVE SMOOTH",
"584 490 OFFCURVE",
"555 485 OFFCURVE",
"527 477 CURVE SMOOTH",
"455 455 OFFCURVE",
"384 428 OFFCURVE",
"318 391 CURVE SMOOTH",
"173 310 OFFCURVE",
"13 153 OFFCURVE",
"13 -25 CURVE SMOOTH",
"13 -151 OFFCURVE",
"98 -221 OFFCURVE",
"220 -221 CURVE SMOOTH"
);
},
{
closed = 1;
nodes = (
"938 266 OFFCURVE",
"886 272 OFFCURVE",
"851 286 CURVE",
"850 286 LINE",
"850 287 OFFCURVE",
"851 287 OFFCURVE",
"851 287 CURVE",
"865 293 OFFCURVE",
"880 296 OFFCURVE",
"894 299 CURVE SMOOTH",
"943 310 OFFCURVE",
"993 317 OFFCURVE",
"1043 325 CURVE",
"1021 303 OFFCURVE",
"998 282 OFFCURVE",
"976 260 CURVE"
);
},
{
closed = 1;
nodes = (
"1139 244 OFFCURVE",
"1086 248 OFFCURVE",
"1034 253 CURVE",
"1060 280 OFFCURVE",
"1085 308 OFFCURVE",
"1110 336 CURVE",
"1156 343 OFFCURVE",
"1201 351 OFFCURVE",
"1247 360 CURVE",
"1226 323 OFFCURVE",
"1207 284 OFFCURVE",
"1192 245 CURVE"
);
},
{
closed = 1;
nodes = (
"1366 463 OFFCURVE",
"1408 528 OFFCURVE",
"1454 590 CURVE",
"1481 583 OFFCURVE",
"1508 577 OFFCURVE",
"1536 571 CURVE SMOOTH",
"1555 566 OFFCURVE",
"1577 562 OFFCURVE",
"1595 555 CURVE SMOOTH",
"1603 551 OFFCURVE",
"1619 547 OFFCURVE",
"1619 535 CURVE SMOOTH",
"1619 530 OFFCURVE",
"1617 525 OFFCURVE",
"1614 521 CURVE",
"1581 458 OFFCURVE",
"1391 411 OFFCURVE",
"1327 397 CURVE"
);
},
{
closed = 1;
nodes = (
"1422 631 OFFCURVE",
"1402 637 OFFCURVE",
"1402 648 CURVE SMOOTH",
"1402 656 OFFCURVE",
"1410 663 OFFCURVE",
"1415 668 CURVE SMOOTH",
"1452 702 OFFCURVE",
"1490 735 OFFCURVE",
"1528 767 CURVE SMOOTH",
"1548 784 OFFCURVE",
"1568 802 OFFCURVE",
"1590 817 CURVE",
"1581 805 OFFCURVE",
"1571 794 OFFCURVE",
"1562 783 CURVE SMOOTH",
"1518 732 OFFCURVE",
"1472 682 OFFCURVE",
"1430 629 CURVE"
);
},
{
closed = 1;
nodes = (
"1612 978 OFFCURVE",
"1623 999 OFFCURVE",
"1626 1011 CURVE SMOOTH",
"1630 1023 OFFCURVE",
"1634 1035 OFFCURVE",
"1641 1045 CURVE",
"1642 1048 OFFCURVE",
"1655 1061 OFFCURVE",
"1655 1062 CURVE SMOOTH",
"1655 1063 LINE",
"1654 1065 OFFCURVE",
"1653 1065 OFFCURVE",
"1652 1065 CURVE SMOOTH",
"1633 1065 OFFCURVE",
"1576 1029 OFFCURVE",
"1576 1007 CURVE SMOOTH",
"1576 998 OFFCURVE",
"1587 978 OFFCURVE",
"1597 978 CURVE SMOOTH"
);
},
{
closed = 1;
nodes = (
"1733 978 OFFCURVE",
"1744 999 OFFCURVE",
"1747 1011 CURVE SMOOTH",
"1751 1023 OFFCURVE",
"1755 1035 OFFCURVE",
"1762 1045 CURVE",
"1763 1048 OFFCURVE",
"1776 1061 OFFCURVE",
"1776 1062 CURVE SMOOTH",
"1776 1063 LINE",
"1775 1065 OFFCURVE",
"1774 1065 OFFCURVE",
"1773 1065 CURVE SMOOTH",
"1754 1065 OFFCURVE",
"1697 1029 OFFCURVE",
"1697 1007 CURVE SMOOTH",
"1697 998 OFFCURVE",
"1708 978 OFFCURVE",
"1718 978 CURVE SMOOTH"
);
}
);
width = 1407;
}
);
note = Adieresis;
unicode = 00C4;
},
{
color = 11;
glyphname = Agrave;
lastChange = "2021-09-15 00:52:07 +0000";
layers = (
{
background = {
paths = (
{
closed = 1;
nodes = (
"1744 913 OFFCURVE",
"1746 916 OFFCURVE",
"1746 920 CURVE SMOOTH",
"1746 936 OFFCURVE",
"1643 1007 OFFCURVE",
"1626 1022 CURVE SMOOTH",
"1614 1033 OFFCURVE",
"1598 1043 OFFCURVE",
"1580 1043 CURVE SMOOTH",
"1571 1043 OFFCURVE",
"1557 1038 OFFCURVE",
"1557 1027 CURVE SMOOTH",
"1557 1011 OFFCURVE",
"1579 998 OFFCURVE",
"1591 992 CURVE SMOOTH",
"1638 967 OFFCURVE",
"1685 943 OFFCURVE",
"1731 916 CURVE SMOOTH",
"1734 914 OFFCURVE",
"1737 913 OFFCURVE",
"1740 913 CURVE SMOOTH"
);
},
{
closed = 1;
nodes = (
"1503 654 OFFCURVE",
"1679 846 OFFCURVE",
"1679 861 CURVE SMOOTH",
"1679 875 OFFCURVE",
"1655 882 OFFCURVE",
"1644 882 CURVE SMOOTH",
"1642 882 OFFCURVE",
"1640 882 OFFCURVE",
"1637 882 CURVE",
"1604 869 OFFCURVE",
"1388 681 OFFCURVE",
"1363 647 CURVE SMOOTH",
"1360 642 OFFCURVE",
"1356 637 OFFCURVE",
"1356 631 CURVE SMOOTH",
"1356 611 OFFCURVE",
"1394 605 OFFCURVE",
"1408 602 CURVE",
"1354 532 OFFCURVE",
"1304 459 OFFCURVE",
"1260 383 CURVE",
"1218 375 OFFCURVE",
"1177 370 OFFCURVE",
"1135 366 CURVE",
"1218 463 OFFCURVE",
"1295 568 OFFCURVE",
"1362 677 CURVE",
"1363 678 OFFCURVE",
"1364 681 OFFCURVE",
"1364 683 CURVE SMOOTH",
"1364 688 OFFCURVE",
"1359 690 OFFCURVE",
"1355 690 CURVE SMOOTH",
"1348 690 OFFCURVE",
"1343 687 OFFCURVE",
"1339 682 CURVE SMOOTH",
"1332 671 OFFCURVE",
"1325 660 OFFCURVE",
"1318 649 CURVE SMOOTH",
"1300 624 OFFCURVE",
"1282 599 OFFCURVE",
"1263 575 CURVE SMOOTH",
"1206 500 OFFCURVE",
"1143 428 OFFCURVE",
"1077 360 CURVE",
"1015 355 OFFCURVE",
"768 339 OFFCURVE",
"728 322 CURVE SMOOTH",
"721 319 OFFCURVE",
"708 314 OFFCURVE",
"708 303 CURVE SMOOTH",
"708 300 OFFCURVE",
"709 296 OFFCURVE",
"711 294 CURVE SMOOTH",
"729 272 OFFCURVE",
"803 250 OFFCURVE",
"831 244 CURVE SMOOTH",
"867 236 OFFCURVE",
"905 232 OFFCURVE",
"941 229 CURVE",
"781 82 OFFCURVE",
"441 -193 OFFCURVE",
"208 -193 CURVE SMOOTH",
"110 -193 OFFCURVE",
"46 -141 OFFCURVE",
"46 -41 CURVE SMOOTH",
"46 128 OFFCURVE",
"207 291 OFFCURVE",
"343 371 CURVE SMOOTH",
"403 407 OFFCURVE",
"467 433 OFFCURVE",
"534 453 CURVE SMOOTH",
"560 460 OFFCURVE",
"587 465 OFFCURVE",
"613 465 CURVE SMOOTH",
"637 465 OFFCURVE",
"672 460 OFFCURVE",
"686 439 CURVE SMOOTH",
"689 434 OFFCURVE",
"691 431 OFFCURVE",
"697 431 CURVE SMOOTH",
"704 431 OFFCURVE",
"711 436 OFFCURVE",
"711 443 CURVE SMOOTH",
"711 445 OFFCURVE",
"710 447 OFFCURVE",
"709 448 CURVE",
"694 482 OFFCURVE",
"647 490 OFFCURVE",
"613 490 CURVE SMOOTH",
"584 490 OFFCURVE",
"555 485 OFFCURVE",
"527 477 CURVE SMOOTH",
"455 455 OFFCURVE",
"384 428 OFFCURVE",
"318 391 CURVE SMOOTH",
"173 310 OFFCURVE",
"13 153 OFFCURVE",
"13 -25 CURVE SMOOTH",
"13 -151 OFFCURVE",
"98 -221 OFFCURVE",
"220 -221 CURVE SMOOTH",
"290 -221 OFFCURVE",
"362 -200 OFFCURVE",
"426 -172 CURVE SMOOTH",
"646 -78 OFFCURVE",
"836 56 OFFCURVE",
"1005 224 CURVE",
"1045 222 OFFCURVE",
"1085 221 OFFCURVE",
"1124 221 CURVE SMOOTH",
"1144 221 OFFCURVE",
"1163 221 OFFCURVE",
"1183 222 CURVE",
"1169 182 OFFCURVE",
"1158 139 OFFCURVE",
"1158 97 CURVE SMOOTH",
"1158 51 OFFCURVE",
"1172 10 OFFCURVE",
"1209 -19 CURVE",
"1212 -20 OFFCURVE",
"1214 -21 OFFCURVE",
"1217 -21 CURVE SMOOTH",
"1224 -21 OFFCURVE",
"1230 -15 OFFCURVE",
"1230 -8 CURVE SMOOTH",
"1230 4 OFFCURVE",
"1199 11 OFFCURVE",
"1199 68 CURVE SMOOTH",
"1199 118 OFFCURVE",
"1220 179 OFFCURVE",
"1240 225 CURVE",
"1256 227 OFFCURVE",
"1345 234 OFFCURVE",
"1345 257 CURVE SMOOTH",
"1345 261 OFFCURVE",
"1342 264 OFFCURVE",
"1338 264 CURVE SMOOTH",
"1336 264 OFFCURVE",
"1334 263 OFFCURVE",
"1333 263 CURVE",
"1306 253 OFFCURVE",
"1278 249 OFFCURVE",
"1249 247 CURVE",
"1268 290 OFFCURVE",
"1290 333 OFFCURVE",
"1314 374 CURVE",
"1372 387 OFFCURVE",
"1664 460 OFFCURVE",
"1664 536 CURVE SMOOTH",
"1664 586 OFFCURVE",
"1514 610 OFFCURVE",
"1475 618 CURVE"
);
},
{
closed = 1;
nodes = (
"1581 805 OFFCURVE",
"1571 794 OFFCURVE",
"1562 783 CURVE SMOOTH",
"1518 732 OFFCURVE",
"1472 682 OFFCURVE",
"1430 629 CURVE",
"1422 631 OFFCURVE",
"1402 637 OFFCURVE",
"1402 648 CURVE SMOOTH",
"1402 656 OFFCURVE",
"1410 663 OFFCURVE",
"1415 668 CURVE SMOOTH",
"1452 702 OFFCURVE",
"1490 735 OFFCURVE",
"1528 767 CURVE SMOOTH",
"1548 784 OFFCURVE",
"1568 802 OFFCURVE",
"1590 817 CURVE"
);
},
{
closed = 1;
nodes = (
"1481 583 OFFCURVE",
"1508 577 OFFCURVE",
"1536 571 CURVE SMOOTH",
"1555 566 OFFCURVE",
"1577 562 OFFCURVE",
"1595 555 CURVE SMOOTH",
"1603 551 OFFCURVE",
"1619 547 OFFCURVE",
"1619 535 CURVE SMOOTH",
"1619 530 OFFCURVE",
"1617 525 OFFCURVE",
"1614 521 CURVE",
"1581 458 OFFCURVE",
"1391 411 OFFCURVE",
"1327 397 CURVE",
"1366 463 OFFCURVE",
"1408 528 OFFCURVE",
"1454 590 CURVE"
);
},
{
closed = 1;
nodes = (
"1156 343 OFFCURVE",
"1201 351 OFFCURVE",
"1247 360 CURVE",
"1226 323 OFFCURVE",
"1207 284 OFFCURVE",
"1192 245 CURVE",
"1139 244 OFFCURVE",
"1086 248 OFFCURVE",
"1034 253 CURVE",
"1060 280 OFFCURVE",
"1085 308 OFFCURVE",
"1110 336 CURVE"
);
},
{
closed = 1;
nodes = (
"850 287 OFFCURVE",
"851 287 OFFCURVE",
"851 287 CURVE",
"865 293 OFFCURVE",
"880 296 OFFCURVE",
"894 299 CURVE SMOOTH",
"943 310 OFFCURVE",
"993 317 OFFCURVE",
"1043 325 CURVE",
"1021 303 OFFCURVE",
"998 282 OFFCURVE",
"976 260 CURVE",
"938 266 OFFCURVE",
"886 272 OFFCURVE",
"851 286 CURVE",
"851 286 OFFCURVE",
"850 286 OFFCURVE",
"850 286 CURVE"
);
}
);
};
layerId = "95C423A7-595F-441F-915A-E5EF8B5EF971";
paths = (
{
closed = 1;
nodes = (
"290 -221 OFFCURVE",
"362 -200 OFFCURVE",
"426 -172 CURVE SMOOTH",
"646 -78 OFFCURVE",
"836 56 OFFCURVE",
"1005 224 CURVE",
"1045 222 OFFCURVE",
"1085 221 OFFCURVE",
"1124 221 CURVE SMOOTH",
"1144 221 OFFCURVE",
"1163 221 OFFCURVE",
"1183 222 CURVE",
"1169 182 OFFCURVE",
"1158 139 OFFCURVE",
"1158 97 CURVE SMOOTH",
"1158 51 OFFCURVE",
"1172 10 OFFCURVE",
"1209 -19 CURVE",
"1212 -20 OFFCURVE",
"1214 -21 OFFCURVE",
"1217 -21 CURVE SMOOTH",
"1224 -21 OFFCURVE",
"1230 -15 OFFCURVE",
"1230 -8 CURVE SMOOTH",
"1230 4 OFFCURVE",
"1199 11 OFFCURVE",
"1199 68 CURVE SMOOTH",
"1199 118 OFFCURVE",
"1220 179 OFFCURVE",
"1240 225 CURVE",
"1256 227 OFFCURVE",
"1345 234 OFFCURVE",
"1345 257 CURVE SMOOTH",
"1345 261 OFFCURVE",
"1342 264 OFFCURVE",
"1338 264 CURVE SMOOTH",
"1336 264 OFFCURVE",
"1334 263 OFFCURVE",
"1333 263 CURVE",
"1306 253 OFFCURVE",
"1278 249 OFFCURVE",
"1249 247 CURVE",
"1268 290 OFFCURVE",
"1290 333 OFFCURVE",
"1314 374 CURVE",
"1372 387 OFFCURVE",
"1664 460 OFFCURVE",
"1664 536 CURVE SMOOTH",
"1664 586 OFFCURVE",
"1514 610 OFFCURVE",
"1475 618 CURVE",
"1503 654 OFFCURVE",
"1679 846 OFFCURVE",
"1679 861 CURVE SMOOTH",
"1679 875 OFFCURVE",
"1655 882 OFFCURVE",
"1644 882 CURVE SMOOTH",
"1637 882 LINE",
"1604 869 OFFCURVE",
"1388 681 OFFCURVE",
"1363 647 CURVE SMOOTH",
"1360 642 OFFCURVE",
"1356 637 OFFCURVE",
"1356 631 CURVE SMOOTH",
"1356 611 OFFCURVE",
"1394 605 OFFCURVE",
"1408 602 CURVE",
"1354 532 OFFCURVE",
"1304 459 OFFCURVE",
"1260 383 CURVE",
"1218 375 OFFCURVE",
"1177 370 OFFCURVE",
"1135 366 CURVE",
"1218 463 OFFCURVE",
"1295 568 OFFCURVE",
"1362 677 CURVE",
"1363 678 OFFCURVE",
"1364 681 OFFCURVE",
"1364 683 CURVE SMOOTH",
"1364 688 OFFCURVE",
"1359 690 OFFCURVE",
"1355 690 CURVE SMOOTH",
"1348 690 OFFCURVE",
"1343 687 OFFCURVE",
"1339 682 CURVE SMOOTH",
"1318 649 LINE SMOOTH",
"1300 624 OFFCURVE",
"1282 599 OFFCURVE",
"1263 575 CURVE SMOOTH",
"1206 500 OFFCURVE",
"1143 428 OFFCURVE",
"1077 360 CURVE",
"1015 355 OFFCURVE",
"768 339 OFFCURVE",
"728 322 CURVE SMOOTH",
"721 319 OFFCURVE",
"708 314 OFFCURVE",
"708 303 CURVE SMOOTH",
"708 300 OFFCURVE",
"709 296 OFFCURVE",
"711 294 CURVE SMOOTH",
"729 272 OFFCURVE",
"803 250 OFFCURVE",
"831 244 CURVE SMOOTH",
"867 236 OFFCURVE",
"905 232 OFFCURVE",
"941 229 CURVE",
"781 82 OFFCURVE",
"441 -193 OFFCURVE",
"208 -193 CURVE SMOOTH",
"110 -193 OFFCURVE",
"46 -141 OFFCURVE",
"46 -41 CURVE SMOOTH",
"46 128 OFFCURVE",
"207 291 OFFCURVE",
"343 371 CURVE SMOOTH",
"403 407 OFFCURVE",
"467 433 OFFCURVE",
"534 453 CURVE SMOOTH",
"560 460 OFFCURVE",
"587 465 OFFCURVE",
"613 465 CURVE SMOOTH",
"637 465 OFFCURVE",
"672 460 OFFCURVE",
"686 439 CURVE SMOOTH",
"689 434 OFFCURVE",
"691 431 OFFCURVE",
"697 431 CURVE SMOOTH",
"704 431 OFFCURVE",
"711 436 OFFCURVE",
"711 443 CURVE SMOOTH",
"711 445 OFFCURVE",
"710 447 OFFCURVE",
"709 448 CURVE",
"694 482 OFFCURVE",
"647 490 OFFCURVE",
"613 490 CURVE SMOOTH",
"584 490 OFFCURVE",
"555 485 OFFCURVE",
"527 477 CURVE SMOOTH",
"455 455 OFFCURVE",
"384 428 OFFCURVE",
"318 391 CURVE SMOOTH",
"173 310 OFFCURVE",
"13 153 OFFCURVE",
"13 -25 CURVE SMOOTH",
"13 -151 OFFCURVE",
"98 -221 OFFCURVE",
"220 -221 CURVE SMOOTH"
);
},
{
closed = 1;
nodes = (
"938 266 OFFCURVE",
"886 272 OFFCURVE",
"851 286 CURVE",
"850 286 LINE",
"850 287 OFFCURVE",
"851 287 OFFCURVE",
"851 287 CURVE",
"865 293 OFFCURVE",
"880 296 OFFCURVE",
"894 299 CURVE SMOOTH",
"943 310 OFFCURVE",
"993 317 OFFCURVE",
"1043 325 CURVE",
"1021 303 OFFCURVE",
"998 282 OFFCURVE",
"976 260 CURVE"
);
},
{
closed = 1;
nodes = (
"1139 244 OFFCURVE",
"1086 248 OFFCURVE",
"1034 253 CURVE",
"1060 280 OFFCURVE",
"1085 308 OFFCURVE",
"1110 336 CURVE",
"1156 343 OFFCURVE",
"1201 351 OFFCURVE",
"1247 360 CURVE",
"1226 323 OFFCURVE",
"1207 284 OFFCURVE",
"1192 245 CURVE"
);
},
{
closed = 1;
nodes = (
"1366 463 OFFCURVE",
"1408 528 OFFCURVE",
"1454 590 CURVE",
"1481 583 OFFCURVE",
"1508 577 OFFCURVE",
"1536 571 CURVE SMOOTH",
"1555 566 OFFCURVE",
"1577 562 OFFCURVE",
"1595 555 CURVE SMOOTH",
"1603 551 OFFCURVE",
"1619 547 OFFCURVE",
"1619 535 CURVE SMOOTH",
"1619 530 OFFCURVE",
"1617 525 OFFCURVE",
"1614 521 CURVE",
"1581 458 OFFCURVE",
"1391 411 OFFCURVE",
"1327 397 CURVE"
);
},
{
closed = 1;
nodes = (
"1422 631 OFFCURVE",
"1402 637 OFFCURVE",
"1402 648 CURVE SMOOTH",
"1402 656 OFFCURVE",
"1410 663 OFFCURVE",
"1415 668 CURVE SMOOTH",
"1452 702 OFFCURVE",
"1490 735 OFFCURVE",
"1528 767 CURVE SMOOTH",
"1548 784 OFFCURVE",
"1568 802 OFFCURVE",
"1590 817 CURVE",
"1581 805 OFFCURVE",
"1571 794 OFFCURVE",
"1562 783 CURVE SMOOTH",
"1518 732 OFFCURVE",
"1472 682 OFFCURVE",
"1430 629 CURVE"
);
},
{
closed = 1;
nodes = (
"1744 913 OFFCURVE",
"1746 916 OFFCURVE",
"1746 920 CURVE SMOOTH",
"1746 936 OFFCURVE",
"1643 1007 OFFCURVE",
"1626 1022 CURVE SMOOTH",
"1614 1033 OFFCURVE",
"1598 1043 OFFCURVE",
"1580 1043 CURVE SMOOTH",
"1571 1043 OFFCURVE",
"1557 1038 OFFCURVE",
"1557 1027 CURVE SMOOTH",
"1557 1011 OFFCURVE",
"1579 998 OFFCURVE",
"1591 992 CURVE SMOOTH",
"1638 967 OFFCURVE",
"1685 943 OFFCURVE",
"1731 916 CURVE SMOOTH",
"1734 914 OFFCURVE",
"1737 913 OFFCURVE",
"1740 913 CURVE SMOOTH"
);
}
);
width = 1407;
}
);
note = Agrave;
unicode = 00C0;
},
{
color = 11;
glyphname = Aring;
lastChange = "2021-09-15 00:52:07 +0000";
layers = (
{
background = {
paths = (
{
closed = 1;
nodes = (
"1721 869 OFFCURVE",
"1765 916 OFFCURVE",
"1765 964 CURVE SMOOTH",
"1765 989 OFFCURVE",
"1750 1016 OFFCURVE",
"1722 1016 CURVE SMOOTH",
"1701 1016 OFFCURVE",
"1680 1001 OFFCURVE",
"1671 983 CURVE",
"1647 976 OFFCURVE",
"1632 930 OFFCURVE",
"1632 908 CURVE SMOOTH",
"1632 883 OFFCURVE",
"1649 869 OFFCURVE",
"1673 869 CURVE SMOOTH"
);
},
{
closed = 1;
nodes = (
"1741 932 OFFCURVE",
"1718 888 OFFCURVE",
"1684 888 CURVE SMOOTH",
"1673 888 OFFCURVE",
"1669 898 OFFCURVE",
"1669 908 CURVE SMOOTH",
"1669 942 OFFCURVE",
"1691 952 OFFCURVE",
"1701 979 CURVE",
"1691 984 LINE",
"1699 990 OFFCURVE",
"1709 997 OFFCURVE",
"1719 997 CURVE SMOOTH",
"1737 997 OFFCURVE",
"1741 975 OFFCURVE",
"1741 962 CURVE SMOOTH"
);
},
{
closed = 1;
nodes = (
"1503 654 OFFCURVE",
"1679 846 OFFCURVE",
"1679 861 CURVE SMOOTH",
"1679 875 OFFCURVE",
"1655 882 OFFCURVE",
"1644 882 CURVE SMOOTH",
"1642 882 OFFCURVE",
"1640 882 OFFCURVE",
"1637 882 CURVE",
"1604 869 OFFCURVE",
"1388 681 OFFCURVE",
"1363 647 CURVE SMOOTH",
"1360 642 OFFCURVE",
"1356 637 OFFCURVE",
"1356 631 CURVE SMOOTH",
"1356 611 OFFCURVE",
"1394 605 OFFCURVE",
"1408 602 CURVE",
"1354 532 OFFCURVE",
"1304 459 OFFCURVE",
"1260 383 CURVE",
"1218 375 OFFCURVE",
"1177 370 OFFCURVE",
"1135 366 CURVE",
"1218 463 OFFCURVE",
"1295 568 OFFCURVE",
"1362 677 CURVE",
"1363 678 OFFCURVE",
"1364 681 OFFCURVE",
"1364 683 CURVE SMOOTH",
"1364 688 OFFCURVE",
"1359 690 OFFCURVE",
"1355 690 CURVE SMOOTH",
"1348 690 OFFCURVE",
"1343 687 OFFCURVE",
"1339 682 CURVE SMOOTH",
"1332 671 OFFCURVE",
"1325 660 OFFCURVE",
"1318 649 CURVE SMOOTH",
"1300 624 OFFCURVE",
"1282 599 OFFCURVE",
"1263 575 CURVE SMOOTH",
"1206 500 OFFCURVE",
"1143 428 OFFCURVE",
"1077 360 CURVE",
"1015 355 OFFCURVE",
"768 339 OFFCURVE",
"728 322 CURVE SMOOTH",
"721 319 OFFCURVE",
"708 314 OFFCURVE",
"708 303 CURVE SMOOTH",
"708 300 OFFCURVE",
"709 296 OFFCURVE",
"711 294 CURVE SMOOTH",
"729 272 OFFCURVE",
"803 250 OFFCURVE",
"831 244 CURVE SMOOTH",
"867 236 OFFCURVE",
"905 232 OFFCURVE",
"941 229 CURVE",
"781 82 OFFCURVE",
"441 -193 OFFCURVE",
"208 -193 CURVE SMOOTH",
"110 -193 OFFCURVE",
"46 -141 OFFCURVE",
"46 -41 CURVE SMOOTH",
"46 128 OFFCURVE",
"207 291 OFFCURVE",
"343 371 CURVE SMOOTH",
"403 407 OFFCURVE",
"467 433 OFFCURVE",
"534 453 CURVE SMOOTH",
"560 460 OFFCURVE",
"587 465 OFFCURVE",
"613 465 CURVE SMOOTH",
"637 465 OFFCURVE",
"672 460 OFFCURVE",
"686 439 CURVE SMOOTH",
"689 434 OFFCURVE",
"691 431 OFFCURVE",
"697 431 CURVE SMOOTH",
"704 431 OFFCURVE",
"711 436 OFFCURVE",
"711 443 CURVE SMOOTH",
"711 445 OFFCURVE",
"710 447 OFFCURVE",
"709 448 CURVE",
"694 482 OFFCURVE",
"647 490 OFFCURVE",
"613 490 CURVE SMOOTH",
"584 490 OFFCURVE",
"555 485 OFFCURVE",
"527 477 CURVE SMOOTH",
"455 455 OFFCURVE",
"384 428 OFFCURVE",
"318 391 CURVE SMOOTH",
"173 310 OFFCURVE",
"13 153 OFFCURVE",
"13 -25 CURVE SMOOTH",
"13 -151 OFFCURVE",
"98 -221 OFFCURVE",
"220 -221 CURVE SMOOTH",
"290 -221 OFFCURVE",
"362 -200 OFFCURVE",
"426 -172 CURVE SMOOTH",
"646 -78 OFFCURVE",
"836 56 OFFCURVE",
"1005 224 CURVE",
"1045 222 OFFCURVE",
"1085 221 OFFCURVE",
"1124 221 CURVE SMOOTH",
"1144 221 OFFCURVE",
"1163 221 OFFCURVE",
"1183 222 CURVE",
"1169 182 OFFCURVE",
"1158 139 OFFCURVE",
"1158 97 CURVE SMOOTH",
"1158 51 OFFCURVE",
"1172 10 OFFCURVE",
"1209 -19 CURVE",
"1212 -20 OFFCURVE",
"1214 -21 OFFCURVE",
"1217 -21 CURVE SMOOTH",
"1224 -21 OFFCURVE",
"1230 -15 OFFCURVE",
"1230 -8 CURVE SMOOTH",
"1230 4 OFFCURVE",
"1199 11 OFFCURVE",
"1199 68 CURVE SMOOTH",
"1199 118 OFFCURVE",
"1220 179 OFFCURVE",
"1240 225 CURVE",
"1256 227 OFFCURVE",
"1345 234 OFFCURVE",
"1345 257 CURVE SMOOTH",
"1345 261 OFFCURVE",
"1342 264 OFFCURVE",
"1338 264 CURVE SMOOTH",
"1336 264 OFFCURVE",
"1334 263 OFFCURVE",
"1333 263 CURVE",
"1306 253 OFFCURVE",
"1278 249 OFFCURVE",
"1249 247 CURVE",
"1268 290 OFFCURVE",
"1290 333 OFFCURVE",
"1314 374 CURVE",
"1372 387 OFFCURVE",
"1664 460 OFFCURVE",
"1664 536 CURVE SMOOTH",
"1664 586 OFFCURVE",
"1514 610 OFFCURVE",
"1475 618 CURVE"
);
},
{
closed = 1;
nodes = (
"1581 805 OFFCURVE",
"1571 794 OFFCURVE",
"1562 783 CURVE SMOOTH",
"1518 732 OFFCURVE",
"1472 682 OFFCURVE",
"1430 629 CURVE",
"1422 631 OFFCURVE",
"1402 637 OFFCURVE",
"1402 648 CURVE SMOOTH",
"1402 656 OFFCURVE",
"1410 663 OFFCURVE",
"1415 668 CURVE SMOOTH",
"1452 702 OFFCURVE",
"1490 735 OFFCURVE",
"1528 767 CURVE SMOOTH",
"1548 784 OFFCURVE",
"1568 802 OFFCURVE",
"1590 817 CURVE"
);
},
{
closed = 1;
nodes = (
"1481 583 OFFCURVE",
"1508 577 OFFCURVE",
"1536 571 CURVE SMOOTH",
"1555 566 OFFCURVE",
"1577 562 OFFCURVE",
"1595 555 CURVE SMOOTH",
"1603 551 OFFCURVE",
"1619 547 OFFCURVE",
"1619 535 CURVE SMOOTH",
"1619 530 OFFCURVE",
"1617 525 OFFCURVE",
"1614 521 CURVE",
"1581 458 OFFCURVE",
"1391 411 OFFCURVE",
"1327 397 CURVE",
"1366 463 OFFCURVE",
"1408 528 OFFCURVE",
"1454 590 CURVE"
);
},
{
closed = 1;
nodes = (
"1156 343 OFFCURVE",
"1201 351 OFFCURVE",
"1247 360 CURVE",
"1226 323 OFFCURVE",
"1207 284 OFFCURVE",
"1192 245 CURVE",
"1139 244 OFFCURVE",
"1086 248 OFFCURVE",
"1034 253 CURVE",
"1060 280 OFFCURVE",
"1085 308 OFFCURVE",
"1110 336 CURVE"
);
},
{
closed = 1;
nodes = (
"850 287 OFFCURVE",
"851 287 OFFCURVE",
"851 287 CURVE",
"865 293 OFFCURVE",
"880 296 OFFCURVE",
"894 299 CURVE SMOOTH",
"943 310 OFFCURVE",
"993 317 OFFCURVE",
"1043 325 CURVE",
"1021 303 OFFCURVE",
"998 282 OFFCURVE",
"976 260 CURVE",
"938 266 OFFCURVE",
"886 272 OFFCURVE",
"851 286 CURVE",
"851 286 OFFCURVE",
"850 286 OFFCURVE",
"850 286 CURVE"
);
}
);
};
layerId = "95C423A7-595F-441F-915A-E5EF8B5EF971";
paths = (
{
closed = 1;
nodes = (
"290 -221 OFFCURVE",
"362 -200 OFFCURVE",
"426 -172 CURVE SMOOTH",
"646 -78 OFFCURVE",
"836 56 OFFCURVE",
"1005 224 CURVE",
"1045 222 OFFCURVE",
"1085 221 OFFCURVE",
"1124 221 CURVE SMOOTH",
"1144 221 OFFCURVE",
"1163 221 OFFCURVE",
"1183 222 CURVE",
"1169 182 OFFCURVE",
"1158 139 OFFCURVE",
"1158 97 CURVE SMOOTH",
"1158 51 OFFCURVE",
"1172 10 OFFCURVE",
"1209 -19 CURVE",
"1212 -20 OFFCURVE",
"1214 -21 OFFCURVE",
"1217 -21 CURVE SMOOTH",
"1224 -21 OFFCURVE",
"1230 -15 OFFCURVE",
"1230 -8 CURVE SMOOTH",
"1230 4 OFFCURVE",
"1199 11 OFFCURVE",
"1199 68 CURVE SMOOTH",
"1199 118 OFFCURVE",
"1220 179 OFFCURVE",
"1240 225 CURVE",
"1256 227 OFFCURVE",
"1345 234 OFFCURVE",
"1345 257 CURVE SMOOTH",
"1345 261 OFFCURVE",
"1342 264 OFFCURVE",
"1338 264 CURVE SMOOTH",
"1336 264 OFFCURVE",
"1334 263 OFFCURVE",
"1333 263 CURVE",
"1306 253 OFFCURVE",
"1278 249 OFFCURVE",
"1249 247 CURVE",
"1268 290 OFFCURVE",
"1290 333 OFFCURVE",
"1314 374 CURVE",
"1372 387 OFFCURVE",
"1664 460 OFFCURVE",
"1664 536 CURVE SMOOTH",
"1664 586 OFFCURVE",
"1514 610 OFFCURVE",
"1475 618 CURVE",
"1503 654 OFFCURVE",
"1679 846 OFFCURVE",
"1679 861 CURVE SMOOTH",
"1679 875 OFFCURVE",
"1655 882 OFFCURVE",
"1644 882 CURVE SMOOTH",
"1637 882 LINE",
"1604 869 OFFCURVE",
"1388 681 OFFCURVE",
"1363 647 CURVE SMOOTH",
"1360 642 OFFCURVE",
"1356 637 OFFCURVE",
"1356 631 CURVE SMOOTH",
"1356 611 OFFCURVE",
"1394 605 OFFCURVE",
"1408 602 CURVE",
"1354 532 OFFCURVE",
"1304 459 OFFCURVE",
"1260 383 CURVE",
"1218 375 OFFCURVE",
"1177 370 OFFCURVE",
"1135 366 CURVE",
"1218 463 OFFCURVE",
"1295 568 OFFCURVE",
"1362 677 CURVE",
"1363 678 OFFCURVE",
"1364 681 OFFCURVE",
"1364 683 CURVE SMOOTH",
"1364 688 OFFCURVE",
"1359 690 OFFCURVE",
"1355 690 CURVE SMOOTH",
"1348 690 OFFCURVE",
"1343 687 OFFCURVE",
"1339 682 CURVE SMOOTH",
"1318 649 LINE SMOOTH",
"1300 624 OFFCURVE",
"1282 599 OFFCURVE",
"1263 575 CURVE SMOOTH",
"1206 500 OFFCURVE",
"1143 428 OFFCURVE",
"1077 360 CURVE",
"1015 355 OFFCURVE",
"768 339 OFFCURVE",
"728 322 CURVE SMOOTH",
"721 319 OFFCURVE",
"708 314 OFFCURVE",
"708 303 CURVE SMOOTH",
"708 300 OFFCURVE",
"709 296 OFFCURVE",
"711 294 CURVE SMOOTH",
"729 272 OFFCURVE",
"803 250 OFFCURVE",
"831 244 CURVE SMOOTH",
"867 236 OFFCURVE",
"905 232 OFFCURVE",
"941 229 CURVE",
"781 82 OFFCURVE",
"441 -193 OFFCURVE",
"208 -193 CURVE SMOOTH",
"110 -193 OFFCURVE",
"46 -141 OFFCURVE",
"46 -41 CURVE SMOOTH",
"46 128 OFFCURVE",
"207 291 OFFCURVE",
"343 371 CURVE SMOOTH",
"403 407 OFFCURVE",
"467 433 OFFCURVE",
"534 453 CURVE SMOOTH",
"560 460 OFFCURVE",
"587 465 OFFCURVE",
"613 465 CURVE SMOOTH",
"637 465 OFFCURVE",
"672 460 OFFCURVE",
"686 439 CURVE SMOOTH",
"689 434 OFFCURVE",
"691 431 OFFCURVE",
"697 431 CURVE SMOOTH",
"704 431 OFFCURVE",
"711 436 OFFCURVE",
"711 443 CURVE SMOOTH",
"711 445 OFFCURVE",
"710 447 OFFCURVE",
"709 448 CURVE",
"694 482 OFFCURVE",
"647 490 OFFCURVE",
"613 490 CURVE SMOOTH",
"584 490 OFFCURVE",
"555 485 OFFCURVE",
"527 477 CURVE SMOOTH",
"455 455 OFFCURVE",
"384 428 OFFCURVE",
"318 391 CURVE SMOOTH",
"173 310 OFFCURVE",
"13 153 OFFCURVE",
"13 -25 CURVE SMOOTH",
"13 -151 OFFCURVE",
"98 -221 OFFCURVE",
"220 -221 CURVE SMOOTH"
);
},
{
closed = 1;
nodes = (
"938 266 OFFCURVE",
"886 272 OFFCURVE",
"851 286 CURVE",
"850 286 LINE",
"850 287 OFFCURVE",
"851 287 OFFCURVE",
"851 287 CURVE",
"865 293 OFFCURVE",
"880 296 OFFCURVE",
"894 299 CURVE SMOOTH",
"943 310 OFFCURVE",
"993 317 OFFCURVE",
"1043 325 CURVE",
"1021 303 OFFCURVE",
"998 282 OFFCURVE",
"976 260 CURVE"
);
},
{
closed = 1;
nodes = (
"1139 244 OFFCURVE",
"1086 248 OFFCURVE",
"1034 253 CURVE",
"1060 280 OFFCURVE",
"1085 308 OFFCURVE",
"1110 336 CURVE",
"1156 343 OFFCURVE",
"1201 351 OFFCURVE",
"1247 360 CURVE",
"1226 323 OFFCURVE",
"1207 284 OFFCURVE",
"1192 245 CURVE"
);
},
{
closed = 1;
nodes = (
"1366 463 OFFCURVE",
"1408 528 OFFCURVE",
"1454 590 CURVE",
"1481 583 OFFCURVE",
"1508 577 OFFCURVE",
"1536 571 CURVE SMOOTH",
"1555 566 OFFCURVE",
"1577 562 OFFCURVE",
"1595 555 CURVE SMOOTH",
"1603 551 OFFCURVE",
"1619 547 OFFCURVE",
"1619 535 CURVE SMOOTH",
"1619 530 OFFCURVE",
"1617 525 OFFCURVE",
"1614 521 CURVE",
"1581 458 OFFCURVE",
"1391 411 OFFCURVE",
"1327 397 CURVE"
);
},
{
closed = 1;
nodes = (
"1422 631 OFFCURVE",
"1402 637 OFFCURVE",
"1402 648 CURVE SMOOTH",
"1402 656 OFFCURVE",
"1410 663 OFFCURVE",
"1415 668 CURVE SMOOTH",
"1452 702 OFFCURVE",
"1490 735 OFFCURVE",
"1528 767 CURVE SMOOTH",
"1548 784 OFFCURVE",
"1568 802 OFFCURVE",
"1590 817 CURVE",
"1581 805 OFFCURVE",
"1571 794 OFFCURVE",
"1562 783 CURVE SMOOTH",
"1518 732 OFFCURVE",
"1472 682 OFFCURVE",
"1430 629 CURVE"
);
},
{
closed = 1;
nodes = (
"1721 869 OFFCURVE",
"1765 916 OFFCURVE",
"1765 964 CURVE SMOOTH",
"1765 989 OFFCURVE",
"1750 1016 OFFCURVE",
"1722 1016 CURVE SMOOTH",
"1701 1016 OFFCURVE",
"1680 1001 OFFCURVE",
"1671 983 CURVE",
"1647 976 OFFCURVE",
"1632 930 OFFCURVE",
"1632 908 CURVE SMOOTH",
"1632 883 OFFCURVE",
"1649 869 OFFCURVE",
"1673 869 CURVE SMOOTH"
);
},
{
closed = 1;
nodes = (
"1673 888 OFFCURVE",
"1669 898 OFFCURVE",
"1669 908 CURVE SMOOTH",
"1669 942 OFFCURVE",
"1691 952 OFFCURVE",
"1701 979 CURVE",
"1691 984 LINE",
"1699 990 OFFCURVE",
"1709 997 OFFCURVE",
"1719 997 CURVE SMOOTH",
"1737 997 OFFCURVE",
"1741 975 OFFCURVE",
"1741 962 CURVE SMOOTH",
"1741 932 OFFCURVE",
"1718 888 OFFCURVE",
"1684 888 CURVE SMOOTH"
);
}
);
width = 1407;
}
);
note = Aring;
unicode = 00C5;
},
{
color = 11;
glyphname = Atilde;
lastChange = "2021-09-15 00:52:07 +0000";
layers = (
{
background = {
paths = (
{
closed = 1;
nodes = (
"1763 934 OFFCURVE",
"1802 967 OFFCURVE",
"1802 981 CURVE SMOOTH",
"1802 983 OFFCURVE",
"1800 983 OFFCURVE",
"1799 983 CURVE SMOOTH",
"1790 983 OFFCURVE",
"1773 959 OFFCURVE",
"1746 959 CURVE SMOOTH",
"1685 959 OFFCURVE",
"1648 998 OFFCURVE",
"1606 998 CURVE SMOOTH",
"1589 998 OFFCURVE",
"1548 967 OFFCURVE",
"1544 952 CURVE",
"1544 949 OFFCURVE",
"1546 947 OFFCURVE",
"1549 947 CURVE SMOOTH",
"1558 947 OFFCURVE",
"1577 975 OFFCURVE",
"1604 975 CURVE SMOOTH",
"1650 975 OFFCURVE",
"1698 934 OFFCURVE",
"1748 934 CURVE SMOOTH"
);
},
{
closed = 1;
nodes = (
"1503 654 OFFCURVE",
"1679 846 OFFCURVE",
"1679 861 CURVE SMOOTH",
"1679 875 OFFCURVE",
"1655 882 OFFCURVE",
"1644 882 CURVE SMOOTH",
"1642 882 OFFCURVE",
"1640 882 OFFCURVE",
"1637 882 CURVE",
"1604 869 OFFCURVE",
"1388 681 OFFCURVE",
"1363 647 CURVE SMOOTH",
"1360 642 OFFCURVE",
"1356 637 OFFCURVE",
"1356 631 CURVE SMOOTH",
"1356 611 OFFCURVE",
"1394 605 OFFCURVE",
"1408 602 CURVE",
"1354 532 OFFCURVE",
"1304 459 OFFCURVE",
"1260 383 CURVE",
"1218 375 OFFCURVE",
"1177 370 OFFCURVE",
"1135 366 CURVE",
"1218 463 OFFCURVE",
"1295 568 OFFCURVE",
"1362 677 CURVE",
"1363 678 OFFCURVE",
"1364 681 OFFCURVE",
"1364 683 CURVE SMOOTH",
"1364 688 OFFCURVE",
"1359 690 OFFCURVE",
"1355 690 CURVE SMOOTH",
"1348 690 OFFCURVE",
"1343 687 OFFCURVE",
"1339 682 CURVE SMOOTH",
"1332 671 OFFCURVE",
"1325 660 OFFCURVE",
"1318 649 CURVE SMOOTH",
"1300 624 OFFCURVE",
"1282 599 OFFCURVE",
"1263 575 CURVE SMOOTH",
"1206 500 OFFCURVE",
"1143 428 OFFCURVE",
"1077 360 CURVE",
"1015 355 OFFCURVE",
"768 339 OFFCURVE",
"728 322 CURVE SMOOTH",
"721 319 OFFCURVE",
"708 314 OFFCURVE",
"708 303 CURVE SMOOTH",
"708 300 OFFCURVE",
"709 296 OFFCURVE",
"711 294 CURVE SMOOTH",
"729 272 OFFCURVE",
"803 250 OFFCURVE",
"831 244 CURVE SMOOTH",
"867 236 OFFCURVE",
"905 232 OFFCURVE",
"941 229 CURVE",
"781 82 OFFCURVE",
"441 -193 OFFCURVE",
"208 -193 CURVE SMOOTH",
"110 -193 OFFCURVE",
"46 -141 OFFCURVE",
"46 -41 CURVE SMOOTH",
"46 128 OFFCURVE",
"207 291 OFFCURVE",
"343 371 CURVE SMOOTH",
"403 407 OFFCURVE",
"467 433 OFFCURVE",
"534 453 CURVE SMOOTH",
"560 460 OFFCURVE",
"587 465 OFFCURVE",
"613 465 CURVE SMOOTH",
"637 465 OFFCURVE",
"672 460 OFFCURVE",
"686 439 CURVE SMOOTH",
"689 434 OFFCURVE",
"691 431 OFFCURVE",
"697 431 CURVE SMOOTH",
"704 431 OFFCURVE",
"711 436 OFFCURVE",
"711 443 CURVE SMOOTH",
"711 445 OFFCURVE",
"710 447 OFFCURVE",
"709 448 CURVE",
"694 482 OFFCURVE",
"647 490 OFFCURVE",
"613 490 CURVE SMOOTH",
"584 490 OFFCURVE",
"555 485 OFFCURVE",
"527 477 CURVE SMOOTH",
"455 455 OFFCURVE",
"384 428 OFFCURVE",
"318 391 CURVE SMOOTH",
"173 310 OFFCURVE",
"13 153 OFFCURVE",
"13 -25 CURVE SMOOTH",
"13 -151 OFFCURVE",
"98 -221 OFFCURVE",
"220 -221 CURVE SMOOTH",
"290 -221 OFFCURVE",
"362 -200 OFFCURVE",
"426 -172 CURVE SMOOTH",
"646 -78 OFFCURVE",
"836 56 OFFCURVE",
"1005 224 CURVE",
"1045 222 OFFCURVE",
"1085 221 OFFCURVE",
"1124 221 CURVE SMOOTH",
"1144 221 OFFCURVE",
"1163 221 OFFCURVE",
"1183 222 CURVE",
"1169 182 OFFCURVE",
"1158 139 OFFCURVE",
"1158 97 CURVE SMOOTH",
"1158 51 OFFCURVE",
"1172 10 OFFCURVE",
"1209 -19 CURVE",
"1212 -20 OFFCURVE",
"1214 -21 OFFCURVE",
"1217 -21 CURVE SMOOTH",
"1224 -21 OFFCURVE",
"1230 -15 OFFCURVE",
"1230 -8 CURVE SMOOTH",
"1230 4 OFFCURVE",
"1199 11 OFFCURVE",
"1199 68 CURVE SMOOTH",
"1199 118 OFFCURVE",
"1220 179 OFFCURVE",
"1240 225 CURVE",
"1256 227 OFFCURVE",
"1345 234 OFFCURVE",
"1345 257 CURVE SMOOTH",
"1345 261 OFFCURVE",
"1342 264 OFFCURVE",
"1338 264 CURVE SMOOTH",
"1336 264 OFFCURVE",
"1334 263 OFFCURVE",
"1333 263 CURVE",
"1306 253 OFFCURVE",
"1278 249 OFFCURVE",
"1249 247 CURVE",
"1268 290 OFFCURVE",
"1290 333 OFFCURVE",
"1314 374 CURVE",
"1372 387 OFFCURVE",
"1664 460 OFFCURVE",
"1664 536 CURVE SMOOTH",
"1664 586 OFFCURVE",
"1514 610 OFFCURVE",
"1475 618 CURVE"
);
},
{
closed = 1;
nodes = (
"1581 805 OFFCURVE",
"1571 794 OFFCURVE",
"1562 783 CURVE SMOOTH",
"1518 732 OFFCURVE",
"1472 682 OFFCURVE",
"1430 629 CURVE",
"1422 631 OFFCURVE",
"1402 637 OFFCURVE",
"1402 648 CURVE SMOOTH",
"1402 656 OFFCURVE",
"1410 663 OFFCURVE",
"1415 668 CURVE SMOOTH",
"1452 702 OFFCURVE",
"1490 735 OFFCURVE",
"1528 767 CURVE SMOOTH",
"1548 784 OFFCURVE",
"1568 802 OFFCURVE",
"1590 817 CURVE"
);
},
{
closed = 1;
nodes = (
"1481 583 OFFCURVE",
"1508 577 OFFCURVE",
"1536 571 CURVE SMOOTH",
"1555 566 OFFCURVE",
"1577 562 OFFCURVE",
"1595 555 CURVE SMOOTH",
"1603 551 OFFCURVE",
"1619 547 OFFCURVE",
"1619 535 CURVE SMOOTH",
"1619 530 OFFCURVE",
"1617 525 OFFCURVE",
"1614 521 CURVE",
"1581 458 OFFCURVE",
"1391 411 OFFCURVE",
"1327 397 CURVE",
"1366 463 OFFCURVE",
"1408 528 OFFCURVE",
"1454 590 CURVE"
);
},
{
closed = 1;
nodes = (
"1156 343 OFFCURVE",
"1201 351 OFFCURVE",
"1247 360 CURVE",
"1226 323 OFFCURVE",
"1207 284 OFFCURVE",
"1192 245 CURVE",
"1139 244 OFFCURVE",
"1086 248 OFFCURVE",
"1034 253 CURVE",
"1060 280 OFFCURVE",
"1085 308 OFFCURVE",
"1110 336 CURVE"
);
},
{
closed = 1;
nodes = (
"850 287 OFFCURVE",
"851 287 OFFCURVE",
"851 287 CURVE",
"865 293 OFFCURVE",
"880 296 OFFCURVE",
"894 299 CURVE SMOOTH",
"943 310 OFFCURVE",
"993 317 OFFCURVE",
"1043 325 CURVE",
"1021 303 OFFCURVE",
"998 282 OFFCURVE",
"976 260 CURVE",
"938 266 OFFCURVE",
"886 272 OFFCURVE",
"851 286 CURVE",
"851 286 OFFCURVE",
"850 286 OFFCURVE",
"850 286 CURVE"
);
}
);
};
layerId = "95C423A7-595F-441F-915A-E5EF8B5EF971";
paths = (
{
closed = 1;
nodes = (
"290 -221 OFFCURVE",
"362 -200 OFFCURVE",
"426 -172 CURVE SMOOTH",
"646 -78 OFFCURVE",
"836 56 OFFCURVE",
"1005 224 CURVE",
"1045 222 OFFCURVE",
"1085 221 OFFCURVE",
"1124 221 CURVE SMOOTH",
"1144 221 OFFCURVE",
"1163 221 OFFCURVE",
"1183 222 CURVE",
"1169 182 OFFCURVE",
"1158 139 OFFCURVE",
"1158 97 CURVE SMOOTH",
"1158 51 OFFCURVE",
"1172 10 OFFCURVE",
"1209 -19 CURVE",
"1212 -20 OFFCURVE",
"1214 -21 OFFCURVE",
"1217 -21 CURVE SMOOTH",
"1224 -21 OFFCURVE",
"1230 -15 OFFCURVE",
"1230 -8 CURVE SMOOTH",
"1230 4 OFFCURVE",
"1199 11 OFFCURVE",
"1199 68 CURVE SMOOTH",
"1199 118 OFFCURVE",
"1220 179 OFFCURVE",
"1240 225 CURVE",
"1256 227 OFFCURVE",
"1345 234 OFFCURVE",
"1345 257 CURVE SMOOTH",
"1345 261 OFFCURVE",
"1342 264 OFFCURVE",
"1338 264 CURVE SMOOTH",
"1336 264 OFFCURVE",
"1334 263 OFFCURVE",
"1333 263 CURVE",
"1306 253 OFFCURVE",
"1278 249 OFFCURVE",
"1249 247 CURVE",
"1268 290 OFFCURVE",
"1290 333 OFFCURVE",
"1314 374 CURVE",
"1372 387 OFFCURVE",
"1664 460 OFFCURVE",
"1664 536 CURVE SMOOTH",
"1664 586 OFFCURVE",
"1514 610 OFFCURVE",
"1475 618 CURVE",
"1503 654 OFFCURVE",
"1679 846 OFFCURVE",
"1679 861 CURVE SMOOTH",
"1679 875 OFFCURVE",
"1655 882 OFFCURVE",
"1644 882 CURVE SMOOTH",
"1637 882 LINE",
"1604 869 OFFCURVE",
"1388 681 OFFCURVE",
"1363 647 CURVE SMOOTH",
"1360 642 OFFCURVE",
"1356 637 OFFCURVE",
"1356 631 CURVE SMOOTH",
"1356 611 OFFCURVE",
"1394 605 OFFCURVE",
"1408 602 CURVE",
"1354 532 OFFCURVE",
"1304 459 OFFCURVE",
"1260 383 CURVE",
"1218 375 OFFCURVE",
"1177 370 OFFCURVE",
"1135 366 CURVE",
"1218 463 OFFCURVE",
"1295 568 OFFCURVE",
"1362 677 CURVE",
"1363 678 OFFCURVE",
"1364 681 OFFCURVE",
"1364 683 CURVE SMOOTH",
"1364 688 OFFCURVE",
"1359 690 OFFCURVE",
"1355 690 CURVE SMOOTH",
"1348 690 OFFCURVE",
"1343 687 OFFCURVE",
"1339 682 CURVE SMOOTH",
"1318 649 LINE SMOOTH",
"1300 624 OFFCURVE",
"1282 599 OFFCURVE",
"1263 575 CURVE SMOOTH",
"1206 500 OFFCURVE",
"1143 428 OFFCURVE",
"1077 360 CURVE",
"1015 355 OFFCURVE",
"768 339 OFFCURVE",
"728 322 CURVE SMOOTH",
"721 319 OFFCURVE",
"708 314 OFFCURVE",
"708 303 CURVE SMOOTH",
"708 300 OFFCURVE",
"709 296 OFFCURVE",
"711 294 CURVE SMOOTH",
"729 272 OFFCURVE",
"803 250 OFFCURVE",
"831 244 CURVE SMOOTH",
"867 236 OFFCURVE",
"905 232 OFFCURVE",
"941 229 CURVE",
"781 82 OFFCURVE",
"441 -193 OFFCURVE",
"208 -193 CURVE SMOOTH",
"110 -193 OFFCURVE",
"46 -141 OFFCURVE",
"46 -41 CURVE SMOOTH",
"46 128 OFFCURVE",
"207 291 OFFCURVE",
"343 371 CURVE SMOOTH",
"403 407 OFFCURVE",
"467 433 OFFCURVE",
"534 453 CURVE SMOOTH",
"560 460 OFFCURVE",
"587 465 OFFCURVE",
"613 465 CURVE SMOOTH",
"637 465 OFFCURVE",
"672 460 OFFCURVE",
"686 439 CURVE SMOOTH",
"689 434 OFFCURVE",
"691 431 OFFCURVE",
"697 431 CURVE SMOOTH",
"704 431 OFFCURVE",
"711 436 OFFCURVE",
"711 443 CURVE SMOOTH",
"711 445 OFFCURVE",
"710 447 OFFCURVE",
"709 448 CURVE",
"694 482 OFFCURVE",
"647 490 OFFCURVE",
"613 490 CURVE SMOOTH",
"584 490 OFFCURVE",
"555 485 OFFCURVE",
"527 477 CURVE SMOOTH",
"455 455 OFFCURVE",
"384 428 OFFCURVE",
"318 391 CURVE SMOOTH",
"173 310 OFFCURVE",
"13 153 OFFCURVE",
"13 -25 CURVE SMOOTH",
"13 -151 OFFCURVE",
"98 -221 OFFCURVE",
"220 -221 CURVE SMOOTH"
);
},
{
closed = 1;
nodes = (
"938 266 OFFCURVE",
"886 272 OFFCURVE",
"851 286 CURVE",
"850 286 LINE",
"850 287 OFFCURVE",
"851 287 OFFCURVE",
"851 287 CURVE",
"865 293 OFFCURVE",
"880 296 OFFCURVE",
"894 299 CURVE SMOOTH",
"943 310 OFFCURVE",
"993 317 OFFCURVE",
"1043 325 CURVE",
"1021 303 OFFCURVE",
"998 282 OFFCURVE",
"976 260 CURVE"
);
},
{
closed = 1;
nodes = (
"1139 244 OFFCURVE",
"1086 248 OFFCURVE",
"1034 253 CURVE",
"1060 280 OFFCURVE",
"1085 308 OFFCURVE",
"1110 336 CURVE",
"1156 343 OFFCURVE",
"1201 351 OFFCURVE",
"1247 360 CURVE",
"1226 323 OFFCURVE",
"1207 284 OFFCURVE",
"1192 245 CURVE"
);
},
{
closed = 1;
nodes = (
"1366 463 OFFCURVE",
"1408 528 OFFCURVE",
"1454 590 CURVE",
"1481 583 OFFCURVE",
"1508 577 OFFCURVE",
"1536 571 CURVE SMOOTH",
"1555 566 OFFCURVE",
"1577 562 OFFCURVE",
"1595 555 CURVE SMOOTH",
"1603 551 OFFCURVE",
"1619 547 OFFCURVE",
"1619 535 CURVE SMOOTH",
"1619 530 OFFCURVE",
"1617 525 OFFCURVE",
"1614 521 CURVE",
"1581 458 OFFCURVE",
"1391 411 OFFCURVE",
"1327 397 CURVE"
);
},
{
closed = 1;
nodes = (
"1422 631 OFFCURVE",
"1402 637 OFFCURVE",
"1402 648 CURVE SMOOTH",
"1402 656 OFFCURVE",
"1410 663 OFFCURVE",
"1415 668 CURVE SMOOTH",
"1452 702 OFFCURVE",
"1490 735 OFFCURVE",
"1528 767 CURVE SMOOTH",
"1548 784 OFFCURVE",
"1568 802 OFFCURVE",
"1590 817 CURVE",
"1581 805 OFFCURVE",
"1571 794 OFFCURVE",
"1562 783 CURVE SMOOTH",
"1518 732 OFFCURVE",
"1472 682 OFFCURVE",
"1430 629 CURVE"
);
},
{
closed = 1;
nodes = (
"1763 934 OFFCURVE",
"1802 967 OFFCURVE",
"1802 981 CURVE SMOOTH",
"1802 983 OFFCURVE",
"1800 983 OFFCURVE",
"1799 983 CURVE SMOOTH",
"1790 983 OFFCURVE",
"1773 959 OFFCURVE",
"1746 959 CURVE SMOOTH",
"1685 959 OFFCURVE",
"1648 998 OFFCURVE",
"1606 998 CURVE SMOOTH",
"1589 998 OFFCURVE",
"1548 967 OFFCURVE",
"1544 952 CURVE",
"1544 949 OFFCURVE",
"1546 947 OFFCURVE",
"1549 947 CURVE SMOOTH",
"1558 947 OFFCURVE",
"1577 975 OFFCURVE",
"1604 975 CURVE SMOOTH",
"1650 975 OFFCURVE",
"1698 934 OFFCURVE",
"1748 934 CURVE SMOOTH"
);
}
);
width = 1407;
}
);
note = Atilde;
unicode = 00C3;
},
{
glyphname = AE;
lastChange = "2021-09-15 00:52:07 +0000";
layers = (
{
background = {
paths = (
{
closed = 1;
nodes = (
"1495 739 OFFCURVE",
"1541 784 OFFCURVE",
"1590 817 CURVE",
"1581 805 OFFCURVE",
"1571 794 OFFCURVE",
"1562 783 CURVE SMOOTH",
"1452 655 OFFCURVE",
"1345 530 OFFCURVE",
"1260 383 CURVE",
"1218 375 OFFCURVE",
"1177 370 OFFCURVE",
"1135 366 CURVE",
"1182 421 OFFCURVE",
"1352 591 OFFCURVE",
"1450 700 CURVE"
);
},
{
closed = 1;
nodes = (
"1156 343 OFFCURVE",
"1201 351 OFFCURVE",
"1247 360 CURVE",
"1226 323 OFFCURVE",
"1207 284 OFFCURVE",
"1192 245 CURVE",
"1139 244 OFFCURVE",
"1086 248 OFFCURVE",
"1034 253 CURVE",
"1060 280 OFFCURVE",
"1085 308 OFFCURVE",
"1110 336 CURVE"
);
},
{
closed = 1;
nodes = (
"850 287 OFFCURVE",
"851 287 OFFCURVE",
"851 287 CURVE",
"865 293 OFFCURVE",
"880 296 OFFCURVE",
"894 299 CURVE SMOOTH",
"943 310 OFFCURVE",
"993 317 OFFCURVE",
"1043 325 CURVE",
"1021 303 OFFCURVE",
"998 282 OFFCURVE",
"976 260 CURVE",
"938 266 OFFCURVE",
"886 272 OFFCURVE",
"851 286 CURVE",
"851 286 OFFCURVE",
"850 286 OFFCURVE",
"850 286 CURVE"
);
},
{
closed = 1;
nodes = (
"2077 756 OFFCURVE",
"2114 765 OFFCURVE",
"2114 788 CURVE SMOOTH",
"2114 796 OFFCURVE",
"2109 802 OFFCURVE",
"2103 807 CURVE SMOOTH",
"2075 834 OFFCURVE",
"1997 844 OFFCURVE",
"1961 844 CURVE SMOOTH",
"1953 844 OFFCURVE",
"1945 844 OFFCURVE",
"1937 843 CURVE SMOOTH",
"1902 841 OFFCURVE",
"1868 834 OFFCURVE",
"1836 822 CURVE SMOOTH",
"1768 796 OFFCURVE",
"1684 735 OFFCURVE",
"1684 655 CURVE SMOOTH",
"1684 602 OFFCURVE",
"1723 563 OFFCURVE",
"1766 538 CURVE",
"1647 524 OFFCURVE",
"1523 490 OFFCURVE",
"1417 433 CURVE SMOOTH",
"1382 414 OFFCURVE",
"1343 390 OFFCURVE",
"1307 361 CURVE",
"1314 374 LINE",
"1372 458 OFFCURVE",
"1431 578 OFFCURVE",
"1475 618 CURVE",
"1503 654 OFFCURVE",
"1679 846 OFFCURVE",
"1679 861 CURVE SMOOTH",
"1679 875 OFFCURVE",
"1655 882 OFFCURVE",
"1644 882 CURVE SMOOTH",
"1642 882 OFFCURVE",
"1640 882 OFFCURVE",
"1637 882 CURVE",
"1545 848 OFFCURVE",
"1149 434 OFFCURVE",
"1077 360 CURVE",
"1015 355 OFFCURVE",
"768 339 OFFCURVE",
"728 322 CURVE SMOOTH",
"721 319 OFFCURVE",
"708 314 OFFCURVE",
"708 303 CURVE SMOOTH",
"708 300 OFFCURVE",
"709 296 OFFCURVE",
"711 294 CURVE SMOOTH",
"729 272 OFFCURVE",
"803 250 OFFCURVE",
"831 244 CURVE SMOOTH",
"867 236 OFFCURVE",
"905 232 OFFCURVE",
"941 229 CURVE",
"781 82 OFFCURVE",
"441 -193 OFFCURVE",
"208 -193 CURVE SMOOTH",
"110 -193 OFFCURVE",
"46 -141 OFFCURVE",
"46 -41 CURVE SMOOTH",
"46 128 OFFCURVE",
"207 291 OFFCURVE",
"343 371 CURVE SMOOTH",
"403 407 OFFCURVE",
"467 433 OFFCURVE",
"534 453 CURVE SMOOTH",
"560 460 OFFCURVE",
"587 465 OFFCURVE",
"613 465 CURVE SMOOTH",
"637 465 OFFCURVE",
"672 460 OFFCURVE",
"686 439 CURVE SMOOTH",
"689 434 OFFCURVE",
"691 431 OFFCURVE",
"697 431 CURVE SMOOTH",
"704 431 OFFCURVE",
"711 436 OFFCURVE",
"711 443 CURVE SMOOTH",
"711 445 OFFCURVE",
"710 447 OFFCURVE",
"709 448 CURVE",
"694 482 OFFCURVE",
"647 490 OFFCURVE",
"613 490 CURVE SMOOTH",
"584 490 OFFCURVE",
"555 485 OFFCURVE",
"527 477 CURVE SMOOTH",
"455 455 OFFCURVE",
"384 428 OFFCURVE",
"318 391 CURVE SMOOTH",
"173 310 OFFCURVE",
"13 154 OFFCURVE",
"13 -25 CURVE SMOOTH",
"13 -151 OFFCURVE",
"98 -221 OFFCURVE",
"220 -221 CURVE SMOOTH",
"290 -221 OFFCURVE",
"362 -200 OFFCURVE",
"426 -172 CURVE SMOOTH",
"646 -78 OFFCURVE",
"836 56 OFFCURVE",
"1005 224 CURVE",
"1045 222 OFFCURVE",
"1085 221 OFFCURVE",
"1124 221 CURVE SMOOTH",
"1144 221 OFFCURVE",
"1163 221 OFFCURVE",
"1183 222 CURVE",
"1169 182 OFFCURVE",
"1158 139 OFFCURVE",
"1158 97 CURVE SMOOTH",
"1158 51 OFFCURVE",
"1172 10 OFFCURVE",
"1209 -19 CURVE",
"1212 -20 OFFCURVE",
"1214 -21 OFFCURVE",
"1217 -21 CURVE SMOOTH",
"1224 -21 OFFCURVE",
"1230 -15 OFFCURVE",
"1230 -8 CURVE SMOOTH",
"1230 3 OFFCURVE",
"1203 10 OFFCURVE",
"1199 57 CURVE",
"1234 0 OFFCURVE",
"1300 -38 OFFCURVE",
"1363 -59 CURVE",
"1363 -158 OFFCURVE",
"1413 -233 OFFCURVE",
"1505 -271 CURVE",
"1506 -271 OFFCURVE",
"1508 -272 OFFCURVE",
"1510 -272 CURVE SMOOTH",
"1518 -272 OFFCURVE",
"1524 -265 OFFCURVE",
"1524 -257 CURVE SMOOTH",
"1524 -251 OFFCURVE",
"1521 -247 OFFCURVE",
"1515 -245 CURVE",
"1502 -238 OFFCURVE",
"1489 -233 OFFCURVE",
"1476 -225 CURVE SMOOTH",
"1421 -189 OFFCURVE",
"1393 -133 OFFCURVE",
"1391 -68 CURVE",
"1456 -86 OFFCURVE",
"1524 -93 OFFCURVE",
"1592 -93 CURVE SMOOTH",
"1695 -93 OFFCURVE",
"1799 -78 OFFCURVE",
"1899 -52 CURVE SMOOTH",
"1955 -38 OFFCURVE",
"2010 -20 OFFCURVE",
"2064 5 CURVE SMOOTH",
"2174 56 OFFCURVE",
"2314 155 OFFCURVE",
"2329 287 CURVE SMOOTH",
"2329 292 OFFCURVE",
"2329 297 OFFCURVE",
"2329 302 CURVE SMOOTH",
"2329 420 OFFCURVE",
"2207 454 OFFCURVE",
"2110 454 CURVE SMOOTH",
"2057 454 OFFCURVE",
"2004 446 OFFCURVE",
"1953 434 CURVE SMOOTH",
"1743 383 OFFCURVE",
"1488 277 OFFCURVE",
"1392 68 CURVE SMOOTH",
"1376 35 OFFCURVE",
"1367 -1 OFFCURVE",
"1364 -38 CURVE",
"1293 -12 OFFCURVE",
"1234 38 OFFCURVE",
"1234 119 CURVE SMOOTH",
"1234 157 OFFCURVE",
"1247 194 OFFCURVE",
"1268 228 CURVE",
"1300 232 OFFCURVE",
"1345 241 OFFCURVE",
"1345 257 CURVE SMOOTH",
"1345 261 OFFCURVE",
"1342 264 OFFCURVE",
"1338 264 CURVE SMOOTH",
"1336 264 OFFCURVE",
"1334 263 OFFCURVE",
"1333 263 CURVE",
"1316 257 OFFCURVE",
"1300 253 OFFCURVE",
"1283 251 CURVE",
"1327 311 OFFCURVE",
"1393 360 OFFCURVE",
"1449 392 CURVE SMOOTH",
"1557 455 OFFCURVE",
"1697 497 OFFCURVE",
"1821 514 CURVE",
"1871 500 OFFCURVE",
"1926 493 OFFCURVE",
"1978 493 CURVE SMOOTH",
"1996 493 OFFCURVE",
"2062 495 OFFCURVE",
"2062 523 CURVE SMOOTH",
"2062 551 OFFCURVE",
"1942 548 OFFCURVE",
"1921 548 CURVE SMOOTH",
"1886 548 OFFCURVE",
"1851 546 OFFCURVE",
"1816 543 CURVE",
"1774 566 OFFCURVE",
"1738 603 OFFCURVE",
"1738 654 CURVE SMOOTH",
"1738 753 OFFCURVE",
"1853 810 OFFCURVE",
"1938 818 CURVE SMOOTH",
"1951 819 OFFCURVE",
"1963 820 OFFCURVE",
"1976 820 CURVE SMOOTH",
"2010 820 OFFCURVE",
"2052 815 OFFCURVE",
"2078 790 CURVE",
"2080 789 OFFCURVE",
"2080 787 OFFCURVE",
"2080 785 CURVE SMOOTH",
"2080 763 OFFCURVE",
"2036 780 OFFCURVE",
"2036 765 CURVE SMOOTH",
"2036 757 OFFCURVE",
"2053 756 OFFCURVE",
"2058 756 CURVE SMOOTH"
);
},
{
closed = 1;
nodes = (
"1393 -11 OFFCURVE",
"1403 24 OFFCURVE",
"1417 56 CURVE SMOOTH",
"1505 253 OFFCURVE",
"1764 360 OFFCURVE",
"1959 406 CURVE SMOOTH",
"2010 418 OFFCURVE",
"2063 427 OFFCURVE",
"2115 427 CURVE SMOOTH",
"2187 427 OFFCURVE",
"2288 406 OFFCURVE",
"2288 315 CURVE SMOOTH",
"2288 306 OFFCURVE",
"2287 297 OFFCURVE",
"2285 289 CURVE SMOOTH",
"2261 175 OFFCURVE",
"2118 82 OFFCURVE",
"2020 37 CURVE SMOOTH",
"1971 15 OFFCURVE",
"1919 -3 OFFCURVE",
"1867 -16 CURVE SMOOTH",
"1761 -44 OFFCURVE",
"1650 -64 OFFCURVE",
"1541 -64 CURVE SMOOTH",
"1491 -64 OFFCURVE",
"1440 -60 OFFCURVE",
"1391 -46 CURVE"
);
}
);
};
layerId = "95C423A7-595F-441F-915A-E5EF8B5EF971";
paths = (
{
closed = 1;
nodes = (
"1518 -272 OFFCURVE",
"1524 -265 OFFCURVE",
"1524 -257 CURVE SMOOTH",
"1524 -251 OFFCURVE",
"1521 -247 OFFCURVE",
"1515 -245 CURVE",
"1502 -238 OFFCURVE",
"1489 -233 OFFCURVE",
"1476 -225 CURVE SMOOTH",
"1421 -189 OFFCURVE",
"1393 -133 OFFCURVE",
"1391 -68 CURVE",
"1456 -86 OFFCURVE",
"1524 -93 OFFCURVE",
"1592 -93 CURVE SMOOTH",
"1695 -93 OFFCURVE",
"1799 -78 OFFCURVE",
"1899 -52 CURVE SMOOTH",
"1955 -38 OFFCURVE",
"2010 -20 OFFCURVE",
"2064 5 CURVE SMOOTH",
"2174 56 OFFCURVE",
"2314 155 OFFCURVE",
"2329 287 CURVE",
"2329 302 LINE SMOOTH",
"2329 420 OFFCURVE",
"2207 454 OFFCURVE",
"2110 454 CURVE SMOOTH",
"2057 454 OFFCURVE",
"2004 446 OFFCURVE",
"1953 434 CURVE SMOOTH",
"1743 383 OFFCURVE",
"1488 277 OFFCURVE",
"1392 68 CURVE SMOOTH",
"1376 35 OFFCURVE",
"1367 -1 OFFCURVE",
"1364 -38 CURVE",
"1293 -12 OFFCURVE",
"1234 38 OFFCURVE",
"1234 119 CURVE SMOOTH",
"1234 157 OFFCURVE",
"1247 194 OFFCURVE",
"1268 228 CURVE",
"1300 232 OFFCURVE",
"1345 241 OFFCURVE",
"1345 257 CURVE SMOOTH",
"1345 261 OFFCURVE",
"1342 264 OFFCURVE",
"1338 264 CURVE SMOOTH",
"1336 264 OFFCURVE",
"1334 263 OFFCURVE",
"1333 263 CURVE",
"1316 257 OFFCURVE",
"1300 253 OFFCURVE",
"1283 251 CURVE",
"1327 311 OFFCURVE",
"1393 360 OFFCURVE",
"1449 392 CURVE SMOOTH",
"1557 455 OFFCURVE",
"1697 497 OFFCURVE",
"1821 514 CURVE",
"1871 500 OFFCURVE",
"1926 493 OFFCURVE",
"1978 493 CURVE SMOOTH",
"1996 493 OFFCURVE",
"2062 495 OFFCURVE",
"2062 523 CURVE SMOOTH",
"2062 551 OFFCURVE",
"1942 548 OFFCURVE",
"1921 548 CURVE SMOOTH",
"1886 548 OFFCURVE",
"1851 546 OFFCURVE",
"1816 543 CURVE",
"1774 566 OFFCURVE",
"1738 603 OFFCURVE",
"1738 654 CURVE SMOOTH",
"1738 753 OFFCURVE",
"1853 810 OFFCURVE",
"1938 818 CURVE SMOOTH",
"1951 819 OFFCURVE",
"1963 820 OFFCURVE",
"1976 820 CURVE SMOOTH",
"2010 820 OFFCURVE",
"2052 815 OFFCURVE",
"2078 790 CURVE",
"2080 789 OFFCURVE",
"2080 787 OFFCURVE",
"2080 785 CURVE SMOOTH",
"2080 763 OFFCURVE",
"2036 780 OFFCURVE",
"2036 765 CURVE SMOOTH",
"2036 757 OFFCURVE",
"2053 756 OFFCURVE",
"2058 756 CURVE SMOOTH",
"2077 756 OFFCURVE",
"2114 765 OFFCURVE",
"2114 788 CURVE SMOOTH",
"2114 796 OFFCURVE",
"2109 802 OFFCURVE",
"2103 807 CURVE SMOOTH",
"2075 834 OFFCURVE",
"1997 844 OFFCURVE",
"1961 844 CURVE SMOOTH",
"1953 844 OFFCURVE",
"1945 844 OFFCURVE",
"1937 843 CURVE SMOOTH",
"1902 841 OFFCURVE",
"1868 834 OFFCURVE",
"1836 822 CURVE SMOOTH",
"1768 796 OFFCURVE",
"1684 735 OFFCURVE",
"1684 655 CURVE SMOOTH",
"1684 602 OFFCURVE",
"1723 563 OFFCURVE",
"1766 538 CURVE",
"1647 524 OFFCURVE",
"1523 490 OFFCURVE",
"1417 433 CURVE SMOOTH",
"1382 414 OFFCURVE",
"1343 390 OFFCURVE",
"1307 361 CURVE",
"1314 374 LINE",
"1372 458 OFFCURVE",
"1431 578 OFFCURVE",
"1475 618 CURVE",
"1503 654 OFFCURVE",
"1679 846 OFFCURVE",
"1679 861 CURVE SMOOTH",
"1679 875 OFFCURVE",
"1655 882 OFFCURVE",
"1644 882 CURVE SMOOTH",
"1637 882 LINE",
"1545 848 OFFCURVE",
"1149 434 OFFCURVE",
"1077 360 CURVE",
"1015 355 OFFCURVE",
"768 339 OFFCURVE",
"728 322 CURVE SMOOTH",
"721 319 OFFCURVE",
"708 314 OFFCURVE",
"708 303 CURVE SMOOTH",
"708 300 OFFCURVE",
"709 296 OFFCURVE",
"711 294 CURVE SMOOTH",
"729 272 OFFCURVE",
"803 250 OFFCURVE",
"831 244 CURVE SMOOTH",
"867 236 OFFCURVE",
"905 232 OFFCURVE",
"941 229 CURVE",
"781 82 OFFCURVE",
"441 -193 OFFCURVE",
"208 -193 CURVE SMOOTH",
"110 -193 OFFCURVE",
"46 -141 OFFCURVE",
"46 -41 CURVE SMOOTH",
"46 128 OFFCURVE",
"207 291 OFFCURVE",
"343 371 CURVE SMOOTH",
"403 407 OFFCURVE",
"467 433 OFFCURVE",
"534 453 CURVE SMOOTH",
"560 460 OFFCURVE",
"587 465 OFFCURVE",
"613 465 CURVE SMOOTH",
"637 465 OFFCURVE",
"672 460 OFFCURVE",
"686 439 CURVE SMOOTH",
"689 434 OFFCURVE",
"691 431 OFFCURVE",
"697 431 CURVE SMOOTH",
"704 431 OFFCURVE",
"711 436 OFFCURVE",
"711 443 CURVE SMOOTH",
"711 445 OFFCURVE",
"710 447 OFFCURVE",
"709 448 CURVE",
"694 482 OFFCURVE",
"647 490 OFFCURVE",
"613 490 CURVE SMOOTH",
"584 490 OFFCURVE",
"555 485 OFFCURVE",
"527 477 CURVE SMOOTH",
"455 455 OFFCURVE",
"384 428 OFFCURVE",
"318 391 CURVE SMOOTH",
"173 310 OFFCURVE",
"13 154 OFFCURVE",
"13 -25 CURVE SMOOTH",
"13 -151 OFFCURVE",
"98 -221 OFFCURVE",
"220 -221 CURVE SMOOTH",
"290 -221 OFFCURVE",
"362 -200 OFFCURVE",
"426 -172 CURVE SMOOTH",
"646 -78 OFFCURVE",
"836 56 OFFCURVE",
"1005 224 CURVE",
"1045 222 OFFCURVE",
"1085 221 OFFCURVE",
"1124 221 CURVE SMOOTH",
"1144 221 OFFCURVE",
"1163 221 OFFCURVE",
"1183 222 CURVE",
"1169 182 OFFCURVE",
"1158 139 OFFCURVE",
"1158 97 CURVE SMOOTH",
"1158 51 OFFCURVE",
"1172 10 OFFCURVE",
"1209 -19 CURVE",
"1212 -20 OFFCURVE",
"1214 -21 OFFCURVE",
"1217 -21 CURVE SMOOTH",
"1224 -21 OFFCURVE",
"1230 -15 OFFCURVE",
"1230 -8 CURVE SMOOTH",
"1230 3 OFFCURVE",
"1203 10 OFFCURVE",
"1199 57 CURVE",
"1234 0 OFFCURVE",
"1300 -38 OFFCURVE",
"1363 -59 CURVE",
"1363 -158 OFFCURVE",
"1413 -233 OFFCURVE",
"1505 -271 CURVE",
"1506 -271 OFFCURVE",
"1508 -272 OFFCURVE",
"1510 -272 CURVE SMOOTH"
);
},
{
closed = 1;
nodes = (
"938 266 OFFCURVE",
"886 272 OFFCURVE",
"851 286 CURVE",
"850 286 LINE",
"850 287 OFFCURVE",
"851 287 OFFCURVE",
"851 287 CURVE",
"865 293 OFFCURVE",
"880 296 OFFCURVE",
"894 299 CURVE SMOOTH",
"943 310 OFFCURVE",
"993 317 OFFCURVE",
"1043 325 CURVE",
"1021 303 OFFCURVE",
"998 282 OFFCURVE",
"976 260 CURVE"
);
},
{
closed = 1;
nodes = (
"1139 244 OFFCURVE",
"1086 248 OFFCURVE",
"1034 253 CURVE",
"1060 280 OFFCURVE",
"1085 308 OFFCURVE",
"1110 336 CURVE",
"1156 343 OFFCURVE",
"1201 351 OFFCURVE",
"1247 360 CURVE",
"1226 323 OFFCURVE",
"1207 284 OFFCURVE",
"1192 245 CURVE"
);
},
{
closed = 1;
nodes = (
"1182 421 OFFCURVE",
"1352 591 OFFCURVE",
"1450 700 CURVE",
"1495 739 OFFCURVE",
"1541 784 OFFCURVE",
"1590 817 CURVE",
"1581 805 OFFCURVE",
"1571 794 OFFCURVE",
"1562 783 CURVE SMOOTH",
"1452 655 OFFCURVE",
"1345 530 OFFCURVE",
"1260 383 CURVE",
"1218 375 OFFCURVE",
"1177 370 OFFCURVE",
"1135 366 CURVE"
);
},
{
closed = 1;
nodes = (
"1491 -64 OFFCURVE",
"1440 -60 OFFCURVE",
"1391 -46 CURVE",
"1393 -11 OFFCURVE",
"1403 24 OFFCURVE",
"1417 56 CURVE SMOOTH",
"1505 253 OFFCURVE",
"1764 360 OFFCURVE",
"1959 406 CURVE SMOOTH",
"2010 418 OFFCURVE",
"2063 427 OFFCURVE",
"2115 427 CURVE SMOOTH",
"2187 427 OFFCURVE",
"2288 406 OFFCURVE",
"2288 315 CURVE SMOOTH",
"2288 306 OFFCURVE",
"2287 297 OFFCURVE",
"2285 289 CURVE SMOOTH",
"2261 175 OFFCURVE",
"2118 82 OFFCURVE",
"2020 37 CURVE SMOOTH",
"1971 15 OFFCURVE",
"1919 -3 OFFCURVE",
"1867 -16 CURVE SMOOTH",
"1761 -44 OFFCURVE",
"1650 -64 OFFCURVE",
"1541 -64 CURVE SMOOTH"
);
}
);
width = 2331;
}
);
note = AE;
unicode = 00C6;
},
{
glyphname = B;
lastChange = "2021-09-15 00:57:03 +0000";
layers = (
{
background = {
paths = (
{
closed = 1;
nodes = (
"1039 732 OFFCURVE",
"1039 758 OFFCURVE",
"1039 767 CURVE SMOOTH",
"1039 828 OFFCURVE",
"990 854 OFFCURVE",
"935 854 CURVE SMOOTH",
"880 854 OFFCURVE",
"801 827 OFFCURVE",
"750 807 CURVE",
"679 834 OFFCURVE",
"599 843 OFFCURVE",
"523 843 CURVE SMOOTH",
"476 843 OFFCURVE",
"428 839 OFFCURVE",
"381 833 CURVE SMOOTH",
"286 820 OFFCURVE",
"70 758 OFFCURVE",
"18 674 CURVE SMOOTH",
"13 666 OFFCURVE",
"9 657 OFFCURVE",
"9 647 CURVE SMOOTH",
"9 622 OFFCURVE",
"36 616 OFFCURVE",
"56 616 CURVE SMOOTH",
"64 616 OFFCURVE",
"81 616 OFFCURVE",
"81 628 CURVE SMOOTH",
"81 640 OFFCURVE",
"43 628 OFFCURVE",
"43 644 CURVE SMOOTH",
"43 650 OFFCURVE",
"46 655 OFFCURVE",
"49 659 CURVE SMOOTH",
"101 740 OFFCURVE",
"306 796 OFFCURVE",
"398 808 CURVE SMOOTH",
"439 814 OFFCURVE",
"481 817 OFFCURVE",
"522 817 CURVE SMOOTH",
"583 817 OFFCURVE",
"648 810 OFFCURVE",
"705 787 CURVE",
"554 717 OFFCURVE",
"422 605 OFFCURVE",
"323 470 CURVE",
"309 473 OFFCURVE",
"295 475 OFFCURVE",
"280 475 CURVE SMOOTH",
"274 475 OFFCURVE",
"247 474 OFFCURVE",
"247 463 CURVE SMOOTH",
"247 448 OFFCURVE",
"277 432 OFFCURVE",
"289 427 CURVE",
"215 319 OFFCURVE",
"160 200 OFFCURVE",
"123 75 CURVE",
"68 72 OFFCURVE",
"-116 53 OFFCURVE",
"-116 -25 CURVE SMOOTH",
"-116 -56 OFFCURVE",
"-80 -61 OFFCURVE",
"-57 -61 CURVE SMOOTH",
"9 -61 OFFCURVE",
"74 -62 OFFCURVE",
"140 -62 CURVE SMOOTH",
"147 -62 OFFCURVE",
"154 -60 OFFCURVE",
"154 -51 CURVE SMOOTH",
"154 -34 OFFCURVE",
"135 -24 OFFCURVE",
"135 -6 CURVE SMOOTH",
"135 7 OFFCURVE",
"137 19 OFFCURVE",
"139 31 CURVE",
"162 33 OFFCURVE",
"185 33 OFFCURVE",
"208 33 CURVE SMOOTH",
"368 33 OFFCURVE",
"531 10 OFFCURVE",
"688 -23 CURVE SMOOTH",
"714 -28 OFFCURVE",
"739 -31 OFFCURVE",
"765 -31 CURVE SMOOTH",
"848 -31 OFFCURVE",
"943 10 OFFCURVE",
"943 105 CURVE SMOOTH",
"943 266 OFFCURVE",
"648 376 OFFCURVE",
"523 417 CURVE",
"633 434 OFFCURVE",
"802 479 OFFCURVE",
"866 581 CURVE SMOOTH",
"880 603 OFFCURVE",
"888 627 OFFCURVE",
"888 653 CURVE SMOOTH",
"888 711 OFFCURVE",
"846 756 OFFCURVE",
"798 783 CURVE",
"842 802 OFFCURVE",
"902 824 OFFCURVE",
"950 824 CURVE SMOOTH",
"990 824 OFFCURVE",
"1021 808 OFFCURVE",
"1021 764 CURVE SMOOTH",
"1021 756 OFFCURVE",
"1018 749 OFFCURVE",
"1018 741 CURVE SMOOTH",
"1018 737 OFFCURVE",
"1020 732 OFFCURVE",
"1025 732 CURVE SMOOTH"
);
},
{
closed = 1;
nodes = (
"794 737 OFFCURVE",
"825 697 OFFCURVE",
"825 648 CURVE SMOOTH",
"825 509 OFFCURVE",
"580 444 OFFCURVE",
"473 432 CURVE",
"439 442 OFFCURVE",
"405 452 OFFCURVE",
"371 460 CURVE",
"475 581 OFFCURVE",
"611 691 OFFCURVE",
"754 763 CURVE"
);
},
{
closed = 1;
nodes = (
"353 439 LINE",
"367 436 OFFCURVE",
"380 433 OFFCURVE",
"393 429 CURVE",
"378 430 OFFCURVE",
"364 431 OFFCURVE",
"349 434 CURVE"
);
},
{
closed = 1;
nodes = (
"294 450 LINE",
"293 451 OFFCURVE",
"292 452 OFFCURVE",
"292 453 CURVE",
"292 453 OFFCURVE",
"293 454 OFFCURVE",
"293 454 CURVE",
"295 452 OFFCURVE",
"297 451 OFFCURVE",
"298 450 CURVE"
);
},
{
closed = 1;
nodes = (
"305 449 LINE",
"303 448 LINE",
"298 450 LINE"
);
},
{
closed = 1;
nodes = (
"591 369 OFFCURVE",
"874 265 OFFCURVE",
"874 104 CURVE SMOOTH",
"874 32 OFFCURVE",
"812 -5 OFFCURVE",
"746 -5 CURVE SMOOTH",
"730 -5 OFFCURVE",
"715 -3 OFFCURVE",
"700 -1 CURVE SMOOTH",
"523 33 OFFCURVE",
"345 77 OFFCURVE",
"163 76 CURVE SMOOTH",
"151 76 LINE",
"188 199 OFFCURVE",
"253 312 OFFCURVE",
"332 413 CURVE",
"357 408 OFFCURVE",
"382 406 OFFCURVE",
"407 406 CURVE SMOOTH",
"426 406 OFFCURVE",
"445 407 OFFCURVE",
"464 409 CURVE"
);
},
{
closed = 1;
nodes = (
"-59 10 OFFCURVE",
"87 27 OFFCURVE",
"111 29 CURVE",
"107 15 OFFCURVE",
"104 1 OFFCURVE",
"100 -12 CURVE SMOOTH",
"94 -38 OFFCURVE",
"54 -41 OFFCURVE",
"33 -41 CURVE SMOOTH",
"19 -41 OFFCURVE",
"-59 -37 OFFCURVE",
"-59 -18 CURVE SMOOTH"
);
}
);
};
layerId = "95C423A7-595F-441F-915A-E5EF8B5EF971";
paths = (
{
closed = 1;
nodes = (
"147 -62 OFFCURVE",
"154 -60 OFFCURVE",
"154 -51 CURVE SMOOTH",
"154 -34 OFFCURVE",
"135 -24 OFFCURVE",
"135 -6 CURVE SMOOTH",
"135 7 OFFCURVE",
"137 19 OFFCURVE",
"139 31 CURVE",
"162 33 OFFCURVE",
"185 33 OFFCURVE",
"208 33 CURVE SMOOTH",
"498 33 OFFCURVE",
"659 -31 OFFCURVE",
"774 -31 CURVE SMOOTH",
"848 -31 OFFCURVE",
"943 10 OFFCURVE",
"943 105 CURVE SMOOTH",
"943 266 OFFCURVE",
"648 376 OFFCURVE",
"523 417 CURVE",
"633 434 OFFCURVE",
"802 479 OFFCURVE",
"866 581 CURVE SMOOTH",
"880 603 OFFCURVE",
"888 627 OFFCURVE",
"888 653 CURVE SMOOTH",
"888 711 OFFCURVE",
"846 756 OFFCURVE",
"798 783 CURVE",
"842 802 OFFCURVE",
"902 824 OFFCURVE",
"950 824 CURVE SMOOTH",
"990 824 OFFCURVE",
"1021 808 OFFCURVE",
"1021 764 CURVE SMOOTH",
"1021 756 OFFCURVE",
"1018 749 OFFCURVE",
"1018 741 CURVE SMOOTH",
"1018 737 OFFCURVE",
"1020 732 OFFCURVE",
"1025 732 CURVE SMOOTH",
"1039 732 OFFCURVE",
"1039 758 OFFCURVE",
"1039 767 CURVE SMOOTH",
"1039 828 OFFCURVE",
"990 854 OFFCURVE",
"935 854 CURVE SMOOTH",
"880 854 OFFCURVE",
"801 827 OFFCURVE",
"750 807 CURVE",
"679 834 OFFCURVE",
"599 843 OFFCURVE",
"523 843 CURVE SMOOTH",
"476 843 OFFCURVE",
"428 839 OFFCURVE",
"381 833 CURVE SMOOTH",
"286 820 OFFCURVE",
"70 758 OFFCURVE",
"18 674 CURVE SMOOTH",
"13 666 OFFCURVE",
"9 657 OFFCURVE",
"9 647 CURVE SMOOTH",
"9 622 OFFCURVE",
"36 616 OFFCURVE",
"56 616 CURVE SMOOTH",
"64 616 OFFCURVE",
"81 616 OFFCURVE",
"81 628 CURVE SMOOTH",
"81 640 OFFCURVE",
"43 628 OFFCURVE",
"43 644 CURVE SMOOTH",
"43 650 OFFCURVE",
"46 655 OFFCURVE",
"49 659 CURVE SMOOTH",
"101 740 OFFCURVE",
"306 796 OFFCURVE",
"398 808 CURVE SMOOTH",
"439 814 OFFCURVE",
"481 817 OFFCURVE",
"522 817 CURVE SMOOTH",
"583 817 OFFCURVE",
"648 810 OFFCURVE",
"705 787 CURVE",
"554 717 OFFCURVE",
"422 605 OFFCURVE",
"323 470 CURVE",
"309 473 OFFCURVE",
"295 475 OFFCURVE",
"280 475 CURVE SMOOTH",
"274 475 OFFCURVE",
"247 474 OFFCURVE",
"247 463 CURVE SMOOTH",
"247 448 OFFCURVE",
"277 432 OFFCURVE",
"289 427 CURVE",
"215 319 OFFCURVE",
"160 200 OFFCURVE",
"123 75 CURVE",
"68 72 OFFCURVE",
"-116 53 OFFCURVE",
"-116 -25 CURVE SMOOTH",
"-116 -56 OFFCURVE",
"-80 -61 OFFCURVE",
"-57 -61 CURVE SMOOTH",
"9 -61 OFFCURVE",
"74 -62 OFFCURVE",
"140 -62 CURVE SMOOTH"
);
},
{
closed = 1;
nodes = (
"19 -41 OFFCURVE",
"-59 -37 OFFCURVE",
"-59 -18 CURVE SMOOTH",
"-59 10 OFFCURVE",
"87 27 OFFCURVE",
"111 29 CURVE",
"107 15 OFFCURVE",
"104 1 OFFCURVE",
"100 -12 CURVE SMOOTH",
"94 -38 OFFCURVE",
"54 -41 OFFCURVE",
"33 -41 CURVE SMOOTH"
);
},
{
closed = 1;
nodes = (
"659 -5 OFFCURVE",
"410 76 OFFCURVE",
"163 76 CURVE SMOOTH",
"151 76 LINE",
"188 199 OFFCURVE",
"253 312 OFFCURVE",
"332 413 CURVE",
"357 408 OFFCURVE",
"382 406 OFFCURVE",
"407 406 CURVE SMOOTH",
"426 406 OFFCURVE",
"445 407 OFFCURVE",
"464 409 CURVE",
"591 369 OFFCURVE",
"874 265 OFFCURVE",
"874 104 CURVE SMOOTH",
"874 32 OFFCURVE",
"812 -5 OFFCURVE",
"746 -5 CURVE SMOOTH"
);
},
{
closed = 1;
nodes = (
"303 447 OFFCURVE",
"300 447 OFFCURVE",
"298 448 CURVE SMOOTH",
"295 449 OFFCURVE",
"293 451 OFFCURVE",
"292 453 CURVE",
"293 454 LINE",
"297 453 OFFCURVE",
"301 451 OFFCURVE",
"305 449 CURVE",
"304 447 LINE"
);
},
{
closed = 1;
nodes = (
"378 430 OFFCURVE",
"364 431 OFFCURVE",
"349 434 CURVE",
"353 439 LINE",
"367 436 OFFCURVE",
"380 433 OFFCURVE",
"393 429 CURVE"
);
},
{
closed = 1;
nodes = (
"439 442 OFFCURVE",
"405 452 OFFCURVE",
"371 460 CURVE",
"475 581 OFFCURVE",
"611 691 OFFCURVE",
"754 763 CURVE",
"794 737 OFFCURVE",
"825 697 OFFCURVE",
"825 648 CURVE SMOOTH",
"825 509 OFFCURVE",
"580 444 OFFCURVE",
"473 432 CURVE"
);
}
);
width = 962;
}
);
note = B;
unicode = 0042;
},
{
glyphname = C;
lastChange = "2021-09-15 00:57:15 +0000";
layers = (
{
background = {
paths = (
{
closed = 1;
nodes = (
"543 -61 OFFCURVE",
"759 -4 OFFCURVE",
"902 83 CURVE SMOOTH",
"951 113 OFFCURVE",
"998 146 OFFCURVE",
"1043 182 CURVE SMOOTH",
"1112 238 OFFCURVE",
"1250 367 OFFCURVE",
"1250 464 CURVE SMOOTH",
"1250 474 OFFCURVE",
"1246 507 OFFCURVE",
"1232 507 CURVE SMOOTH",
"1226 507 OFFCURVE",
"1222 502 OFFCURVE",
"1222 496 CURVE SMOOTH",
"1222 488 OFFCURVE",
"1229 480 OFFCURVE",
"1229 467 CURVE SMOOTH",
"1229 381 OFFCURVE",
"1069 244 OFFCURVE",
"1007 196 CURVE SMOOTH",
"964 163 OFFCURVE",
"920 133 OFFCURVE",
"874 105 CURVE SMOOTH",
"743 25 OFFCURVE",
"557 -29 OFFCURVE",
"402 -29 CURVE SMOOTH",
"255 -29 OFFCURVE",
"97 23 OFFCURVE",
"97 198 CURVE SMOOTH",
"97 287 OFFCURVE",
"141 378 OFFCURVE",
"191 450 CURVE",
"223 463 OFFCURVE",
"257 476 OFFCURVE",
"291 485 CURVE SMOOTH",
"295 486 OFFCURVE",
"302 487 OFFCURVE",
"306 489 CURVE SMOOTH",
"314 493 OFFCURVE",
"324 500 OFFCURVE",
"324 510 CURVE SMOOTH",
"324 523 OFFCURVE",
"305 523 OFFCURVE",
"296 523 CURVE SMOOTH",
"279 523 OFFCURVE",
"262 522 OFFCURVE",
"245 520 CURVE",
"337 624 OFFCURVE",
"454 708 OFFCURVE",
"584 756 CURVE SMOOTH",
"591 759 OFFCURVE",
"639 776 OFFCURVE",
"643 776 CURVE SMOOTH",
"660 776 OFFCURVE",
"678 773 OFFCURVE",
"695 771 CURVE SMOOTH",
"787 761 OFFCURVE",
"904 733 OFFCURVE",
"985 689 CURVE SMOOTH",
"1006 677 OFFCURVE",
"1023 664 OFFCURVE",
"1041 649 CURVE SMOOTH",
"1048 642 OFFCURVE",
"1055 637 OFFCURVE",
"1065 637 CURVE SMOOTH",
"1089 637 OFFCURVE",
"1097 671 OFFCURVE",
"1097 689 CURVE SMOOTH",
"1097 709 OFFCURVE",
"1091 726 OFFCURVE",
"1080 743 CURVE SMOOTH",
"1074 753 OFFCURVE",
"1058 764 OFFCURVE",
"1048 771 CURVE SMOOTH",
"984 811 OFFCURVE",
"895 826 OFFCURVE",
"821 826 CURVE SMOOTH",
"782 826 OFFCURVE",
"743 822 OFFCURVE",
"705 815 CURVE SMOOTH",
"690 813 OFFCURVE",
"658 803 OFFCURVE",
"647 802 CURVE SMOOTH",
"630 801 OFFCURVE",
"614 802 OFFCURVE",
"598 801 CURVE SMOOTH",
"574 799 OFFCURVE",
"549 797 OFFCURVE",
"525 794 CURVE SMOOTH",
"388 779 OFFCURVE",
"152 721 OFFCURVE",
"44 630 CURVE SMOOTH",
"26 614 OFFCURVE",
"1 589 OFFCURVE",
"1 562 CURVE SMOOTH",
"1 506 OFFCURVE",
"111 494 OFFCURVE",
"152 491 CURVE",
"139 476 OFFCURVE",
"126 459 OFFCURVE",
"114 442 CURVE",
"101 435 OFFCURVE",
"54 413 OFFCURVE",
"54 395 CURVE SMOOTH",
"54 391 OFFCURVE",
"57 386 OFFCURVE",
"63 386 CURVE SMOOTH",
"68 386 OFFCURVE",
"69 389 OFFCURVE",
"72 392 CURVE SMOOTH",
"76 397 OFFCURVE",
"85 402 OFFCURVE",
"90 405 CURVE",
"55 345 OFFCURVE",
"31 278 OFFCURVE",
"31 209 CURVE SMOOTH",
"31 159 OFFCURVE",
"44 111 OFFCURVE",
"69 68 CURVE SMOOTH",
"129 -37 OFFCURVE",
"266 -61 OFFCURVE",
"376 -61 CURVE SMOOTH"
);
},
{
closed = 1;
nodes = (
"772 800 OFFCURVE",
"797 802 OFFCURVE",
"821 802 CURVE SMOOTH",
"889 802 OFFCURVE",
"970 788 OFFCURVE",
"1030 753 CURVE SMOOTH",
"1038 748 OFFCURVE",
"1054 737 OFFCURVE",
"1060 729 CURVE SMOOTH",
"1064 722 OFFCURVE",
"1068 714 OFFCURVE",
"1068 705 CURVE SMOOTH",
"1068 702 OFFCURVE",
"1067 695 OFFCURVE",
"1063 695 CURVE SMOOTH",
"1058 695 OFFCURVE",
"1053 701 OFFCURVE",
"1050 704 CURVE SMOOTH",
"998 750 OFFCURVE",
"818 787 OFFCURVE",
"748 797 CURVE"
);
},
{
closed = 1;
nodes = (
"29 584 OFFCURVE",
"49 600 OFFCURVE",
"61 611 CURVE SMOOTH",
"81 629 OFFCURVE",
"108 644 OFFCURVE",
"132 656 CURVE SMOOTH",
"255 721 OFFCURVE",
"420 761 OFFCURVE",
"558 773 CURVE",
"414 716 OFFCURVE",
"278 631 OFFCURVE",
"173 516 CURVE",
"145 516 OFFCURVE",
"29 524 OFFCURVE",
"29 566 CURVE SMOOTH"
);
},
{
closed = 1;
nodes = (
"227 493 LINE",
"221 490 LINE",
"222 492 LINE"
);
}
);
};
layerId = "95C423A7-595F-441F-915A-E5EF8B5EF971";
paths = (
{
closed = 1;
nodes = (
"543 -61 OFFCURVE",
"759 -4 OFFCURVE",
"902 83 CURVE SMOOTH",
"951 113 OFFCURVE",
"998 146 OFFCURVE",
"1043 182 CURVE SMOOTH",
"1112 238 OFFCURVE",
"1250 367 OFFCURVE",
"1250 464 CURVE SMOOTH",
"1250 474 OFFCURVE",
"1246 507 OFFCURVE",
"1232 507 CURVE SMOOTH",
"1226 507 OFFCURVE",
"1222 502 OFFCURVE",
"1222 496 CURVE SMOOTH",
"1222 488 OFFCURVE",
"1229 480 OFFCURVE",
"1229 467 CURVE SMOOTH",
"1229 381 OFFCURVE",
"1069 244 OFFCURVE",
"1007 196 CURVE SMOOTH",
"964 163 OFFCURVE",
"920 133 OFFCURVE",
"874 105 CURVE SMOOTH",
"743 25 OFFCURVE",
"557 -29 OFFCURVE",
"402 -29 CURVE SMOOTH",
"255 -29 OFFCURVE",
"97 23 OFFCURVE",
"97 198 CURVE SMOOTH",
"97 287 OFFCURVE",
"141 378 OFFCURVE",
"191 450 CURVE",
"223 463 OFFCURVE",
"257 476 OFFCURVE",
"291 485 CURVE SMOOTH",
"295 486 OFFCURVE",
"302 487 OFFCURVE",
"306 489 CURVE SMOOTH",
"314 493 OFFCURVE",
"324 500 OFFCURVE",
"324 510 CURVE SMOOTH",
"324 523 OFFCURVE",
"305 523 OFFCURVE",
"296 523 CURVE SMOOTH",
"279 523 OFFCURVE",
"262 522 OFFCURVE",
"245 520 CURVE",
"337 624 OFFCURVE",
"454 708 OFFCURVE",
"584 756 CURVE SMOOTH",
"591 759 OFFCURVE",
"639 776 OFFCURVE",
"643 776 CURVE SMOOTH",
"660 776 OFFCURVE",
"678 773 OFFCURVE",
"695 771 CURVE SMOOTH",
"787 761 OFFCURVE",
"904 733 OFFCURVE",
"985 689 CURVE SMOOTH",
"1006 677 OFFCURVE",
"1023 664 OFFCURVE",
"1041 649 CURVE SMOOTH",
"1048 642 OFFCURVE",
"1055 637 OFFCURVE",
"1065 637 CURVE SMOOTH",
"1089 637 OFFCURVE",
"1097 671 OFFCURVE",
"1097 689 CURVE SMOOTH",
"1097 709 OFFCURVE",
"1091 726 OFFCURVE",
"1080 743 CURVE SMOOTH",
"1074 753 OFFCURVE",
"1058 764 OFFCURVE",
"1048 771 CURVE SMOOTH",
"984 811 OFFCURVE",
"895 826 OFFCURVE",
"821 826 CURVE SMOOTH",
"782 826 OFFCURVE",
"743 822 OFFCURVE",
"705 815 CURVE SMOOTH",
"690 813 OFFCURVE",
"658 803 OFFCURVE",
"647 802 CURVE SMOOTH",
"630 801 OFFCURVE",
"614 802 OFFCURVE",
"598 801 CURVE SMOOTH",
"574 799 OFFCURVE",
"549 797 OFFCURVE",
"525 794 CURVE SMOOTH",
"388 779 OFFCURVE",
"152 721 OFFCURVE",
"44 630 CURVE SMOOTH",
"26 614 OFFCURVE",
"1 589 OFFCURVE",
"1 562 CURVE SMOOTH",
"1 506 OFFCURVE",
"111 494 OFFCURVE",
"152 491 CURVE",
"139 476 OFFCURVE",
"126 459 OFFCURVE",
"114 442 CURVE",
"101 435 OFFCURVE",
"54 413 OFFCURVE",
"54 395 CURVE SMOOTH",
"54 391 OFFCURVE",
"57 386 OFFCURVE",
"63 386 CURVE SMOOTH",
"68 386 OFFCURVE",
"69 389 OFFCURVE",
"72 392 CURVE SMOOTH",
"76 397 OFFCURVE",
"85 402 OFFCURVE",
"90 405 CURVE",
"55 345 OFFCURVE",
"31 278 OFFCURVE",
"31 209 CURVE SMOOTH",
"31 159 OFFCURVE",
"44 111 OFFCURVE",
"69 68 CURVE SMOOTH",
"129 -37 OFFCURVE",
"266 -61 OFFCURVE",
"376 -61 CURVE SMOOTH"
);
},
{
closed = 1;
nodes = (
"145 516 OFFCURVE",
"29 524 OFFCURVE",
"29 566 CURVE SMOOTH",
"29 584 OFFCURVE",
"49 600 OFFCURVE",
"61 611 CURVE SMOOTH",
"81 629 OFFCURVE",
"108 644 OFFCURVE",
"132 656 CURVE SMOOTH",
"255 721 OFFCURVE",
"420 761 OFFCURVE",
"558 773 CURVE",
"414 716 OFFCURVE",
"278 631 OFFCURVE",
"173 516 CURVE"
);
},
{
closed = 1;
nodes = (
"1058 695 OFFCURVE",
"1053 701 OFFCURVE",
"1050 704 CURVE SMOOTH",
"998 750 OFFCURVE",
"818 787 OFFCURVE",
"748 797 CURVE",
"772 800 OFFCURVE",
"797 802 OFFCURVE",
"821 802 CURVE SMOOTH",
"889 802 OFFCURVE",
"970 788 OFFCURVE",
"1030 753 CURVE SMOOTH",
"1038 748 OFFCURVE",
"1054 737 OFFCURVE",
"1060 729 CURVE SMOOTH",
"1064 722 OFFCURVE",
"1068 714 OFFCURVE",
"1068 705 CURVE SMOOTH",
"1068 702 OFFCURVE",
"1067 695 OFFCURVE",
"1063 695 CURVE SMOOTH"
);
}
);
width = 1259;
}
);
note = C;
unicode = 0043;
},
{
color = 11;
glyphname = Ccedilla;
lastChange = "2021-09-15 00:52:07 +0000";
layers = (
{
background = {
paths = (
{
closed = 1;
nodes = (
"543 -61 OFFCURVE",
"759 -4 OFFCURVE",
"902 83 CURVE SMOOTH",
"951 113 OFFCURVE",
"998 146 OFFCURVE",
"1043 182 CURVE SMOOTH",
"1112 238 OFFCURVE",
"1250 367 OFFCURVE",
"1250 464 CURVE SMOOTH",
"1250 474 OFFCURVE",
"1246 507 OFFCURVE",
"1232 507 CURVE SMOOTH",
"1226 507 OFFCURVE",
"1222 502 OFFCURVE",
"1222 496 CURVE SMOOTH",
"1222 488 OFFCURVE",
"1229 480 OFFCURVE",
"1229 467 CURVE SMOOTH",
"1229 381 OFFCURVE",
"1069 244 OFFCURVE",
"1007 196 CURVE SMOOTH",
"964 163 OFFCURVE",
"920 133 OFFCURVE",
"874 105 CURVE SMOOTH",
"743 25 OFFCURVE",
"557 -29 OFFCURVE",
"402 -29 CURVE SMOOTH",
"255 -29 OFFCURVE",
"97 23 OFFCURVE",
"97 198 CURVE SMOOTH",
"97 287 OFFCURVE",
"141 378 OFFCURVE",
"191 450 CURVE",
"223 463 OFFCURVE",
"257 476 OFFCURVE",
"291 485 CURVE SMOOTH",
"295 486 OFFCURVE",
"302 487 OFFCURVE",
"306 489 CURVE SMOOTH",
"314 493 OFFCURVE",
"324 500 OFFCURVE",
"324 510 CURVE SMOOTH",
"324 523 OFFCURVE",
"305 523 OFFCURVE",
"296 523 CURVE SMOOTH",
"279 523 OFFCURVE",
"262 522 OFFCURVE",
"245 520 CURVE",
"337 624 OFFCURVE",
"454 708 OFFCURVE",
"584 756 CURVE SMOOTH",
"591 759 OFFCURVE",
"639 776 OFFCURVE",
"643 776 CURVE SMOOTH",
"660 776 OFFCURVE",
"678 773 OFFCURVE",
"695 771 CURVE SMOOTH",
"787 761 OFFCURVE",
"904 733 OFFCURVE",
"985 689 CURVE SMOOTH",
"1006 677 OFFCURVE",
"1023 664 OFFCURVE",
"1041 649 CURVE SMOOTH",
"1048 642 OFFCURVE",
"1055 637 OFFCURVE",
"1065 637 CURVE SMOOTH",
"1089 637 OFFCURVE",
"1097 671 OFFCURVE",
"1097 689 CURVE SMOOTH",
"1097 709 OFFCURVE",
"1091 726 OFFCURVE",
"1080 743 CURVE SMOOTH",
"1074 753 OFFCURVE",
"1058 764 OFFCURVE",
"1048 771 CURVE SMOOTH",
"984 811 OFFCURVE",
"895 826 OFFCURVE",
"821 826 CURVE SMOOTH",
"782 826 OFFCURVE",
"743 822 OFFCURVE",
"705 815 CURVE SMOOTH",
"690 813 OFFCURVE",
"658 803 OFFCURVE",
"647 802 CURVE SMOOTH",
"630 801 OFFCURVE",
"614 802 OFFCURVE",
"598 801 CURVE SMOOTH",
"574 799 OFFCURVE",
"549 797 OFFCURVE",
"525 794 CURVE SMOOTH",
"388 779 OFFCURVE",
"152 721 OFFCURVE",
"44 630 CURVE SMOOTH",
"26 614 OFFCURVE",
"1 589 OFFCURVE",
"1 562 CURVE SMOOTH",
"1 506 OFFCURVE",
"111 494 OFFCURVE",
"152 491 CURVE",
"139 476 OFFCURVE",
"126 459 OFFCURVE",
"114 442 CURVE",
"101 435 OFFCURVE",
"54 413 OFFCURVE",
"54 395 CURVE SMOOTH",
"54 391 OFFCURVE",
"57 386 OFFCURVE",
"63 386 CURVE SMOOTH",
"68 386 OFFCURVE",
"69 389 OFFCURVE",
"72 392 CURVE SMOOTH",
"76 397 OFFCURVE",
"85 402 OFFCURVE",
"90 405 CURVE",
"55 345 OFFCURVE",
"31 278 OFFCURVE",
"31 209 CURVE SMOOTH",
"31 159 OFFCURVE",
"44 111 OFFCURVE",
"69 68 CURVE SMOOTH",
"113 -9 OFFCURVE",
"198 -42 OFFCURVE",
"284 -54 CURVE",
"279 -58 OFFCURVE",
"274 -63 OFFCURVE",
"267 -71 CURVE SMOOTH",
"253 -87 OFFCURVE",
"244 -109 OFFCURVE",
"244 -127 CURVE SMOOTH",
"244 -158 OFFCURVE",
"287 -189 OFFCURVE",
"287 -213 CURVE SMOOTH",
"287 -274 OFFCURVE",
"238 -261 OFFCURVE",
"200 -270 CURVE",
"197 -270 OFFCURVE",
"192 -272 OFFCURVE",
"192 -276 CURVE SMOOTH",
"192 -280 OFFCURVE",
"195 -285 OFFCURVE",
"200 -285 CURVE SMOOTH",
"246 -285 OFFCURVE",
"321 -261 OFFCURVE",
"321 -205 CURVE SMOOTH",
"321 -164 OFFCURVE",
"273 -136 OFFCURVE",
"273 -113 CURVE SMOOTH",
"273 -99 OFFCURVE",
"280 -88 OFFCURVE",
"286 -77 CURVE SMOOTH",
"291 -68 OFFCURVE",
"294 -61 OFFCURVE",
"295 -56 CURVE",
"323 -59 OFFCURVE",
"350 -61 OFFCURVE",
"376 -61 CURVE SMOOTH"
);
},
{
closed = 1;
nodes = (
"772 800 OFFCURVE",
"797 802 OFFCURVE",
"821 802 CURVE SMOOTH",
"889 802 OFFCURVE",
"970 788 OFFCURVE",
"1030 753 CURVE SMOOTH",
"1038 748 OFFCURVE",
"1054 737 OFFCURVE",
"1060 729 CURVE SMOOTH",
"1064 722 OFFCURVE",
"1068 714 OFFCURVE",
"1068 705 CURVE SMOOTH",
"1068 702 OFFCURVE",
"1067 695 OFFCURVE",
"1063 695 CURVE SMOOTH",
"1058 695 OFFCURVE",
"1053 701 OFFCURVE",
"1050 704 CURVE SMOOTH",
"998 750 OFFCURVE",
"818 787 OFFCURVE",
"748 797 CURVE"
);
},
{
closed = 1;
nodes = (
"29 584 OFFCURVE",
"49 600 OFFCURVE",
"61 611 CURVE SMOOTH",
"81 629 OFFCURVE",
"108 644 OFFCURVE",
"132 656 CURVE SMOOTH",
"255 721 OFFCURVE",
"420 761 OFFCURVE",
"558 773 CURVE",
"414 716 OFFCURVE",
"278 631 OFFCURVE",
"173 516 CURVE",
"145 516 OFFCURVE",
"29 524 OFFCURVE",
"29 566 CURVE SMOOTH"
);
},
{
closed = 1;
nodes = (
"227 493 LINE",
"221 490 LINE",
"222 492 LINE"
);
}
);
};
layerId = "95C423A7-595F-441F-915A-E5EF8B5EF971";
paths = (
{
closed = 1;
nodes = (
"246 -285 OFFCURVE",
"321 -261 OFFCURVE",
"321 -205 CURVE SMOOTH",
"321 -164 OFFCURVE",
"273 -136 OFFCURVE",
"273 -113 CURVE SMOOTH",
"273 -99 OFFCURVE",
"280 -88 OFFCURVE",
"286 -77 CURVE SMOOTH",
"291 -68 OFFCURVE",
"294 -61 OFFCURVE",
"295 -56 CURVE",
"323 -59 OFFCURVE",
"350 -61 OFFCURVE",
"376 -61 CURVE SMOOTH",
"543 -61 OFFCURVE",
"759 -4 OFFCURVE",
"902 83 CURVE SMOOTH",
"951 113 OFFCURVE",
"998 146 OFFCURVE",
"1043 182 CURVE SMOOTH",
"1112 238 OFFCURVE",
"1250 367 OFFCURVE",
"1250 464 CURVE SMOOTH",
"1250 474 OFFCURVE",
"1246 507 OFFCURVE",
"1232 507 CURVE SMOOTH",
"1226 507 OFFCURVE",
"1222 502 OFFCURVE",
"1222 496 CURVE SMOOTH",
"1222 488 OFFCURVE",
"1229 480 OFFCURVE",
"1229 467 CURVE SMOOTH",
"1229 381 OFFCURVE",
"1069 244 OFFCURVE",
"1007 196 CURVE SMOOTH",
"964 163 OFFCURVE",
"920 133 OFFCURVE",
"874 105 CURVE SMOOTH",
"743 25 OFFCURVE",
"557 -29 OFFCURVE",
"402 -29 CURVE SMOOTH",
"255 -29 OFFCURVE",
"97 23 OFFCURVE",
"97 198 CURVE SMOOTH",
"97 287 OFFCURVE",
"141 378 OFFCURVE",
"191 450 CURVE",
"223 463 OFFCURVE",
"257 476 OFFCURVE",
"291 485 CURVE SMOOTH",
"295 486 OFFCURVE",
"302 487 OFFCURVE",
"306 489 CURVE SMOOTH",
"314 493 OFFCURVE",
"324 500 OFFCURVE",
"324 510 CURVE SMOOTH",
"324 523 OFFCURVE",
"305 523 OFFCURVE",
"296 523 CURVE SMOOTH",
"279 523 OFFCURVE",
"262 522 OFFCURVE",
"245 520 CURVE",
"337 624 OFFCURVE",
"454 708 OFFCURVE",
"584 756 CURVE SMOOTH",
"591 759 OFFCURVE",
"639 776 OFFCURVE",
"643 776 CURVE SMOOTH",
"660 776 OFFCURVE",
"678 773 OFFCURVE",
"695 771 CURVE SMOOTH",
"787 761 OFFCURVE",
"904 733 OFFCURVE",
"985 689 CURVE SMOOTH",
"1006 677 OFFCURVE",
"1023 664 OFFCURVE",
"1041 649 CURVE SMOOTH",
"1048 642 OFFCURVE",
"1055 637 OFFCURVE",
"1065 637 CURVE SMOOTH",
"1089 637 OFFCURVE",
"1097 671 OFFCURVE",
"1097 689 CURVE SMOOTH",
"1097 709 OFFCURVE",
"1091 726 OFFCURVE",
"1080 743 CURVE SMOOTH",
"1074 753 OFFCURVE",
"1058 764 OFFCURVE",
"1048 771 CURVE SMOOTH",
"984 811 OFFCURVE",
"895 826 OFFCURVE",
"821 826 CURVE SMOOTH",
"782 826 OFFCURVE",
"743 822 OFFCURVE",
"705 815 CURVE SMOOTH",
"690 813 OFFCURVE",
"658 803 OFFCURVE",
"647 802 CURVE SMOOTH",
"630 801 OFFCURVE",
"614 802 OFFCURVE",
"598 801 CURVE SMOOTH",
"574 799 OFFCURVE",
"549 797 OFFCURVE",
"525 794 CURVE SMOOTH",
"388 779 OFFCURVE",
"152 721 OFFCURVE",
"44 630 CURVE SMOOTH",
"26 614 OFFCURVE",
"1 589 OFFCURVE",
"1 562 CURVE SMOOTH",
"1 506 OFFCURVE",
"111 494 OFFCURVE",
"152 491 CURVE",
"139 476 OFFCURVE",
"126 459 OFFCURVE",
"114 442 CURVE",
"101 435 OFFCURVE",
"54 413 OFFCURVE",
"54 395 CURVE SMOOTH",
"54 391 OFFCURVE",
"57 386 OFFCURVE",
"63 386 CURVE SMOOTH",
"68 386 OFFCURVE",
"69 389 OFFCURVE",
"72 392 CURVE SMOOTH",
"76 397 OFFCURVE",
"85 402 OFFCURVE",
"90 405 CURVE",
"55 345 OFFCURVE",
"31 278 OFFCURVE",
"31 209 CURVE SMOOTH",
"31 159 OFFCURVE",
"44 111 OFFCURVE",
"69 68 CURVE SMOOTH",
"113 -9 OFFCURVE",
"198 -42 OFFCURVE",
"284 -54 CURVE",
"279 -58 OFFCURVE",
"274 -63 OFFCURVE",
"267 -71 CURVE SMOOTH",
"253 -87 OFFCURVE",
"244 -109 OFFCURVE",
"244 -127 CURVE SMOOTH",
"244 -158 OFFCURVE",
"287 -189 OFFCURVE",
"287 -213 CURVE SMOOTH",
"287 -274 OFFCURVE",
"238 -261 OFFCURVE",
"200 -270 CURVE",
"197 -270 OFFCURVE",
"192 -272 OFFCURVE",
"192 -276 CURVE SMOOTH",
"192 -280 OFFCURVE",
"195 -285 OFFCURVE",
"200 -285 CURVE SMOOTH"
);
},
{
closed = 1;
nodes = (
"222 492 LINE",
"227 493 LINE",
"221 490 LINE"
);
},
{
closed = 1;
nodes = (
"145 516 OFFCURVE",
"29 524 OFFCURVE",
"29 566 CURVE SMOOTH",
"29 584 OFFCURVE",
"49 600 OFFCURVE",
"61 611 CURVE SMOOTH",
"81 629 OFFCURVE",
"108 644 OFFCURVE",
"132 656 CURVE SMOOTH",
"255 721 OFFCURVE",
"420 761 OFFCURVE",
"558 773 CURVE",
"414 716 OFFCURVE",
"278 631 OFFCURVE",
"173 516 CURVE"
);
},
{
closed = 1;
nodes = (
"1058 695 OFFCURVE",
"1053 701 OFFCURVE",
"1050 704 CURVE SMOOTH",
"998 750 OFFCURVE",
"818 787 OFFCURVE",
"748 797 CURVE",
"772 800 OFFCURVE",
"797 802 OFFCURVE",
"821 802 CURVE SMOOTH",
"889 802 OFFCURVE",
"970 788 OFFCURVE",
"1030 753 CURVE SMOOTH",
"1038 748 OFFCURVE",
"1054 737 OFFCURVE",
"1060 729 CURVE SMOOTH",
"1064 722 OFFCURVE",
"1068 714 OFFCURVE",
"1068 705 CURVE SMOOTH",
"1068 702 OFFCURVE",
"1067 695 OFFCURVE",
"1063 695 CURVE SMOOTH"
);
}
);
width = 1259;
}
);
note = Ccedilla;
unicode = 00C7;
},
{
glyphname = D;
lastChange = "2021-09-15 00:52:07 +0000";
layers = (
{
background = {
paths = (
{
closed = 1;
nodes = (
"735 780 OFFCURVE",
"741 774 OFFCURVE",
"747 774 CURVE SMOOTH",
"760 774 OFFCURVE",
"766 794 OFFCURVE",
"766 803 CURVE SMOOTH",
"766 819 OFFCURVE",
"756 827 OFFCURVE",
"741 827 CURVE SMOOTH",
"709 827 OFFCURVE",
"612 773 OFFCURVE",
"581 754 CURVE",
"508 830 OFFCURVE",
"366 930 OFFCURVE",
"258 930 CURVE SMOOTH",
"146 930 OFFCURVE",
"117 822 OFFCURVE",
"117 730 CURVE SMOOTH",
"117 624 OFFCURVE",
"155 493 OFFCURVE",
"208 400 CURVE",
"136 301 OFFCURVE",
"54 166 OFFCURVE",
"12 49 CURVE SMOOTH",
"7 35 OFFCURVE",
"3 21 OFFCURVE",
"3 7 CURVE SMOOTH",
"3 -19 OFFCURVE",
"19 -33 OFFCURVE",
"44 -33 CURVE SMOOTH",
"68 -33 OFFCURVE",
"93 -22 OFFCURVE",
"112 -8 CURVE SMOOTH",
"136 9 OFFCURVE",
"198 94 OFFCURVE",
"217 121 CURVE",
"265 1 OFFCURVE",
"395 -85 OFFCURVE",
"523 -85 CURVE SMOOTH",
"600 -85 OFFCURVE",
"669 -54 OFFCURVE",
"722 2 CURVE SMOOTH",
"782 66 OFFCURVE",
"804 154 OFFCURVE",
"804 239 CURVE SMOOTH",
"804 414 OFFCURVE",
"717 603 OFFCURVE",
"602 731 CURVE",
"624 747 OFFCURVE",
"714 804 OFFCURVE",
"739 804 CURVE SMOOTH",
"741 804 OFFCURVE",
"742 803 OFFCURVE",
"742 800 CURVE SMOOTH",
"742 798 OFFCURVE",
"735 792 OFFCURVE",
"735 786 CURVE SMOOTH"
);
},
{
closed = 1;
nodes = (
"191 512 OFFCURVE",
"165 624 OFFCURVE",
"165 716 CURVE SMOOTH",
"165 792 OFFCURVE",
"184 897 OFFCURVE",
"281 897 CURVE SMOOTH",
"374 897 OFFCURVE",
"497 807 OFFCURVE",
"557 739 CURVE",
"430 657 OFFCURVE",
"321 548 OFFCURVE",
"229 428 CURVE"
);
},
{
closed = 1;
nodes = (
"681 583 OFFCURVE",
"744 394 OFFCURVE",
"744 227 CURVE SMOOTH",
"744 163 OFFCURVE",
"733 72 OFFCURVE",
"687 23 CURVE SMOOTH",
"639 -27 OFFCURVE",
"576 -57 OFFCURVE",
"506 -57 CURVE SMOOTH",
"385 -57 OFFCURVE",
"270 30 OFFCURVE",
"234 145 CURVE",
"238 152 OFFCURVE",
"253 171 OFFCURVE",
"253 180 CURVE SMOOTH",
"253 194 OFFCURVE",
"234 201 OFFCURVE",
"223 201 CURVE SMOOTH",
"211 201 OFFCURVE",
"201 196 OFFCURVE",
"201 183 CURVE SMOOTH",
"201 172 OFFCURVE",
"204 160 OFFCURVE",
"207 149 CURVE",
"189 123 OFFCURVE",
"120 27 OFFCURVE",
"98 11 CURVE SMOOTH",
"86 2 OFFCURVE",
"60 -11 OFFCURVE",
"46 -11 CURVE SMOOTH",
"38 -11 OFFCURVE",
"35 -9 OFFCURVE",
"35 0 CURVE SMOOTH",
"35 60 OFFCURVE",
"203 300 OFFCURVE",
"240 350 CURVE",
"280 295 OFFCURVE",
"333 242 OFFCURVE",
"394 212 CURVE SMOOTH",
"396 211 OFFCURVE",
"398 210 OFFCURVE",
"400 210 CURVE SMOOTH",
"404 210 OFFCURVE",
"408 214 OFFCURVE",
"408 219 CURVE SMOOTH",
"408 225 OFFCURVE",
"403 228 OFFCURVE",
"399 231 CURVE SMOOTH",
"387 238 OFFCURVE",
"375 244 OFFCURVE",
"364 251 CURVE SMOOTH",
"319 282 OFFCURVE",
"284 326 OFFCURVE",
"257 373 CURVE",
"350 497 OFFCURVE",
"455 619 OFFCURVE",
"578 714 CURVE"
);
},
{
closed = 1;
nodes = (
"224 178 OFFCURVE",
"223 178 OFFCURVE",
"222 178 CURVE",
"225 182 LINE",
"225 177 LINE"
);
}
);
};
layerId = "95C423A7-595F-441F-915A-E5EF8B5EF971";
paths = (
{
closed = 1;
nodes = (
"600 -85 OFFCURVE",
"669 -54 OFFCURVE",
"722 2 CURVE SMOOTH",
"782 66 OFFCURVE",
"804 154 OFFCURVE",
"804 239 CURVE SMOOTH",
"804 414 OFFCURVE",
"717 603 OFFCURVE",
"602 731 CURVE",
"624 747 OFFCURVE",
"714 804 OFFCURVE",
"739 804 CURVE SMOOTH",
"741 804 OFFCURVE",
"742 803 OFFCURVE",
"742 800 CURVE SMOOTH",
"742 798 OFFCURVE",
"735 792 OFFCURVE",
"735 786 CURVE SMOOTH",
"735 780 OFFCURVE",
"741 774 OFFCURVE",
"747 774 CURVE SMOOTH",
"760 774 OFFCURVE",
"766 794 OFFCURVE",
"766 803 CURVE SMOOTH",
"766 819 OFFCURVE",
"756 827 OFFCURVE",
"741 827 CURVE SMOOTH",
"709 827 OFFCURVE",
"612 773 OFFCURVE",
"581 754 CURVE",
"508 830 OFFCURVE",
"366 930 OFFCURVE",
"258 930 CURVE SMOOTH",
"146 930 OFFCURVE",
"117 822 OFFCURVE",
"117 730 CURVE SMOOTH",
"117 624 OFFCURVE",
"155 493 OFFCURVE",
"208 400 CURVE",
"136 301 OFFCURVE",
"54 166 OFFCURVE",
"12 49 CURVE SMOOTH",
"7 35 OFFCURVE",
"3 21 OFFCURVE",
"3 7 CURVE SMOOTH",
"3 -19 OFFCURVE",
"19 -33 OFFCURVE",
"44 -33 CURVE SMOOTH",
"68 -33 OFFCURVE",
"93 -22 OFFCURVE",
"112 -8 CURVE SMOOTH",
"136 9 OFFCURVE",
"198 94 OFFCURVE",
"217 121 CURVE",
"265 1 OFFCURVE",
"395 -85 OFFCURVE",
"523 -85 CURVE SMOOTH"
);
},
{
closed = 1;
nodes = (
"225 177 LINE",
"224 178 OFFCURVE",
"223 178 OFFCURVE",
"222 178 CURVE",
"225 182 LINE"
);
},
{
closed = 1;
nodes = (
"385 -57 OFFCURVE",
"270 30 OFFCURVE",
"234 145 CURVE",
"238 152 OFFCURVE",
"253 171 OFFCURVE",
"253 180 CURVE SMOOTH",
"253 194 OFFCURVE",
"234 201 OFFCURVE",
"223 201 CURVE SMOOTH",
"211 201 OFFCURVE",
"201 196 OFFCURVE",
"201 183 CURVE SMOOTH",
"201 172 OFFCURVE",
"204 160 OFFCURVE",
"207 149 CURVE",
"189 123 OFFCURVE",
"120 27 OFFCURVE",
"98 11 CURVE SMOOTH",
"86 2 OFFCURVE",
"60 -11 OFFCURVE",
"46 -11 CURVE SMOOTH",
"38 -11 OFFCURVE",
"35 -9 OFFCURVE",
"35 0 CURVE SMOOTH",
"35 60 OFFCURVE",
"203 300 OFFCURVE",
"240 350 CURVE",
"280 295 OFFCURVE",
"333 242 OFFCURVE",
"394 212 CURVE SMOOTH",
"396 211 OFFCURVE",
"398 210 OFFCURVE",
"400 210 CURVE SMOOTH",
"404 210 OFFCURVE",
"408 214 OFFCURVE",
"408 219 CURVE SMOOTH",
"408 225 OFFCURVE",
"403 228 OFFCURVE",
"399 231 CURVE SMOOTH",
"387 238 OFFCURVE",
"375 244 OFFCURVE",
"364 251 CURVE SMOOTH",
"319 282 OFFCURVE",
"284 326 OFFCURVE",
"257 373 CURVE",
"350 497 OFFCURVE",
"455 619 OFFCURVE",
"578 714 CURVE",
"681 583 OFFCURVE",
"744 394 OFFCURVE",
"744 227 CURVE SMOOTH",
"744 163 OFFCURVE",
"733 72 OFFCURVE",
"687 23 CURVE SMOOTH",
"639 -27 OFFCURVE",
"576 -57 OFFCURVE",
"506 -57 CURVE SMOOTH"
);
},
{
closed = 1;
nodes = (
"191 512 OFFCURVE",
"165 624 OFFCURVE",
"165 716 CURVE SMOOTH",
"165 792 OFFCURVE",
"184 897 OFFCURVE",
"281 897 CURVE SMOOTH",
"374 897 OFFCURVE",
"497 807 OFFCURVE",
"557 739 CURVE",
"430 657 OFFCURVE",
"321 548 OFFCURVE",
"229 428 CURVE"
);
}
);
width = 826;
}
);
note = D;
unicode = 0044;
},
{
glyphname = E;
lastChange = "2021-09-15 00:52:07 +0000";
layers = (
{
background = {
paths = (
{
closed = 1;
nodes = (
"891 756 OFFCURVE",
"928 765 OFFCURVE",
"928 788 CURVE SMOOTH",
"928 796 OFFCURVE",
"923 802 OFFCURVE",
"918 807 CURVE SMOOTH",
"890 834 OFFCURVE",
"812 844 OFFCURVE",
"775 844 CURVE SMOOTH",
"767 844 OFFCURVE",
"760 844 OFFCURVE",
"752 843 CURVE SMOOTH",
"717 841 OFFCURVE",
"683 834 OFFCURVE",
"650 822 CURVE SMOOTH",
"582 796 OFFCURVE",
"499 735 OFFCURVE",
"499 655 CURVE SMOOTH",
"499 602 OFFCURVE",
"538 563 OFFCURVE",
"581 538 CURVE",
"462 524 OFFCURVE",
"337 490 OFFCURVE",
"232 433 CURVE SMOOTH",
"130 378 OFFCURVE",
"-12 276 OFFCURVE",
"-12 145 CURVE SMOOTH",
"-12 38 OFFCURVE",
"86 -28 OFFCURVE",
"177 -59 CURVE",
"177 -158 OFFCURVE",
"228 -233 OFFCURVE",
"319 -271 CURVE",
"321 -271 OFFCURVE",
"323 -272 OFFCURVE",
"325 -272 CURVE SMOOTH",
"333 -272 OFFCURVE",
"339 -265 OFFCURVE",
"339 -257 CURVE SMOOTH",
"339 -251 OFFCURVE",
"335 -247 OFFCURVE",
"330 -245 CURVE SMOOTH",
"317 -238 OFFCURVE",
"304 -233 OFFCURVE",
"291 -225 CURVE SMOOTH",
"236 -189 OFFCURVE",
"208 -133 OFFCURVE",
"206 -68 CURVE",
"271 -86 OFFCURVE",
"339 -93 OFFCURVE",
"406 -93 CURVE SMOOTH",
"509 -93 OFFCURVE",
"614 -78 OFFCURVE",
"713 -52 CURVE SMOOTH",
"770 -38 OFFCURVE",
"825 -20 OFFCURVE",
"878 5 CURVE SMOOTH",
"988 56 OFFCURVE",
"1128 155 OFFCURVE",
"1143 287 CURVE SMOOTH",
"1144 292 OFFCURVE",
"1144 297 OFFCURVE",
"1144 302 CURVE SMOOTH",
"1144 420 OFFCURVE",
"1022 454 OFFCURVE",
"925 454 CURVE SMOOTH",
"872 454 OFFCURVE",
"819 446 OFFCURVE",
"768 434 CURVE SMOOTH",
"558 383 OFFCURVE",
"303 277 OFFCURVE",
"206 68 CURVE SMOOTH",
"191 35 OFFCURVE",
"181 -1 OFFCURVE",
"178 -38 CURVE",
"108 -12 OFFCURVE",
"49 38 OFFCURVE",
"49 119 CURVE SMOOTH",
"49 237 OFFCURVE",
"170 339 OFFCURVE",
"263 392 CURVE SMOOTH",
"372 455 OFFCURVE",
"512 497 OFFCURVE",
"636 514 CURVE",
"685 500 OFFCURVE",
"741 493 OFFCURVE",
"792 493 CURVE SMOOTH",
"810 493 OFFCURVE",
"876 495 OFFCURVE",
"876 523 CURVE SMOOTH",
"876 551 OFFCURVE",
"756 548 OFFCURVE",
"736 548 CURVE SMOOTH",
"701 548 OFFCURVE",
"666 546 OFFCURVE",
"631 543 CURVE",
"589 566 OFFCURVE",
"553 603 OFFCURVE",
"553 654 CURVE SMOOTH",
"553 753 OFFCURVE",
"668 810 OFFCURVE",
"753 818 CURVE SMOOTH",
"765 819 OFFCURVE",
"778 820 OFFCURVE",
"791 820 CURVE SMOOTH",
"825 820 OFFCURVE",
"867 815 OFFCURVE",
"893 790 CURVE SMOOTH",
"894 789 OFFCURVE",
"895 787 OFFCURVE",
"895 785 CURVE SMOOTH",
"895 763 OFFCURVE",
"851 780 OFFCURVE",
"851 765 CURVE SMOOTH",
"851 757 OFFCURVE",
"868 756 OFFCURVE",
"873 756 CURVE SMOOTH"
);
},
{
closed = 1;
nodes = (
"208 -11 OFFCURVE",
"218 24 OFFCURVE",
"232 56 CURVE SMOOTH",
"320 253 OFFCURVE",
"579 360 OFFCURVE",
"774 406 CURVE SMOOTH",
"825 418 OFFCURVE",
"877 427 OFFCURVE",
"930 427 CURVE SMOOTH",
"1002 427 OFFCURVE",
"1103 406 OFFCURVE",
"1103 315 CURVE SMOOTH",
"1103 306 OFFCURVE",
"1102 297 OFFCURVE",
"1100 289 CURVE SMOOTH",
"1075 175 OFFCURVE",
"933 82 OFFCURVE",
"835 37 CURVE SMOOTH",
"786 15 OFFCURVE",
"734 -3 OFFCURVE",
"682 -16 CURVE SMOOTH",
"576 -44 OFFCURVE",
"465 -64 OFFCURVE",
"355 -64 CURVE SMOOTH",
"305 -64 OFFCURVE",
"254 -60 OFFCURVE",
"206 -46 CURVE"
);
}
);
};
layerId = "95C423A7-595F-441F-915A-E5EF8B5EF971";
paths = (
{
closed = 1;
nodes = (
"333 -272 OFFCURVE",
"339 -265 OFFCURVE",
"339 -257 CURVE SMOOTH",
"339 -251 OFFCURVE",
"335 -247 OFFCURVE",
"330 -245 CURVE SMOOTH",
"317 -238 OFFCURVE",
"304 -233 OFFCURVE",
"291 -225 CURVE SMOOTH",
"236 -189 OFFCURVE",
"208 -133 OFFCURVE",
"206 -68 CURVE",
"271 -86 OFFCURVE",
"339 -93 OFFCURVE",
"406 -93 CURVE SMOOTH",
"509 -93 OFFCURVE",
"614 -78 OFFCURVE",
"713 -52 CURVE SMOOTH",
"770 -38 OFFCURVE",
"825 -20 OFFCURVE",
"878 5 CURVE SMOOTH",
"988 56 OFFCURVE",
"1128 155 OFFCURVE",
"1143 287 CURVE SMOOTH",
"1144 292 OFFCURVE",
"1144 297 OFFCURVE",
"1144 302 CURVE SMOOTH",
"1144 420 OFFCURVE",
"1022 454 OFFCURVE",
"925 454 CURVE SMOOTH",
"872 454 OFFCURVE",
"819 446 OFFCURVE",
"768 434 CURVE SMOOTH",
"558 383 OFFCURVE",
"303 277 OFFCURVE",
"206 68 CURVE SMOOTH",
"191 35 OFFCURVE",
"181 -1 OFFCURVE",
"178 -38 CURVE",
"108 -12 OFFCURVE",
"49 38 OFFCURVE",
"49 119 CURVE SMOOTH",
"49 237 OFFCURVE",
"170 339 OFFCURVE",
"263 392 CURVE SMOOTH",
"372 455 OFFCURVE",
"512 497 OFFCURVE",
"636 514 CURVE",
"685 500 OFFCURVE",
"741 493 OFFCURVE",
"792 493 CURVE SMOOTH",
"810 493 OFFCURVE",
"876 495 OFFCURVE",
"876 523 CURVE SMOOTH",
"876 551 OFFCURVE",
"756 548 OFFCURVE",
"736 548 CURVE SMOOTH",
"701 548 OFFCURVE",
"666 546 OFFCURVE",
"631 543 CURVE",
"589 566 OFFCURVE",
"553 603 OFFCURVE",
"553 654 CURVE SMOOTH",
"553 753 OFFCURVE",
"668 810 OFFCURVE",
"753 818 CURVE SMOOTH",
"765 819 OFFCURVE",
"778 820 OFFCURVE",
"791 820 CURVE SMOOTH",
"825 820 OFFCURVE",
"867 815 OFFCURVE",
"893 790 CURVE SMOOTH",
"894 789 OFFCURVE",
"895 787 OFFCURVE",
"895 785 CURVE SMOOTH",
"895 763 OFFCURVE",
"851 780 OFFCURVE",
"851 765 CURVE SMOOTH",
"851 757 OFFCURVE",
"868 756 OFFCURVE",
"873 756 CURVE SMOOTH",
"891 756 OFFCURVE",
"928 765 OFFCURVE",
"928 788 CURVE SMOOTH",
"928 796 OFFCURVE",
"923 802 OFFCURVE",
"918 807 CURVE SMOOTH",
"890 834 OFFCURVE",
"812 844 OFFCURVE",
"775 844 CURVE SMOOTH",
"767 844 OFFCURVE",
"760 844 OFFCURVE",
"752 843 CURVE SMOOTH",
"717 841 OFFCURVE",
"683 834 OFFCURVE",
"650 822 CURVE SMOOTH",
"582 796 OFFCURVE",
"499 735 OFFCURVE",
"499 655 CURVE SMOOTH",
"499 602 OFFCURVE",
"538 563 OFFCURVE",
"581 538 CURVE",
"462 524 OFFCURVE",
"337 490 OFFCURVE",
"232 433 CURVE SMOOTH",
"130 378 OFFCURVE",
"-12 276 OFFCURVE",
"-12 145 CURVE SMOOTH",
"-12 38 OFFCURVE",
"86 -28 OFFCURVE",
"177 -59 CURVE",
"177 -158 OFFCURVE",
"228 -233 OFFCURVE",
"319 -271 CURVE",
"321 -271 OFFCURVE",
"323 -272 OFFCURVE",
"325 -272 CURVE SMOOTH"
);
},
{
closed = 1;
nodes = (
"305 -64 OFFCURVE",
"254 -60 OFFCURVE",
"206 -46 CURVE",
"208 -11 OFFCURVE",
"218 24 OFFCURVE",
"232 56 CURVE SMOOTH",
"320 253 OFFCURVE",
"579 360 OFFCURVE",
"774 406 CURVE SMOOTH",
"825 418 OFFCURVE",
"877 427 OFFCURVE",
"930 427 CURVE SMOOTH",
"1002 427 OFFCURVE",
"1103 406 OFFCURVE",
"1103 315 CURVE SMOOTH",
"1103 306 OFFCURVE",
"1102 297 OFFCURVE",
"1100 289 CURVE SMOOTH",
"1075 175 OFFCURVE",
"933 82 OFFCURVE",
"835 37 CURVE SMOOTH",
"786 15 OFFCURVE",
"734 -3 OFFCURVE",
"682 -16 CURVE SMOOTH",
"576 -44 OFFCURVE",
"465 -64 OFFCURVE",
"355 -64 CURVE SMOOTH"
);
}
);
width = 1147;
}
);
note = E;
unicode = 0045;
},
{
color = 11;
glyphname = Eacute;
lastChange = "2021-09-15 00:52:07 +0000";
layers = (
{
background = {
paths = (
{
closed = 1;
nodes = (
"798 894 OFFCURVE",
"801 895 OFFCURVE",
"804 897 CURVE SMOOTH",
"850 924 OFFCURVE",
"897 948 OFFCURVE",
"944 973 CURVE SMOOTH",
"956 979 OFFCURVE",
"978 992 OFFCURVE",
"978 1008 CURVE SMOOTH",
"978 1019 OFFCURVE",
"964 1024 OFFCURVE",
"955 1024 CURVE SMOOTH",
"937 1024 OFFCURVE",
"921 1014 OFFCURVE",
"909 1003 CURVE SMOOTH",
"892 988 OFFCURVE",
"789 917 OFFCURVE",
"789 901 CURVE SMOOTH",
"789 897 OFFCURVE",
"791 894 OFFCURVE",
"795 894 CURVE SMOOTH"
);
},
{
closed = 1;
nodes = (
"891 756 OFFCURVE",
"928 765 OFFCURVE",
"928 788 CURVE SMOOTH",
"928 796 OFFCURVE",
"923 802 OFFCURVE",
"918 807 CURVE SMOOTH",
"890 834 OFFCURVE",
"812 844 OFFCURVE",
"775 844 CURVE SMOOTH",
"767 844 OFFCURVE",
"760 844 OFFCURVE",
"752 843 CURVE SMOOTH",
"717 841 OFFCURVE",
"683 834 OFFCURVE",
"650 822 CURVE SMOOTH",
"582 796 OFFCURVE",
"499 735 OFFCURVE",
"499 655 CURVE SMOOTH",
"499 602 OFFCURVE",
"538 563 OFFCURVE",
"581 538 CURVE",
"462 524 OFFCURVE",
"337 490 OFFCURVE",
"232 433 CURVE SMOOTH",
"130 378 OFFCURVE",
"-12 276 OFFCURVE",
"-12 145 CURVE SMOOTH",
"-12 38 OFFCURVE",
"86 -28 OFFCURVE",
"177 -59 CURVE",
"177 -158 OFFCURVE",
"228 -233 OFFCURVE",
"319 -271 CURVE",
"321 -271 OFFCURVE",
"323 -272 OFFCURVE",
"325 -272 CURVE SMOOTH",
"333 -272 OFFCURVE",
"339 -265 OFFCURVE",
"339 -257 CURVE SMOOTH",
"339 -251 OFFCURVE",
"335 -247 OFFCURVE",
"330 -245 CURVE SMOOTH",
"317 -238 OFFCURVE",
"304 -233 OFFCURVE",
"291 -225 CURVE SMOOTH",
"236 -189 OFFCURVE",
"208 -133 OFFCURVE",
"206 -68 CURVE",
"271 -86 OFFCURVE",
"339 -93 OFFCURVE",
"406 -93 CURVE SMOOTH",
"509 -93 OFFCURVE",
"614 -78 OFFCURVE",
"713 -52 CURVE SMOOTH",
"770 -38 OFFCURVE",
"825 -20 OFFCURVE",
"878 5 CURVE SMOOTH",
"988 56 OFFCURVE",
"1128 155 OFFCURVE",
"1143 287 CURVE SMOOTH",
"1144 292 OFFCURVE",
"1144 297 OFFCURVE",
"1144 302 CURVE SMOOTH",
"1144 420 OFFCURVE",
"1022 454 OFFCURVE",
"925 454 CURVE SMOOTH",
"872 454 OFFCURVE",
"819 446 OFFCURVE",
"768 434 CURVE SMOOTH",
"558 383 OFFCURVE",
"303 277 OFFCURVE",
"206 68 CURVE SMOOTH",
"191 35 OFFCURVE",
"181 -1 OFFCURVE",
"178 -38 CURVE",
"108 -12 OFFCURVE",
"49 38 OFFCURVE",
"49 119 CURVE SMOOTH",
"49 237 OFFCURVE",
"170 339 OFFCURVE",
"263 392 CURVE SMOOTH",
"372 455 OFFCURVE",
"512 497 OFFCURVE",
"636 514 CURVE",
"685 500 OFFCURVE",
"741 493 OFFCURVE",
"792 493 CURVE SMOOTH",
"810 493 OFFCURVE",
"876 495 OFFCURVE",
"876 523 CURVE SMOOTH",
"876 551 OFFCURVE",
"756 548 OFFCURVE",
"736 548 CURVE SMOOTH",
"701 548 OFFCURVE",
"666 546 OFFCURVE",
"631 543 CURVE",
"589 566 OFFCURVE",
"553 603 OFFCURVE",
"553 654 CURVE SMOOTH",
"553 753 OFFCURVE",
"668 810 OFFCURVE",
"753 818 CURVE SMOOTH",
"765 819 OFFCURVE",
"778 820 OFFCURVE",
"791 820 CURVE SMOOTH",
"825 820 OFFCURVE",
"867 815 OFFCURVE",
"893 790 CURVE SMOOTH",
"894 789 OFFCURVE",
"895 787 OFFCURVE",
"895 785 CURVE SMOOTH",
"895 763 OFFCURVE",
"851 780 OFFCURVE",
"851 765 CURVE SMOOTH",
"851 757 OFFCURVE",
"868 756 OFFCURVE",
"873 756 CURVE SMOOTH"
);
},
{
closed = 1;
nodes = (
"208 -11 OFFCURVE",
"218 24 OFFCURVE",
"232 56 CURVE SMOOTH",
"320 253 OFFCURVE",
"579 360 OFFCURVE",
"774 406 CURVE SMOOTH",
"825 418 OFFCURVE",
"877 427 OFFCURVE",
"930 427 CURVE SMOOTH",
"1002 427 OFFCURVE",
"1103 406 OFFCURVE",
"1103 315 CURVE SMOOTH",
"1103 306 OFFCURVE",
"1102 297 OFFCURVE",
"1100 289 CURVE SMOOTH",
"1075 175 OFFCURVE",
"933 82 OFFCURVE",
"835 37 CURVE SMOOTH",
"786 15 OFFCURVE",
"734 -3 OFFCURVE",
"682 -16 CURVE SMOOTH",
"576 -44 OFFCURVE",
"465 -64 OFFCURVE",
"355 -64 CURVE SMOOTH",
"305 -64 OFFCURVE",
"254 -60 OFFCURVE",
"206 -46 CURVE"
);
}
);
};
layerId = "95C423A7-595F-441F-915A-E5EF8B5EF971";
paths = (
{
closed = 1;
nodes = (
"333 -272 OFFCURVE",
"339 -265 OFFCURVE",
"339 -257 CURVE SMOOTH",
"339 -251 OFFCURVE",
"335 -247 OFFCURVE",
"330 -245 CURVE SMOOTH",
"317 -238 OFFCURVE",
"304 -233 OFFCURVE",
"291 -225 CURVE SMOOTH",
"236 -189 OFFCURVE",
"208 -133 OFFCURVE",
"206 -68 CURVE",
"271 -86 OFFCURVE",
"339 -93 OFFCURVE",
"406 -93 CURVE SMOOTH",
"509 -93 OFFCURVE",
"614 -78 OFFCURVE",
"713 -52 CURVE SMOOTH",
"770 -38 OFFCURVE",
"825 -20 OFFCURVE",
"878 5 CURVE SMOOTH",
"988 56 OFFCURVE",
"1128 155 OFFCURVE",
"1143 287 CURVE SMOOTH",
"1144 292 OFFCURVE",
"1144 297 OFFCURVE",
"1144 302 CURVE SMOOTH",
"1144 420 OFFCURVE",
"1022 454 OFFCURVE",
"925 454 CURVE SMOOTH",
"872 454 OFFCURVE",
"819 446 OFFCURVE",
"768 434 CURVE SMOOTH",
"558 383 OFFCURVE",
"303 277 OFFCURVE",
"206 68 CURVE SMOOTH",
"191 35 OFFCURVE",
"181 -1 OFFCURVE",
"178 -38 CURVE",
"108 -12 OFFCURVE",
"49 38 OFFCURVE",
"49 119 CURVE SMOOTH",
"49 237 OFFCURVE",
"170 339 OFFCURVE",
"263 392 CURVE SMOOTH",
"372 455 OFFCURVE",
"512 497 OFFCURVE",
"636 514 CURVE",
"685 500 OFFCURVE",
"741 493 OFFCURVE",
"792 493 CURVE SMOOTH",
"810 493 OFFCURVE",
"876 495 OFFCURVE",
"876 523 CURVE SMOOTH",
"876 551 OFFCURVE",
"756 548 OFFCURVE",
"736 548 CURVE SMOOTH",
"701 548 OFFCURVE",
"666 546 OFFCURVE",
"631 543 CURVE",
"589 566 OFFCURVE",
"553 603 OFFCURVE",
"553 654 CURVE SMOOTH",
"553 753 OFFCURVE",
"668 810 OFFCURVE",
"753 818 CURVE SMOOTH",
"765 819 OFFCURVE",
"778 820 OFFCURVE",
"791 820 CURVE SMOOTH",
"825 820 OFFCURVE",
"867 815 OFFCURVE",
"893 790 CURVE SMOOTH",
"894 789 OFFCURVE",
"895 787 OFFCURVE",
"895 785 CURVE SMOOTH",
"895 763 OFFCURVE",
"851 780 OFFCURVE",
"851 765 CURVE SMOOTH",
"851 757 OFFCURVE",
"868 756 OFFCURVE",
"873 756 CURVE SMOOTH",
"891 756 OFFCURVE",
"928 765 OFFCURVE",
"928 788 CURVE SMOOTH",
"928 796 OFFCURVE",
"923 802 OFFCURVE",
"918 807 CURVE SMOOTH",
"890 834 OFFCURVE",
"812 844 OFFCURVE",
"775 844 CURVE SMOOTH",
"767 844 OFFCURVE",
"760 844 OFFCURVE",
"752 843 CURVE SMOOTH",
"717 841 OFFCURVE",
"683 834 OFFCURVE",
"650 822 CURVE SMOOTH",
"582 796 OFFCURVE",
"499 735 OFFCURVE",
"499 655 CURVE SMOOTH",
"499 602 OFFCURVE",
"538 563 OFFCURVE",
"581 538 CURVE",
"462 524 OFFCURVE",
"337 490 OFFCURVE",
"232 433 CURVE SMOOTH",
"130 378 OFFCURVE",
"-12 276 OFFCURVE",
"-12 145 CURVE SMOOTH",
"-12 38 OFFCURVE",
"86 -28 OFFCURVE",
"177 -59 CURVE",
"177 -158 OFFCURVE",
"228 -233 OFFCURVE",
"319 -271 CURVE",
"321 -271 OFFCURVE",
"323 -272 OFFCURVE",
"325 -272 CURVE SMOOTH"
);
},
{
closed = 1;
nodes = (
"305 -64 OFFCURVE",
"254 -60 OFFCURVE",
"206 -46 CURVE",
"208 -11 OFFCURVE",
"218 24 OFFCURVE",
"232 56 CURVE SMOOTH",
"320 253 OFFCURVE",
"579 360 OFFCURVE",
"774 406 CURVE SMOOTH",
"825 418 OFFCURVE",
"877 427 OFFCURVE",
"930 427 CURVE SMOOTH",
"1002 427 OFFCURVE",
"1103 406 OFFCURVE",
"1103 315 CURVE SMOOTH",
"1103 306 OFFCURVE",
"1102 297 OFFCURVE",
"1100 289 CURVE SMOOTH",
"1075 175 OFFCURVE",
"933 82 OFFCURVE",
"835 37 CURVE SMOOTH",
"786 15 OFFCURVE",
"734 -3 OFFCURVE",
"682 -16 CURVE SMOOTH",
"576 -44 OFFCURVE",
"465 -64 OFFCURVE",
"355 -64 CURVE SMOOTH"
);
},
{
closed = 1;
nodes = (
"798 894 OFFCURVE",
"801 895 OFFCURVE",
"804 897 CURVE SMOOTH",
"850 924 OFFCURVE",
"897 948 OFFCURVE",
"944 973 CURVE SMOOTH",
"956 979 OFFCURVE",
"978 992 OFFCURVE",
"978 1008 CURVE SMOOTH",
"978 1019 OFFCURVE",
"964 1024 OFFCURVE",
"955 1024 CURVE SMOOTH",
"937 1024 OFFCURVE",
"921 1014 OFFCURVE",
"909 1003 CURVE SMOOTH",
"892 988 OFFCURVE",
"789 917 OFFCURVE",
"789 901 CURVE SMOOTH",
"789 897 OFFCURVE",
"791 894 OFFCURVE",
"795 894 CURVE SMOOTH"
);
}
);
width = 1147;
}
);
note = Eacute;
unicode = 00C9;
},
{
color = 11;
glyphname = Edieresis;
lastChange = "2021-09-15 00:52:07 +0000";
layers = (
{
background = {
paths = (
{
closed = 1;
nodes = (
"857 985 LINE SMOOTH",
"857 987 OFFCURVE",
"855 987 OFFCURVE",
"854 987 CURVE SMOOTH",
"835 987 OFFCURVE",
"778 951 OFFCURVE",
"778 929 CURVE SMOOTH",
"778 920 OFFCURVE",
"789 900 OFFCURVE",
"799 900 CURVE SMOOTH",
"815 900 OFFCURVE",
"825 921 OFFCURVE",
"828 933 CURVE SMOOTH",
"832 945 OFFCURVE",
"836 957 OFFCURVE",
"843 967 CURVE SMOOTH",
"845 970 OFFCURVE",
"857 983 OFFCURVE",
"857 984 CURVE SMOOTH",
"857 986 LINE"
);
},
{
closed = 1;
nodes = (
"978 985 LINE SMOOTH",
"978 987 OFFCURVE",
"976 987 OFFCURVE",
"975 987 CURVE SMOOTH",
"956 987 OFFCURVE",
"899 951 OFFCURVE",
"899 929 CURVE SMOOTH",
"899 920 OFFCURVE",
"910 900 OFFCURVE",
"920 900 CURVE SMOOTH",
"936 900 OFFCURVE",
"946 921 OFFCURVE",
"949 933 CURVE SMOOTH",
"953 945 OFFCURVE",
"957 957 OFFCURVE",
"964 967 CURVE SMOOTH",
"966 970 OFFCURVE",
"978 983 OFFCURVE",
"978 984 CURVE SMOOTH",
"978 986 LINE"
);
},
{
closed = 1;
nodes = (
"891 756 OFFCURVE",
"928 765 OFFCURVE",
"928 788 CURVE SMOOTH",
"928 796 OFFCURVE",
"923 802 OFFCURVE",
"918 807 CURVE SMOOTH",
"890 834 OFFCURVE",
"812 844 OFFCURVE",
"775 844 CURVE SMOOTH",
"767 844 OFFCURVE",
"760 844 OFFCURVE",
"752 843 CURVE SMOOTH",
"717 841 OFFCURVE",
"683 834 OFFCURVE",
"650 822 CURVE SMOOTH",
"582 796 OFFCURVE",
"499 735 OFFCURVE",
"499 655 CURVE SMOOTH",
"499 602 OFFCURVE",
"538 563 OFFCURVE",
"581 538 CURVE",
"462 524 OFFCURVE",
"337 490 OFFCURVE",
"232 433 CURVE SMOOTH",
"130 378 OFFCURVE",
"-12 276 OFFCURVE",
"-12 145 CURVE SMOOTH",
"-12 38 OFFCURVE",
"86 -28 OFFCURVE",
"177 -59 CURVE",
"177 -158 OFFCURVE",
"228 -233 OFFCURVE",
"319 -271 CURVE",
"321 -271 OFFCURVE",
"323 -272 OFFCURVE",
"325 -272 CURVE SMOOTH",
"333 -272 OFFCURVE",
"339 -265 OFFCURVE",
"339 -257 CURVE SMOOTH",
"339 -251 OFFCURVE",
"335 -247 OFFCURVE",
"330 -245 CURVE SMOOTH",
"317 -238 OFFCURVE",
"304 -233 OFFCURVE",
"291 -225 CURVE SMOOTH",
"236 -189 OFFCURVE",
"208 -133 OFFCURVE",
"206 -68 CURVE",
"271 -86 OFFCURVE",
"339 -93 OFFCURVE",
"406 -93 CURVE SMOOTH",
"509 -93 OFFCURVE",
"614 -78 OFFCURVE",
"713 -52 CURVE SMOOTH",
"770 -38 OFFCURVE",
"825 -20 OFFCURVE",
"878 5 CURVE SMOOTH",
"988 56 OFFCURVE",
"1128 155 OFFCURVE",
"1143 287 CURVE SMOOTH",
"1144 292 OFFCURVE",
"1144 297 OFFCURVE",
"1144 302 CURVE SMOOTH",
"1144 420 OFFCURVE",
"1022 454 OFFCURVE",
"925 454 CURVE SMOOTH",
"872 454 OFFCURVE",
"819 446 OFFCURVE",
"768 434 CURVE SMOOTH",
"558 383 OFFCURVE",
"303 277 OFFCURVE",
"206 68 CURVE SMOOTH",
"191 35 OFFCURVE",
"181 -1 OFFCURVE",
"178 -38 CURVE",
"108 -12 OFFCURVE",
"49 38 OFFCURVE",
"49 119 CURVE SMOOTH",
"49 237 OFFCURVE",
"170 339 OFFCURVE",
"263 392 CURVE SMOOTH",
"372 455 OFFCURVE",
"512 497 OFFCURVE",
"636 514 CURVE",
"685 500 OFFCURVE",
"741 493 OFFCURVE",
"792 493 CURVE SMOOTH",
"810 493 OFFCURVE",
"876 495 OFFCURVE",
"876 523 CURVE SMOOTH",
"876 551 OFFCURVE",
"756 548 OFFCURVE",
"736 548 CURVE SMOOTH",
"701 548 OFFCURVE",
"666 546 OFFCURVE",
"631 543 CURVE",
"589 566 OFFCURVE",
"553 603 OFFCURVE",
"553 654 CURVE SMOOTH",
"553 753 OFFCURVE",
"668 810 OFFCURVE",
"753 818 CURVE SMOOTH",
"765 819 OFFCURVE",
"778 820 OFFCURVE",
"791 820 CURVE SMOOTH",
"825 820 OFFCURVE",
"867 815 OFFCURVE",
"893 790 CURVE SMOOTH",
"894 789 OFFCURVE",
"895 787 OFFCURVE",
"895 785 CURVE SMOOTH",
"895 763 OFFCURVE",
"851 780 OFFCURVE",
"851 765 CURVE SMOOTH",
"851 757 OFFCURVE",
"868 756 OFFCURVE",
"873 756 CURVE SMOOTH"
);
},
{
closed = 1;
nodes = (
"208 -11 OFFCURVE",
"218 24 OFFCURVE",
"232 56 CURVE SMOOTH",
"320 253 OFFCURVE",
"579 360 OFFCURVE",
"774 406 CURVE SMOOTH",
"825 418 OFFCURVE",
"877 427 OFFCURVE",
"930 427 CURVE SMOOTH",
"1002 427 OFFCURVE",
"1103 406 OFFCURVE",
"1103 315 CURVE SMOOTH",
"1103 306 OFFCURVE",
"1102 297 OFFCURVE",
"1100 289 CURVE SMOOTH",
"1075 175 OFFCURVE",
"933 82 OFFCURVE",
"835 37 CURVE SMOOTH",
"786 15 OFFCURVE",
"734 -3 OFFCURVE",
"682 -16 CURVE SMOOTH",
"576 -44 OFFCURVE",
"465 -64 OFFCURVE",
"355 -64 CURVE SMOOTH",
"305 -64 OFFCURVE",
"254 -60 OFFCURVE",
"206 -46 CURVE"
);
}
);
};
layerId = "95C423A7-595F-441F-915A-E5EF8B5EF971";
paths = (
{
closed = 1;
nodes = (
"333 -272 OFFCURVE",
"339 -265 OFFCURVE",
"339 -257 CURVE SMOOTH",
"339 -251 OFFCURVE",
"335 -247 OFFCURVE",
"330 -245 CURVE SMOOTH",
"317 -238 OFFCURVE",
"304 -233 OFFCURVE",
"291 -225 CURVE SMOOTH",
"236 -189 OFFCURVE",
"208 -133 OFFCURVE",
"206 -68 CURVE",
"271 -86 OFFCURVE",
"339 -93 OFFCURVE",
"406 -93 CURVE SMOOTH",
"509 -93 OFFCURVE",
"614 -78 OFFCURVE",
"713 -52 CURVE SMOOTH",
"770 -38 OFFCURVE",
"825 -20 OFFCURVE",
"878 5 CURVE SMOOTH",
"988 56 OFFCURVE",
"1128 155 OFFCURVE",
"1143 287 CURVE SMOOTH",
"1144 292 OFFCURVE",
"1144 297 OFFCURVE",
"1144 302 CURVE SMOOTH",
"1144 420 OFFCURVE",
"1022 454 OFFCURVE",
"925 454 CURVE SMOOTH",
"872 454 OFFCURVE",
"819 446 OFFCURVE",
"768 434 CURVE SMOOTH",
"558 383 OFFCURVE",
"303 277 OFFCURVE",
"206 68 CURVE SMOOTH",
"191 35 OFFCURVE",
"181 -1 OFFCURVE",
"178 -38 CURVE",
"108 -12 OFFCURVE",
"49 38 OFFCURVE",
"49 119 CURVE SMOOTH",
"49 237 OFFCURVE",
"170 339 OFFCURVE",
"263 392 CURVE SMOOTH",
"372 455 OFFCURVE",
"512 497 OFFCURVE",
"636 514 CURVE",
"685 500 OFFCURVE",
"741 493 OFFCURVE",
"792 493 CURVE SMOOTH",
"810 493 OFFCURVE",
"876 495 OFFCURVE",
"876 523 CURVE SMOOTH",
"876 551 OFFCURVE",
"756 548 OFFCURVE",
"736 548 CURVE SMOOTH",
"701 548 OFFCURVE",
"666 546 OFFCURVE",
"631 543 CURVE",
"589 566 OFFCURVE",
"553 603 OFFCURVE",
"553 654 CURVE SMOOTH",
"553 753 OFFCURVE",
"668 810 OFFCURVE",
"753 818 CURVE SMOOTH",
"765 819 OFFCURVE",
"778 820 OFFCURVE",
"791 820 CURVE SMOOTH",
"825 820 OFFCURVE",
"867 815 OFFCURVE",
"893 790 CURVE SMOOTH",
"894 789 OFFCURVE",
"895 787 OFFCURVE",
"895 785 CURVE SMOOTH",
"895 763 OFFCURVE",
"851 780 OFFCURVE",
"851 765 CURVE SMOOTH",
"851 757 OFFCURVE",
"868 756 OFFCURVE",
"873 756 CURVE SMOOTH",
"891 756 OFFCURVE",
"928 765 OFFCURVE",
"928 788 CURVE SMOOTH",
"928 796 OFFCURVE",
"923 802 OFFCURVE",
"918 807 CURVE SMOOTH",
"890 834 OFFCURVE",
"812 844 OFFCURVE",
"775 844 CURVE SMOOTH",
"767 844 OFFCURVE",
"760 844 OFFCURVE",
"752 843 CURVE SMOOTH",
"717 841 OFFCURVE",
"683 834 OFFCURVE",
"650 822 CURVE SMOOTH",
"582 796 OFFCURVE",
"499 735 OFFCURVE",
"499 655 CURVE SMOOTH",
"499 602 OFFCURVE",
"538 563 OFFCURVE",
"581 538 CURVE",
"462 524 OFFCURVE",
"337 490 OFFCURVE",
"232 433 CURVE SMOOTH",
"130 378 OFFCURVE",
"-12 276 OFFCURVE",
"-12 145 CURVE SMOOTH",
"-12 38 OFFCURVE",
"86 -28 OFFCURVE",
"177 -59 CURVE",
"177 -158 OFFCURVE",
"228 -233 OFFCURVE",
"319 -271 CURVE",
"321 -271 OFFCURVE",
"323 -272 OFFCURVE",
"325 -272 CURVE SMOOTH"
);
},
{
closed = 1;
nodes = (
"305 -64 OFFCURVE",
"254 -60 OFFCURVE",
"206 -46 CURVE",
"208 -11 OFFCURVE",
"218 24 OFFCURVE",
"232 56 CURVE SMOOTH",
"320 253 OFFCURVE",
"579 360 OFFCURVE",
"774 406 CURVE SMOOTH",
"825 418 OFFCURVE",
"877 427 OFFCURVE",
"930 427 CURVE SMOOTH",
"1002 427 OFFCURVE",
"1103 406 OFFCURVE",
"1103 315 CURVE SMOOTH",
"1103 306 OFFCURVE",
"1102 297 OFFCURVE",
"1100 289 CURVE SMOOTH",
"1075 175 OFFCURVE",
"933 82 OFFCURVE",
"835 37 CURVE SMOOTH",
"786 15 OFFCURVE",
"734 -3 OFFCURVE",
"682 -16 CURVE SMOOTH",
"576 -44 OFFCURVE",
"465 -64 OFFCURVE",
"355 -64 CURVE SMOOTH"
);
},
{
closed = 1;
nodes = (
"815 900 OFFCURVE",
"825 921 OFFCURVE",
"828 933 CURVE SMOOTH",
"832 945 OFFCURVE",
"836 957 OFFCURVE",
"843 967 CURVE SMOOTH",
"845 970 OFFCURVE",
"857 983 OFFCURVE",
"857 984 CURVE SMOOTH",
"857 985 LINE SMOOTH",
"857 987 OFFCURVE",
"855 987 OFFCURVE",
"854 987 CURVE SMOOTH",
"835 987 OFFCURVE",
"778 951 OFFCURVE",
"778 929 CURVE SMOOTH",
"778 920 OFFCURVE",
"789 900 OFFCURVE",
"799 900 CURVE SMOOTH"
);
},
{
closed = 1;
nodes = (
"936 900 OFFCURVE",
"946 921 OFFCURVE",
"949 933 CURVE SMOOTH",
"953 945 OFFCURVE",
"957 957 OFFCURVE",
"964 967 CURVE SMOOTH",
"966 970 OFFCURVE",
"978 983 OFFCURVE",
"978 984 CURVE SMOOTH",
"978 985 LINE SMOOTH",
"978 987 OFFCURVE",
"976 987 OFFCURVE",
"975 987 CURVE SMOOTH",
"956 987 OFFCURVE",
"899 951 OFFCURVE",
"899 929 CURVE SMOOTH",
"899 920 OFFCURVE",
"910 900 OFFCURVE",
"920 900 CURVE SMOOTH"
);
}
);
width = 1147;
}
);
note = Edieresis;
unicode = 00CB;
},
{
color = 11;
glyphname = Egrave;
lastChange = "2021-09-15 00:52:07 +0000";
layers = (
{
background = {
paths = (
{
closed = 1;
nodes = (
"931 887 OFFCURVE",
"933 890 OFFCURVE",
"933 894 CURVE SMOOTH",
"933 910 OFFCURVE",
"830 981 OFFCURVE",
"813 996 CURVE SMOOTH",
"801 1007 OFFCURVE",
"785 1017 OFFCURVE",
"767 1017 CURVE SMOOTH",
"758 1017 OFFCURVE",
"744 1012 OFFCURVE",
"744 1001 CURVE SMOOTH",
"744 985 OFFCURVE",
"766 972 OFFCURVE",
"778 966 CURVE SMOOTH",
"825 941 OFFCURVE",
"872 917 OFFCURVE",
"918 890 CURVE SMOOTH",
"921 888 OFFCURVE",
"924 887 OFFCURVE",
"927 887 CURVE SMOOTH"
);
},
{
closed = 1;
nodes = (
"891 756 OFFCURVE",
"928 765 OFFCURVE",
"928 788 CURVE SMOOTH",
"928 796 OFFCURVE",
"923 802 OFFCURVE",
"918 807 CURVE SMOOTH",
"890 834 OFFCURVE",
"812 844 OFFCURVE",
"775 844 CURVE SMOOTH",
"767 844 OFFCURVE",
"760 844 OFFCURVE",
"752 843 CURVE SMOOTH",
"717 841 OFFCURVE",
"683 834 OFFCURVE",
"650 822 CURVE SMOOTH",
"582 796 OFFCURVE",
"499 735 OFFCURVE",
"499 655 CURVE SMOOTH",
"499 602 OFFCURVE",
"538 563 OFFCURVE",
"581 538 CURVE",
"462 524 OFFCURVE",
"337 490 OFFCURVE",
"232 433 CURVE SMOOTH",
"130 378 OFFCURVE",
"-12 276 OFFCURVE",
"-12 145 CURVE SMOOTH",
"-12 38 OFFCURVE",
"86 -28 OFFCURVE",
"177 -59 CURVE",
"177 -158 OFFCURVE",
"228 -233 OFFCURVE",
"319 -271 CURVE",
"321 -271 OFFCURVE",
"323 -272 OFFCURVE",
"325 -272 CURVE SMOOTH",
"333 -272 OFFCURVE",
"339 -265 OFFCURVE",
"339 -257 CURVE SMOOTH",
"339 -251 OFFCURVE",
"335 -247 OFFCURVE",
"330 -245 CURVE SMOOTH",
"317 -238 OFFCURVE",
"304 -233 OFFCURVE",
"291 -225 CURVE SMOOTH",
"236 -189 OFFCURVE",
"208 -133 OFFCURVE",
"206 -68 CURVE",
"271 -86 OFFCURVE",
"339 -93 OFFCURVE",
"406 -93 CURVE SMOOTH",
"509 -93 OFFCURVE",
"614 -78 OFFCURVE",
"713 -52 CURVE SMOOTH",
"770 -38 OFFCURVE",
"825 -20 OFFCURVE",
"878 5 CURVE SMOOTH",
"988 56 OFFCURVE",
"1128 155 OFFCURVE",
"1143 287 CURVE SMOOTH",
"1144 292 OFFCURVE",
"1144 297 OFFCURVE",
"1144 302 CURVE SMOOTH",
"1144 420 OFFCURVE",
"1022 454 OFFCURVE",
"925 454 CURVE SMOOTH",
"872 454 OFFCURVE",
"819 446 OFFCURVE",
"768 434 CURVE SMOOTH",
"558 383 OFFCURVE",
"303 277 OFFCURVE",
"206 68 CURVE SMOOTH",
"191 35 OFFCURVE",
"181 -1 OFFCURVE",
"178 -38 CURVE",
"108 -12 OFFCURVE",
"49 38 OFFCURVE",
"49 119 CURVE SMOOTH",
"49 237 OFFCURVE",
"170 339 OFFCURVE",
"263 392 CURVE SMOOTH",
"372 455 OFFCURVE",
"512 497 OFFCURVE",
"636 514 CURVE",
"685 500 OFFCURVE",
"741 493 OFFCURVE",
"792 493 CURVE SMOOTH",
"810 493 OFFCURVE",
"876 495 OFFCURVE",
"876 523 CURVE SMOOTH",
"876 551 OFFCURVE",
"756 548 OFFCURVE",
"736 548 CURVE SMOOTH",
"701 548 OFFCURVE",
"666 546 OFFCURVE",
"631 543 CURVE",
"589 566 OFFCURVE",
"553 603 OFFCURVE",
"553 654 CURVE SMOOTH",
"553 753 OFFCURVE",
"668 810 OFFCURVE",
"753 818 CURVE SMOOTH",
"765 819 OFFCURVE",
"778 820 OFFCURVE",
"791 820 CURVE SMOOTH",
"825 820 OFFCURVE",
"867 815 OFFCURVE",
"893 790 CURVE SMOOTH",
"894 789 OFFCURVE",
"895 787 OFFCURVE",
"895 785 CURVE SMOOTH",
"895 763 OFFCURVE",
"851 780 OFFCURVE",
"851 765 CURVE SMOOTH",
"851 757 OFFCURVE",
"868 756 OFFCURVE",
"873 756 CURVE SMOOTH"
);
},
{
closed = 1;
nodes = (
"208 -11 OFFCURVE",
"218 24 OFFCURVE",
"232 56 CURVE SMOOTH",
"320 253 OFFCURVE",
"579 360 OFFCURVE",
"774 406 CURVE SMOOTH",
"825 418 OFFCURVE",
"877 427 OFFCURVE",
"930 427 CURVE SMOOTH",
"1002 427 OFFCURVE",
"1103 406 OFFCURVE",
"1103 315 CURVE SMOOTH",
"1103 306 OFFCURVE",
"1102 297 OFFCURVE",
"1100 289 CURVE SMOOTH",
"1075 175 OFFCURVE",
"933 82 OFFCURVE",
"835 37 CURVE SMOOTH",
"786 15 OFFCURVE",
"734 -3 OFFCURVE",
"682 -16 CURVE SMOOTH",
"576 -44 OFFCURVE",
"465 -64 OFFCURVE",
"355 -64 CURVE SMOOTH",
"305 -64 OFFCURVE",
"254 -60 OFFCURVE",
"206 -46 CURVE"
);
}
);
};
layerId = "95C423A7-595F-441F-915A-E5EF8B5EF971";
paths = (
{
closed = 1;
nodes = (
"333 -272 OFFCURVE",
"339 -265 OFFCURVE",
"339 -257 CURVE SMOOTH",
"339 -251 OFFCURVE",
"335 -247 OFFCURVE",
"330 -245 CURVE SMOOTH",
"317 -238 OFFCURVE",
"304 -233 OFFCURVE",
"291 -225 CURVE SMOOTH",
"236 -189 OFFCURVE",
"208 -133 OFFCURVE",
"206 -68 CURVE",
"271 -86 OFFCURVE",
"339 -93 OFFCURVE",
"406 -93 CURVE SMOOTH",
"509 -93 OFFCURVE",
"614 -78 OFFCURVE",
"713 -52 CURVE SMOOTH",
"770 -38 OFFCURVE",
"825 -20 OFFCURVE",
"878 5 CURVE SMOOTH",
"988 56 OFFCURVE",
"1128 155 OFFCURVE",
"1143 287 CURVE SMOOTH",
"1144 292 OFFCURVE",
"1144 297 OFFCURVE",
"1144 302 CURVE SMOOTH",
"1144 420 OFFCURVE",
"1022 454 OFFCURVE",
"925 454 CURVE SMOOTH",
"872 454 OFFCURVE",
"819 446 OFFCURVE",
"768 434 CURVE SMOOTH",
"558 383 OFFCURVE",
"303 277 OFFCURVE",
"206 68 CURVE SMOOTH",
"191 35 OFFCURVE",
"181 -1 OFFCURVE",
"178 -38 CURVE",
"108 -12 OFFCURVE",
"49 38 OFFCURVE",
"49 119 CURVE SMOOTH",
"49 237 OFFCURVE",
"170 339 OFFCURVE",
"263 392 CURVE SMOOTH",
"372 455 OFFCURVE",
"512 497 OFFCURVE",
"636 514 CURVE",
"685 500 OFFCURVE",
"741 493 OFFCURVE",
"792 493 CURVE SMOOTH",
"810 493 OFFCURVE",
"876 495 OFFCURVE",
"876 523 CURVE SMOOTH",
"876 551 OFFCURVE",
"756 548 OFFCURVE",
"736 548 CURVE SMOOTH",
"701 548 OFFCURVE",
"666 546 OFFCURVE",
"631 543 CURVE",
"589 566 OFFCURVE",
"553 603 OFFCURVE",
"553 654 CURVE SMOOTH",
"553 753 OFFCURVE",
"668 810 OFFCURVE",
"753 818 CURVE SMOOTH",
"765 819 OFFCURVE",
"778 820 OFFCURVE",
"791 820 CURVE SMOOTH",
"825 820 OFFCURVE",
"867 815 OFFCURVE",
"893 790 CURVE SMOOTH",
"894 789 OFFCURVE",
"895 787 OFFCURVE",
"895 785 CURVE SMOOTH",
"895 763 OFFCURVE",
"851 780 OFFCURVE",
"851 765 CURVE SMOOTH",
"851 757 OFFCURVE",
"868 756 OFFCURVE",
"873 756 CURVE SMOOTH",
"891 756 OFFCURVE",
"928 765 OFFCURVE",
"928 788 CURVE SMOOTH",
"928 796 OFFCURVE",
"923 802 OFFCURVE",
"918 807 CURVE SMOOTH",
"890 834 OFFCURVE",
"812 844 OFFCURVE",
"775 844 CURVE SMOOTH",
"767 844 OFFCURVE",
"760 844 OFFCURVE",
"752 843 CURVE SMOOTH",
"717 841 OFFCURVE",
"683 834 OFFCURVE",
"650 822 CURVE SMOOTH",
"582 796 OFFCURVE",
"499 735 OFFCURVE",
"499 655 CURVE SMOOTH",
"499 602 OFFCURVE",
"538 563 OFFCURVE",
"581 538 CURVE",
"462 524 OFFCURVE",
"337 490 OFFCURVE",
"232 433 CURVE SMOOTH",
"130 378 OFFCURVE",
"-12 276 OFFCURVE",
"-12 145 CURVE SMOOTH",
"-12 38 OFFCURVE",
"86 -28 OFFCURVE",
"177 -59 CURVE",
"177 -158 OFFCURVE",
"228 -233 OFFCURVE",
"319 -271 CURVE",
"321 -271 OFFCURVE",
"323 -272 OFFCURVE",
"325 -272 CURVE SMOOTH"
);
},
{
closed = 1;
nodes = (
"305 -64 OFFCURVE",
"254 -60 OFFCURVE",
"206 -46 CURVE",
"208 -11 OFFCURVE",
"218 24 OFFCURVE",
"232 56 CURVE SMOOTH",
"320 253 OFFCURVE",
"579 360 OFFCURVE",
"774 406 CURVE SMOOTH",
"825 418 OFFCURVE",
"877 427 OFFCURVE",
"930 427 CURVE SMOOTH",
"1002 427 OFFCURVE",
"1103 406 OFFCURVE",
"1103 315 CURVE SMOOTH",
"1103 306 OFFCURVE",
"1102 297 OFFCURVE",
"1100 289 CURVE SMOOTH",
"1075 175 OFFCURVE",
"933 82 OFFCURVE",
"835 37 CURVE SMOOTH",
"786 15 OFFCURVE",
"734 -3 OFFCURVE",
"682 -16 CURVE SMOOTH",
"576 -44 OFFCURVE",
"465 -64 OFFCURVE",
"355 -64 CURVE SMOOTH"
);
},
{
closed = 1;
nodes = (
"931 887 OFFCURVE",
"933 890 OFFCURVE",
"933 894 CURVE SMOOTH",
"933 910 OFFCURVE",
"830 981 OFFCURVE",
"813 996 CURVE SMOOTH",
"801 1007 OFFCURVE",
"785 1017 OFFCURVE",
"767 1017 CURVE SMOOTH",
"758 1017 OFFCURVE",
"744 1012 OFFCURVE",
"744 1001 CURVE SMOOTH",
"744 985 OFFCURVE",
"766 972 OFFCURVE",
"778 966 CURVE SMOOTH",
"825 941 OFFCURVE",
"872 917 OFFCURVE",
"918 890 CURVE SMOOTH",
"921 888 OFFCURVE",
"924 887 OFFCURVE",
"927 887 CURVE SMOOTH"
);
}
);
width = 1147;
}
);
note = Egrave;
unicode = 00C8;
},
{
glyphname = F;
lastChange = "2021-09-15 00:52:07 +0000";
layers = (
{
background = {
paths = (
{
closed = 1;
nodes = (
"1135 762 OFFCURVE",
"1141 757 OFFCURVE",
"1147 757 CURVE SMOOTH",
"1159 757 OFFCURVE",
"1165 777 OFFCURVE",
"1165 786 CURVE SMOOTH",
"1165 866 OFFCURVE",
"900 875 OFFCURVE",
"846 875 CURVE SMOOTH",
"666 875 OFFCURVE",
"357 834 OFFCURVE",
"198 747 CURVE SMOOTH",
"165 729 OFFCURVE",
"126 692 OFFCURVE",
"126 652 CURVE SMOOTH",
"126 548 OFFCURVE",
"386 539 OFFCURVE",
"461 539 CURVE SMOOTH",
"530 539 OFFCURVE",
"600 546 OFFCURVE",
"668 560 CURVE SMOOTH",
"678 562 OFFCURVE",
"690 564 OFFCURVE",
"699 568 CURVE SMOOTH",
"705 570 OFFCURVE",
"708 572 OFFCURVE",
"708 579 CURVE SMOOTH",
"708 585 OFFCURVE",
"703 591 OFFCURVE",
"697 591 CURVE SMOOTH",
"695 591 OFFCURVE",
"694 591 OFFCURVE",
"693 591 CURVE",
"633 575 OFFCURVE",
"571 570 OFFCURVE",
"509 570 CURVE SMOOTH",
"455 570 OFFCURVE",
"197 580 OFFCURVE",
"197 645 CURVE SMOOTH",
"197 675 OFFCURVE",
"248 705 OFFCURVE",
"271 717 CURVE SMOOTH",
"419 798 OFFCURVE",
"736 842 OFFCURVE",
"905 842 CURVE SMOOTH",
"963 842 OFFCURVE",
"1059 837 OFFCURVE",
"1112 812 CURVE SMOOTH",
"1122 808 OFFCURVE",
"1141 800 OFFCURVE",
"1141 786 CURVE SMOOTH",
"1141 778 OFFCURVE",
"1135 775 OFFCURVE",
"1135 769 CURVE SMOOTH"
);
},
{
closed = 1;
nodes = (
"1062 802 OFFCURVE",
"1063 774 OFFCURVE",
"1082 774 CURVE SMOOTH",
"1088 774 OFFCURVE",
"1090 778 OFFCURVE",
"1090 783 CURVE SMOOTH",
"1090 806 OFFCURVE",
"1060 827 OFFCURVE",
"1039 827 CURVE SMOOTH",
"1021 827 OFFCURVE",
"1007 818 OFFCURVE",
"994 807 CURVE SMOOTH",
"960 780 OFFCURVE",
"855 535 OFFCURVE",
"830 477 CURVE",
"754 471 OFFCURVE",
"678 443 OFFCURVE",
"606 418 CURVE SMOOTH",
"565 404 OFFCURVE",
"379 331 OFFCURVE",
"346 331 CURVE",
"346 331 OFFCURVE",
"342 331 OFFCURVE",
"342 332 CURVE",
"344 334 LINE SMOOTH",
"367 363 OFFCURVE",
"405 383 OFFCURVE",
"437 399 CURVE SMOOTH",
"511 438 OFFCURVE",
"610 476 OFFCURVE",
"670 533 CURVE SMOOTH",
"674 536 OFFCURVE",
"676 539 OFFCURVE",
"676 544 CURVE SMOOTH",
"676 549 OFFCURVE",
"673 554 OFFCURVE",
"668 554 CURVE SMOOTH",
"665 554 OFFCURVE",
"663 553 OFFCURVE",
"661 551 CURVE SMOOTH",
"613 513 OFFCURVE",
"562 487 OFFCURVE",
"507 461 CURVE SMOOTH",
"455 435 OFFCURVE",
"309 393 OFFCURVE",
"280 350 CURVE SMOOTH",
"277 346 OFFCURVE",
"275 340 OFFCURVE",
"275 334 CURVE SMOOTH",
"275 309 OFFCURVE",
"309 297 OFFCURVE",
"330 297 CURVE SMOOTH",
"382 297 OFFCURVE",
"556 369 OFFCURVE",
"610 389 CURVE SMOOTH",
"677 414 OFFCURVE",
"748 441 OFFCURVE",
"819 452 CURVE",
"730 253 OFFCURVE",
"573 -60 OFFCURVE",
"324 -60 CURVE SMOOTH",
"211 -60 OFFCURVE",
"136 50 OFFCURVE",
"106 147 CURVE SMOOTH",
"93 187 OFFCURVE",
"87 229 OFFCURVE",
"87 271 CURVE SMOOTH",
"87 311 OFFCURVE",
"93 350 OFFCURVE",
"106 388 CURVE",
"106 389 OFFCURVE",
"107 390 OFFCURVE",
"107 392 CURVE SMOOTH",
"107 398 OFFCURVE",
"100 403 OFFCURVE",
"94 403 CURVE SMOOTH",
"88 403 OFFCURVE",
"85 400 OFFCURVE",
"83 394 CURVE SMOOTH",
"64 349 OFFCURVE",
"55 270 OFFCURVE",
"55 221 CURVE SMOOTH",
"55 55 OFFCURVE",
"133 -91 OFFCURVE",
"317 -91 CURVE SMOOTH",
"577 -91 OFFCURVE",
"728 118 OFFCURVE",
"829 330 CURVE SMOOTH",
"848 370 OFFCURVE",
"862 412 OFFCURVE",
"878 452 CURVE",
"892 450 OFFCURVE",
"903 440 OFFCURVE",
"903 425 CURVE SMOOTH",
"903 379 OFFCURVE",
"834 316 OFFCURVE",
"834 304 CURVE SMOOTH",
"834 298 OFFCURVE",
"838 293 OFFCURVE",
"844 293 CURVE SMOOTH",
"847 293 OFFCURVE",
"849 295 OFFCURVE",
"851 296 CURVE SMOOTH",
"885 320 OFFCURVE",
"946 374 OFFCURVE",
"946 419 CURVE SMOOTH",
"946 452 OFFCURVE",
"913 467 OFFCURVE",
"886 475 CURVE",
"903 520 OFFCURVE",
"993 770 OFFCURVE",
"1011 788 CURVE SMOOTH",
"1019 795 OFFCURVE",
"1026 802 OFFCURVE",
"1038 802 CURVE SMOOTH"
);
}
);
};
layerId = "95C423A7-595F-441F-915A-E5EF8B5EF971";
paths = (
{
closed = 1;
nodes = (
"577 -91 OFFCURVE",
"728 118 OFFCURVE",
"829 330 CURVE SMOOTH",
"848 370 OFFCURVE",
"862 412 OFFCURVE",
"878 452 CURVE",
"892 450 OFFCURVE",
"903 440 OFFCURVE",
"903 425 CURVE SMOOTH",
"903 379 OFFCURVE",
"834 316 OFFCURVE",
"834 304 CURVE SMOOTH",
"834 298 OFFCURVE",
"838 293 OFFCURVE",
"844 293 CURVE SMOOTH",
"847 293 OFFCURVE",
"849 295 OFFCURVE",
"851 296 CURVE SMOOTH",
"885 320 OFFCURVE",
"946 374 OFFCURVE",
"946 419 CURVE SMOOTH",
"946 452 OFFCURVE",
"913 467 OFFCURVE",
"886 475 CURVE",
"903 520 OFFCURVE",
"993 770 OFFCURVE",
"1011 788 CURVE SMOOTH",
"1019 795 OFFCURVE",
"1026 802 OFFCURVE",
"1038 802 CURVE SMOOTH",
"1062 802 OFFCURVE",
"1063 774 OFFCURVE",
"1082 774 CURVE SMOOTH",
"1088 774 OFFCURVE",
"1090 778 OFFCURVE",
"1090 783 CURVE SMOOTH",
"1090 806 OFFCURVE",
"1060 827 OFFCURVE",
"1039 827 CURVE SMOOTH",
"1021 827 OFFCURVE",
"1007 818 OFFCURVE",
"994 807 CURVE SMOOTH",
"960 780 OFFCURVE",
"855 535 OFFCURVE",
"830 477 CURVE",
"754 471 OFFCURVE",
"678 443 OFFCURVE",
"606 418 CURVE SMOOTH",
"565 404 OFFCURVE",
"379 331 OFFCURVE",
"346 331 CURVE",
"346 331 OFFCURVE",
"342 331 OFFCURVE",
"342 332 CURVE",
"344 334 LINE SMOOTH",
"367 363 OFFCURVE",
"405 383 OFFCURVE",
"437 399 CURVE SMOOTH",
"511 438 OFFCURVE",
"610 476 OFFCURVE",
"670 533 CURVE SMOOTH",
"674 536 OFFCURVE",
"676 539 OFFCURVE",
"676 544 CURVE SMOOTH",
"676 549 OFFCURVE",
"673 554 OFFCURVE",
"668 554 CURVE SMOOTH",
"665 554 OFFCURVE",
"663 553 OFFCURVE",
"661 551 CURVE SMOOTH",
"613 513 OFFCURVE",
"562 487 OFFCURVE",
"507 461 CURVE SMOOTH",
"455 435 OFFCURVE",
"309 393 OFFCURVE",
"280 350 CURVE SMOOTH",
"277 346 OFFCURVE",
"275 340 OFFCURVE",
"275 334 CURVE SMOOTH",
"275 309 OFFCURVE",
"309 297 OFFCURVE",
"330 297 CURVE SMOOTH",
"382 297 OFFCURVE",
"556 369 OFFCURVE",
"610 389 CURVE SMOOTH",
"677 414 OFFCURVE",
"748 441 OFFCURVE",
"819 452 CURVE",
"730 253 OFFCURVE",
"573 -60 OFFCURVE",
"324 -60 CURVE SMOOTH",
"211 -60 OFFCURVE",
"136 50 OFFCURVE",
"106 147 CURVE SMOOTH",
"93 187 OFFCURVE",
"87 229 OFFCURVE",
"87 271 CURVE SMOOTH",
"87 311 OFFCURVE",
"93 350 OFFCURVE",
"106 388 CURVE",
"106 389 OFFCURVE",
"107 390 OFFCURVE",
"107 392 CURVE SMOOTH",
"107 398 OFFCURVE",
"100 403 OFFCURVE",
"94 403 CURVE SMOOTH",
"88 403 OFFCURVE",
"85 400 OFFCURVE",
"83 394 CURVE SMOOTH",
"64 349 OFFCURVE",
"55 270 OFFCURVE",
"55 221 CURVE SMOOTH",
"55 55 OFFCURVE",
"133 -91 OFFCURVE",
"317 -91 CURVE SMOOTH"
);
},
{
closed = 1;
nodes = (
"530 539 OFFCURVE",
"600 546 OFFCURVE",
"668 560 CURVE SMOOTH",
"678 562 OFFCURVE",
"690 564 OFFCURVE",
"699 568 CURVE SMOOTH",
"705 570 OFFCURVE",
"708 572 OFFCURVE",
"708 579 CURVE SMOOTH",
"708 585 OFFCURVE",
"703 591 OFFCURVE",
"697 591 CURVE SMOOTH",
"693 591 LINE",
"633 575 OFFCURVE",
"571 570 OFFCURVE",
"509 570 CURVE SMOOTH",
"455 570 OFFCURVE",
"197 580 OFFCURVE",
"197 645 CURVE SMOOTH",
"197 675 OFFCURVE",
"248 705 OFFCURVE",
"271 717 CURVE SMOOTH",
"419 798 OFFCURVE",
"736 842 OFFCURVE",
"905 842 CURVE SMOOTH",
"963 842 OFFCURVE",
"1059 837 OFFCURVE",
"1112 812 CURVE SMOOTH",
"1122 808 OFFCURVE",
"1141 800 OFFCURVE",
"1141 786 CURVE SMOOTH",
"1141 778 OFFCURVE",
"1135 775 OFFCURVE",
"1135 769 CURVE SMOOTH",
"1135 762 OFFCURVE",
"1141 757 OFFCURVE",
"1147 757 CURVE SMOOTH",
"1159 757 OFFCURVE",
"1165 777 OFFCURVE",
"1165 786 CURVE SMOOTH",
"1165 866 OFFCURVE",
"900 875 OFFCURVE",
"846 875 CURVE SMOOTH",
"666 875 OFFCURVE",
"357 834 OFFCURVE",
"198 747 CURVE SMOOTH",
"165 729 OFFCURVE",
"126 692 OFFCURVE",
"126 652 CURVE SMOOTH",
"126 548 OFFCURVE",
"386 539 OFFCURVE",
"461 539 CURVE SMOOTH"
);
}
);
width = 929;
}
);
note = F;
unicode = 0046;
},
{
glyphname = G;
lastChange = "2021-09-15 00:52:07 +0000";
layers = (
{
background = {
paths = (
{
closed = 1;
nodes = (
"1194 389 OFFCURVE",
"1300 424 OFFCURVE",
"1300 461 CURVE SMOOTH",
"1300 488 OFFCURVE",
"1243 489 OFFCURVE",
"1225 489 CURVE SMOOTH",
"1191 489 OFFCURVE",
"1158 485 OFFCURVE",
"1124 480 CURVE",
"1087 507 OFFCURVE",
"1035 514 OFFCURVE",
"990 514 CURVE SMOOTH",
"935 514 OFFCURVE",
"879 503 OFFCURVE",
"825 490 CURVE",
"829 497 OFFCURVE",
"834 505 OFFCURVE",
"834 513 CURVE SMOOTH",
"834 533 OFFCURVE",
"807 536 OFFCURVE",
"793 536 CURVE SMOOTH",
"786 536 OFFCURVE",
"760 536 OFFCURVE",
"760 525 CURVE SMOOTH",
"760 519 OFFCURVE",
"767 515 OFFCURVE",
"772 515 CURVE SMOOTH",
"777 515 OFFCURVE",
"781 517 OFFCURVE",
"785 517 CURVE SMOOTH",
"791 517 OFFCURVE",
"799 515 OFFCURVE",
"799 507 CURVE SMOOTH",
"799 499 OFFCURVE",
"790 486 OFFCURVE",
"785 479 CURVE",
"693 454 OFFCURVE",
"602 421 OFFCURVE",
"514 384 CURVE SMOOTH",
"473 367 OFFCURVE",
"421 347 OFFCURVE",
"384 325 CURVE SMOOTH",
"380 323 OFFCURVE",
"377 320 OFFCURVE",
"377 315 CURVE SMOOTH",
"377 308 OFFCURVE",
"383 302 OFFCURVE",
"389 302 CURVE SMOOTH",
"391 302 OFFCURVE",
"393 303 OFFCURVE",
"395 304 CURVE SMOOTH",
"511 361 OFFCURVE",
"632 409 OFFCURVE",
"756 446 CURVE",
"738 428 OFFCURVE",
"717 414 OFFCURVE",
"696 399 CURVE",
"609 377 OFFCURVE",
"517 351 OFFCURVE",
"438 308 CURVE SMOOTH",
"430 303 OFFCURVE",
"419 298 OFFCURVE",
"412 292 CURVE SMOOTH",
"404 285 OFFCURVE",
"399 280 OFFCURVE",
"399 268 CURVE SMOOTH",
"399 253 OFFCURVE",
"411 236 OFFCURVE",
"428 236 CURVE SMOOTH",
"431 236 LINE SMOOTH",
"526 236 OFFCURVE",
"642 315 OFFCURVE",
"715 375 CURVE",
"847 411 OFFCURVE",
"982 437 OFFCURVE",
"1118 455 CURVE",
"1133 441 OFFCURVE",
"1141 422 OFFCURVE",
"1141 401 CURVE",
"1116 390 OFFCURVE",
"1087 381 OFFCURVE",
"1063 370 CURVE SMOOTH",
"1057 367 OFFCURVE",
"1052 363 OFFCURVE",
"1052 356 CURVE SMOOTH",
"1052 351 OFFCURVE",
"1055 347 OFFCURVE",
"1060 347 CURVE SMOOTH",
"1067 347 OFFCURVE",
"1127 367 OFFCURVE",
"1138 370 CURVE",
"1113 266 OFFCURVE",
"962 158 OFFCURVE",
"874 105 CURVE SMOOTH",
"741 24 OFFCURVE",
"559 -29 OFFCURVE",
"402 -29 CURVE SMOOTH",
"254 -29 OFFCURVE",
"96 24 OFFCURVE",
"96 198 CURVE SMOOTH",
"96 303 OFFCURVE",
"158 415 OFFCURVE",
"223 494 CURVE SMOOTH",
"381 688 OFFCURVE",
"576 787 OFFCURVE",
"826 794 CURVE SMOOTH",
"833 794 OFFCURVE",
"839 794 OFFCURVE",
"845 794 CURVE SMOOTH",
"922 794 OFFCURVE",
"1086 781 OFFCURVE",
"1149 733 CURVE",
"1121 725 OFFCURVE",
"1094 716 OFFCURVE",
"1067 705 CURVE SMOOTH",
"1042 695 OFFCURVE",
"956 651 OFFCURVE",
"956 622 CURVE SMOOTH",
"956 588 OFFCURVE",
"1012 587 OFFCURVE",
"1035 587 CURVE SMOOTH",
"1055 587 OFFCURVE",
"1167 593 OFFCURVE",
"1167 615 CURVE SMOOTH",
"1167 619 OFFCURVE",
"1163 621 OFFCURVE",
"1159 621 CURVE SMOOTH",
"1158 621 OFFCURVE",
"1157 621 OFFCURVE",
"1156 621 CURVE SMOOTH",
"1128 616 OFFCURVE",
"1100 614 OFFCURVE",
"1072 614 CURVE SMOOTH",
"1061 614 OFFCURVE",
"998 615 OFFCURVE",
"998 629 CURVE SMOOTH",
"998 647 OFFCURVE",
"1066 677 OFFCURVE",
"1079 682 CURVE SMOOTH",
"1137 708 OFFCURVE",
"1201 726 OFFCURVE",
"1263 736 CURVE SMOOTH",
"1277 739 OFFCURVE",
"1291 741 OFFCURVE",
"1305 742 CURVE SMOOTH",
"1312 743 OFFCURVE",
"1319 742 OFFCURVE",
"1326 743 CURVE SMOOTH",
"1333 745 OFFCURVE",
"1340 747 OFFCURVE",
"1340 756 CURVE SMOOTH",
"1340 762 OFFCURVE",
"1334 764 OFFCURVE",
"1329 764 CURVE SMOOTH",
"1280 764 OFFCURVE",
"1225 753 OFFCURVE",
"1179 738 CURVE",
"1155 773 OFFCURVE",
"1032 800 OFFCURVE",
"993 807 CURVE SMOOTH",
"962 813 OFFCURVE",
"931 817 OFFCURVE",
"900 819 CURVE SMOOTH",
"882 820 OFFCURVE",
"864 821 OFFCURVE",
"846 821 CURVE SMOOTH",
"549 821 OFFCURVE",
"226 650 OFFCURVE",
"80 387 CURVE SMOOTH",
"51 334 OFFCURVE",
"31 270 OFFCURVE",
"31 209 CURVE SMOOTH",
"31 160 OFFCURVE",
"44 111 OFFCURVE",
"69 68 CURVE SMOOTH",
"129 -37 OFFCURVE",
"265 -61 OFFCURVE",
"376 -61 CURVE SMOOTH",
"543 -61 OFFCURVE",
"759 -4 OFFCURVE",
"902 83 CURVE SMOOTH",
"1001 144 OFFCURVE",
"1146 255 OFFCURVE",
"1164 379 CURVE"
);
},
{
closed = 1;
nodes = (
"1261 452 OFFCURVE",
"1181 417 OFFCURVE",
"1165 411 CURVE",
"1164 428 OFFCURVE",
"1157 445 OFFCURVE",
"1146 459 CURVE",
"1177 463 OFFCURVE",
"1209 469 OFFCURVE",
"1240 469 CURVE SMOOTH",
"1244 469 OFFCURVE",
"1248 468 OFFCURVE",
"1252 468 CURVE SMOOTH",
"1253 468 OFFCURVE",
"1261 468 OFFCURVE",
"1261 467 CURVE SMOOTH"
);
},
{
closed = 1;
nodes = (
"864 476 OFFCURVE",
"929 490 OFFCURVE",
"993 490 CURVE SMOOTH",
"1024 490 OFFCURVE",
"1057 487 OFFCURVE",
"1086 475 CURVE",
"976 459 OFFCURVE",
"867 440 OFFCURVE",
"759 415 CURVE",
"774 429 OFFCURVE",
"788 444 OFFCURVE",
"802 459 CURVE"
);
},
{
closed = 1;
nodes = (
"480 301 OFFCURVE",
"591 338 OFFCURVE",
"612 345 CURVE",
"576 323 OFFCURVE",
"530 295 OFFCURVE",
"490 285 CURVE",
"487 285 OFFCURVE",
"484 283 OFFCURVE",
"481 283 CURVE",
"481 283 OFFCURVE",
"480 283 OFFCURVE",
"480 284 CURVE SMOOTH"
);
}
);
};
layerId = "95C423A7-595F-441F-915A-E5EF8B5EF971";
paths = (
{
closed = 1;
nodes = (
"543 -61 OFFCURVE",
"759 -4 OFFCURVE",
"902 83 CURVE SMOOTH",
"1001 144 OFFCURVE",
"1146 255 OFFCURVE",
"1164 379 CURVE",
"1194 389 OFFCURVE",
"1300 424 OFFCURVE",
"1300 461 CURVE SMOOTH",
"1300 488 OFFCURVE",
"1243 489 OFFCURVE",
"1225 489 CURVE SMOOTH",
"1191 489 OFFCURVE",
"1158 485 OFFCURVE",
"1124 480 CURVE",
"1087 507 OFFCURVE",
"1035 514 OFFCURVE",
"990 514 CURVE SMOOTH",
"935 514 OFFCURVE",
"879 503 OFFCURVE",
"825 490 CURVE",
"829 497 OFFCURVE",
"834 505 OFFCURVE",
"834 513 CURVE SMOOTH",
"834 533 OFFCURVE",
"807 536 OFFCURVE",
"793 536 CURVE SMOOTH",
"786 536 OFFCURVE",
"760 536 OFFCURVE",
"760 525 CURVE SMOOTH",
"760 519 OFFCURVE",
"767 515 OFFCURVE",
"772 515 CURVE SMOOTH",
"777 515 OFFCURVE",
"781 517 OFFCURVE",
"785 517 CURVE SMOOTH",
"791 517 OFFCURVE",
"799 515 OFFCURVE",
"799 507 CURVE SMOOTH",
"799 499 OFFCURVE",
"790 486 OFFCURVE",
"785 479 CURVE",
"693 454 OFFCURVE",
"602 421 OFFCURVE",
"514 384 CURVE SMOOTH",
"473 367 OFFCURVE",
"421 347 OFFCURVE",
"384 325 CURVE SMOOTH",
"380 323 OFFCURVE",
"377 320 OFFCURVE",
"377 315 CURVE SMOOTH",
"377 308 OFFCURVE",
"383 302 OFFCURVE",
"389 302 CURVE SMOOTH",
"391 302 OFFCURVE",
"393 303 OFFCURVE",
"395 304 CURVE SMOOTH",
"511 361 OFFCURVE",
"632 409 OFFCURVE",
"756 446 CURVE",
"738 428 OFFCURVE",
"717 414 OFFCURVE",
"696 399 CURVE",
"609 377 OFFCURVE",
"517 351 OFFCURVE",
"438 308 CURVE SMOOTH",
"430 303 OFFCURVE",
"419 298 OFFCURVE",
"412 292 CURVE SMOOTH",
"404 285 OFFCURVE",
"399 280 OFFCURVE",
"399 268 CURVE SMOOTH",
"399 253 OFFCURVE",
"411 236 OFFCURVE",
"428 236 CURVE SMOOTH",
"431 236 LINE SMOOTH",
"526 236 OFFCURVE",
"642 315 OFFCURVE",
"715 375 CURVE",
"847 411 OFFCURVE",
"982 437 OFFCURVE",
"1118 455 CURVE",
"1133 441 OFFCURVE",
"1141 422 OFFCURVE",
"1141 401 CURVE",
"1116 390 OFFCURVE",
"1087 381 OFFCURVE",
"1063 370 CURVE SMOOTH",
"1057 367 OFFCURVE",
"1052 363 OFFCURVE",
"1052 356 CURVE SMOOTH",
"1052 351 OFFCURVE",
"1055 347 OFFCURVE",
"1060 347 CURVE SMOOTH",
"1067 347 OFFCURVE",
"1127 367 OFFCURVE",
"1138 370 CURVE",
"1113 266 OFFCURVE",
"962 158 OFFCURVE",
"874 105 CURVE SMOOTH",
"741 24 OFFCURVE",
"559 -29 OFFCURVE",
"402 -29 CURVE SMOOTH",
"254 -29 OFFCURVE",
"96 24 OFFCURVE",
"96 198 CURVE SMOOTH",
"96 303 OFFCURVE",
"158 415 OFFCURVE",
"223 494 CURVE SMOOTH",
"381 688 OFFCURVE",
"576 787 OFFCURVE",
"826 794 CURVE SMOOTH",
"845 794 LINE SMOOTH",
"922 794 OFFCURVE",
"1086 781 OFFCURVE",
"1149 733 CURVE",
"1121 725 OFFCURVE",
"1094 716 OFFCURVE",
"1067 705 CURVE SMOOTH",
"1042 695 OFFCURVE",
"956 651 OFFCURVE",
"956 622 CURVE SMOOTH",
"956 588 OFFCURVE",
"1012 587 OFFCURVE",
"1035 587 CURVE SMOOTH",
"1055 587 OFFCURVE",
"1167 593 OFFCURVE",
"1167 615 CURVE SMOOTH",
"1167 619 OFFCURVE",
"1163 621 OFFCURVE",
"1159 621 CURVE SMOOTH",
"1156 621 LINE",
"1128 616 OFFCURVE",
"1100 614 OFFCURVE",
"1072 614 CURVE SMOOTH",
"1061 614 OFFCURVE",
"998 615 OFFCURVE",
"998 629 CURVE SMOOTH",
"998 647 OFFCURVE",
"1066 677 OFFCURVE",
"1079 682 CURVE SMOOTH",
"1137 708 OFFCURVE",
"1201 726 OFFCURVE",
"1263 736 CURVE SMOOTH",
"1277 739 OFFCURVE",
"1291 741 OFFCURVE",
"1305 742 CURVE SMOOTH",
"1312 743 OFFCURVE",
"1319 742 OFFCURVE",
"1326 743 CURVE SMOOTH",
"1333 745 OFFCURVE",
"1340 747 OFFCURVE",
"1340 756 CURVE SMOOTH",
"1340 762 OFFCURVE",
"1334 764 OFFCURVE",
"1329 764 CURVE SMOOTH",
"1280 764 OFFCURVE",
"1225 753 OFFCURVE",
"1179 738 CURVE",
"1155 773 OFFCURVE",
"1032 800 OFFCURVE",
"993 807 CURVE SMOOTH",
"962 813 OFFCURVE",
"931 817 OFFCURVE",
"900 819 CURVE SMOOTH",
"882 820 OFFCURVE",
"864 821 OFFCURVE",
"846 821 CURVE SMOOTH",
"549 821 OFFCURVE",
"226 650 OFFCURVE",
"80 387 CURVE SMOOTH",
"51 334 OFFCURVE",
"31 270 OFFCURVE",
"31 209 CURVE SMOOTH",
"31 160 OFFCURVE",
"44 111 OFFCURVE",
"69 68 CURVE SMOOTH",
"129 -37 OFFCURVE",
"265 -61 OFFCURVE",
"376 -61 CURVE SMOOTH"
);
},
{
closed = 1;
nodes = (
"481 283 OFFCURVE",
"480 283 OFFCURVE",
"480 284 CURVE SMOOTH",
"480 301 OFFCURVE",
"591 338 OFFCURVE",
"612 345 CURVE",
"576 323 OFFCURVE",
"530 295 OFFCURVE",
"490 285 CURVE",
"487 285 OFFCURVE",
"484 283 OFFCURVE",
"481 283 CURVE"
);
},
{
closed = 1;
nodes = (
"774 429 OFFCURVE",
"788 444 OFFCURVE",
"802 459 CURVE",
"864 476 OFFCURVE",
"929 490 OFFCURVE",
"993 490 CURVE SMOOTH",
"1024 490 OFFCURVE",
"1057 487 OFFCURVE",
"1086 475 CURVE",
"976 459 OFFCURVE",
"867 440 OFFCURVE",
"759 415 CURVE"
);
},
{
closed = 1;
nodes = (
"1164 428 OFFCURVE",
"1157 445 OFFCURVE",
"1146 459 CURVE",
"1177 463 OFFCURVE",
"1209 469 OFFCURVE",
"1240 469 CURVE SMOOTH",
"1244 469 OFFCURVE",
"1248 468 OFFCURVE",
"1252 468 CURVE SMOOTH",
"1253 468 OFFCURVE",
"1261 468 OFFCURVE",
"1261 467 CURVE SMOOTH",
"1261 452 OFFCURVE",
"1181 417 OFFCURVE",
"1165 411 CURVE"
);
}
);
width = 1185;
}
);
note = G;
unicode = 0047;
},
{
glyphname = H;
lastChange = "2021-09-15 00:52:07 +0000";
layers = (
{
background = {
paths = (
{
closed = 1;
nodes = (
"2142 893 OFFCURVE",
"2145 894 OFFCURVE",
"2147 894 CURVE",
"2193 907 OFFCURVE",
"2242 922 OFFCURVE",
"2282 946 CURVE SMOOTH",
"2313 965 OFFCURVE",
"2371 1004 OFFCURVE",
"2371 1045 CURVE SMOOTH",
"2371 1086 OFFCURVE",
"2315 1097 OFFCURVE",
"2284 1097 CURVE SMOOTH",
"2256 1097 OFFCURVE",
"2228 1091 OFFCURVE",
"2202 1082 CURVE SMOOTH",
"1948 989 OFFCURVE",
"1606 594 OFFCURVE",
"1479 361 CURVE",
"1435 364 OFFCURVE",
"1390 366 OFFCURVE",
"1345 366 CURVE SMOOTH",
"1332 366 OFFCURVE",
"1320 365 OFFCURVE",
"1307 365 CURVE",
"1342 411 OFFCURVE",
"1370 466 OFFCURVE",
"1370 525 CURVE SMOOTH",
"1370 615 OFFCURVE",
"1303 675 OFFCURVE",
"1228 711 CURVE SMOOTH",
"1138 753 OFFCURVE",
"1025 766 OFFCURVE",
"927 766 CURVE SMOOTH",
"833 766 OFFCURVE",
"739 755 OFFCURVE",
"647 736 CURVE SMOOTH",
"452 697 OFFCURVE",
"138 589 OFFCURVE",
"35 404 CURVE SMOOTH",
"20 376 OFFCURVE",
"9 343 OFFCURVE",
"9 311 CURVE SMOOTH",
"9 248 OFFCURVE",
"53 205 OFFCURVE",
"105 175 CURVE",
"89 151 OFFCURVE",
"76 123 OFFCURVE",
"76 93 CURVE SMOOTH",
"76 -36 OFFCURVE",
"305 -52 OFFCURVE",
"397 -52 CURVE SMOOTH",
"434 -52 OFFCURVE",
"472 -51 OFFCURVE",
"509 -45 CURVE SMOOTH",
"770 -2 OFFCURVE",
"1111 135 OFFCURVE",
"1287 340 CURVE",
"1309 341 OFFCURVE",
"1331 342 OFFCURVE",
"1354 342 CURVE SMOOTH",
"1391 342 OFFCURVE",
"1429 340 OFFCURVE",
"1467 337 CURVE",
"1435 273 OFFCURVE",
"1403 197 OFFCURVE",
"1403 125 CURVE SMOOTH",
"1403 34 OFFCURVE",
"1440 -34 OFFCURVE",
"1539 -34 CURVE SMOOTH",
"1565 -34 OFFCURVE",
"1591 -29 OFFCURVE",
"1616 -22 CURVE SMOOTH",
"1696 0 OFFCURVE",
"1836 74 OFFCURVE",
"1882 146 CURVE SMOOTH",
"1883 148 OFFCURVE",
"1884 150 OFFCURVE",
"1884 152 CURVE SMOOTH",
"1884 159 OFFCURVE",
"1877 165 OFFCURVE",
"1870 165 CURVE SMOOTH",
"1866 165 OFFCURVE",
"1864 163 OFFCURVE",
"1861 160 CURVE",
"1804 85 OFFCURVE",
"1668 5 OFFCURVE",
"1573 5 CURVE SMOOTH",
"1488 5 OFFCURVE",
"1463 71 OFFCURVE",
"1463 146 CURVE SMOOTH",
"1463 210 OFFCURVE",
"1488 275 OFFCURVE",
"1515 331 CURVE",
"1553 326 OFFCURVE",
"1704 302 OFFCURVE",
"1704 251 CURVE SMOOTH",
"1704 231 OFFCURVE",
"1685 224 OFFCURVE",
"1685 212 CURVE SMOOTH",
"1685 207 OFFCURVE",
"1688 200 OFFCURVE",
"1694 200 CURVE SMOOTH",
"1710 200 OFFCURVE",
"1731 248 OFFCURVE",
"1731 265 CURVE SMOOTH",
"1731 339 OFFCURVE",
"1580 352 OFFCURVE",
"1527 357 CURVE",
"1567 435 OFFCURVE",
"1617 508 OFFCURVE",
"1670 578 CURVE SMOOTH",
"1788 732 OFFCURVE",
"2026 986 OFFCURVE",
"2215 1046 CURVE SMOOTH",
"2232 1051 OFFCURVE",
"2251 1054 OFFCURVE",
"2269 1054 CURVE SMOOTH",
"2284 1054 OFFCURVE",
"2322 1051 OFFCURVE",
"2322 1030 CURVE SMOOTH",
"2322 1007 OFFCURVE",
"2279 981 OFFCURVE",
"2263 971 CURVE SMOOTH",
"2235 953 OFFCURVE",
"2205 938 OFFCURVE",
"2174 927 CURVE SMOOTH",
"2164 923 OFFCURVE",
"2152 920 OFFCURVE",
"2141 916 CURVE SMOOTH",
"2135 914 OFFCURVE",
"2127 911 OFFCURVE",
"2127 903 CURVE SMOOTH",
"2127 896 OFFCURVE",
"2134 893 OFFCURVE",
"2140 893 CURVE SMOOTH"
);
},
{
closed = 1;
nodes = (
"1011 739 OFFCURVE",
"1125 725 OFFCURVE",
"1213 678 CURVE SMOOTH",
"1268 648 OFFCURVE",
"1314 604 OFFCURVE",
"1314 538 CURVE SMOOTH",
"1314 472 OFFCURVE",
"1269 408 OFFCURVE",
"1227 362 CURVE",
"1094 353 OFFCURVE",
"763 315 OFFCURVE",
"648 257 CURVE SMOOTH",
"635 250 OFFCURVE",
"612 237 OFFCURVE",
"612 219 CURVE SMOOTH",
"612 189 OFFCURVE",
"667 180 OFFCURVE",
"689 180 CURVE SMOOTH",
"702 180 OFFCURVE",
"742 182 OFFCURVE",
"742 201 CURVE SMOOTH",
"742 206 OFFCURVE",
"739 210 OFFCURVE",
"734 210 CURVE SMOOTH",
"733 210 OFFCURVE",
"731 210 OFFCURVE",
"730 209 CURVE",
"716 205 OFFCURVE",
"703 203 OFFCURVE",
"689 203 CURVE SMOOTH",
"686 203 OFFCURVE",
"672 203 OFFCURVE",
"672 207 CURVE SMOOTH",
"672 212 OFFCURVE",
"694 226 OFFCURVE",
"695 227 CURVE",
"772 276 OFFCURVE",
"1102 324 OFFCURVE",
"1199 333 CURVE",
"1009 145 OFFCURVE",
"661 -22 OFFCURVE",
"391 -22 CURVE SMOOTH",
"318 -22 OFFCURVE",
"125 -11 OFFCURVE",
"125 93 CURVE SMOOTH",
"125 115 OFFCURVE",
"133 137 OFFCURVE",
"144 157 CURVE",
"185 140 OFFCURVE",
"247 124 OFFCURVE",
"292 124 CURVE SMOOTH",
"298 124 OFFCURVE",
"303 128 OFFCURVE",
"303 135 CURVE SMOOTH",
"303 143 OFFCURVE",
"298 147 OFFCURVE",
"290 148 CURVE SMOOTH",
"277 150 OFFCURVE",
"262 150 OFFCURVE",
"249 152 CURVE SMOOTH",
"216 156 OFFCURVE",
"184 162 OFFCURVE",
"153 171 CURVE",
"185 222 OFFCURVE",
"231 246 OFFCURVE",
"283 273 CURVE SMOOTH",
"287 275 OFFCURVE",
"289 278 OFFCURVE",
"289 282 CURVE SMOOTH",
"289 289 OFFCURVE",
"283 296 OFFCURVE",
"276 296 CURVE SMOOTH",
"274 296 OFFCURVE",
"273 295 OFFCURVE",
"271 295 CURVE",
"220 272 OFFCURVE",
"156 236 OFFCURVE",
"119 193 CURVE",
"79 217 OFFCURVE",
"52 252 OFFCURVE",
"52 300 CURVE SMOOTH",
"52 332 OFFCURVE",
"64 366 OFFCURVE",
"79 393 CURVE SMOOTH",
"177 567 OFFCURVE",
"465 671 OFFCURVE",
"649 710 CURVE SMOOTH",
"736 728 OFFCURVE",
"824 739 OFFCURVE",
"912 739 CURVE SMOOTH"
);
}
);
};
layerId = "95C423A7-595F-441F-915A-E5EF8B5EF971";
paths = (
{
closed = 1;
nodes = (
"434 -52 OFFCURVE",
"472 -51 OFFCURVE",
"509 -45 CURVE SMOOTH",
"770 -2 OFFCURVE",
"1111 135 OFFCURVE",
"1287 340 CURVE",
"1309 341 OFFCURVE",
"1331 342 OFFCURVE",
"1354 342 CURVE SMOOTH",
"1391 342 OFFCURVE",
"1429 340 OFFCURVE",
"1467 337 CURVE",
"1435 273 OFFCURVE",
"1403 197 OFFCURVE",
"1403 125 CURVE SMOOTH",
"1403 34 OFFCURVE",
"1440 -34 OFFCURVE",
"1539 -34 CURVE SMOOTH",
"1565 -34 OFFCURVE",
"1591 -29 OFFCURVE",
"1616 -22 CURVE SMOOTH",
"1696 0 OFFCURVE",
"1836 74 OFFCURVE",
"1882 146 CURVE SMOOTH",
"1883 148 OFFCURVE",
"1884 150 OFFCURVE",
"1884 152 CURVE SMOOTH",
"1884 159 OFFCURVE",
"1877 165 OFFCURVE",
"1870 165 CURVE SMOOTH",
"1866 165 OFFCURVE",
"1864 163 OFFCURVE",
"1861 160 CURVE",
"1804 85 OFFCURVE",
"1668 5 OFFCURVE",
"1573 5 CURVE SMOOTH",
"1488 5 OFFCURVE",
"1463 71 OFFCURVE",
"1463 146 CURVE SMOOTH",
"1463 210 OFFCURVE",
"1488 275 OFFCURVE",
"1515 331 CURVE",
"1553 326 OFFCURVE",
"1704 302 OFFCURVE",
"1704 251 CURVE SMOOTH",
"1704 231 OFFCURVE",
"1685 224 OFFCURVE",
"1685 212 CURVE SMOOTH",
"1685 207 OFFCURVE",
"1688 200 OFFCURVE",
"1694 200 CURVE SMOOTH",
"1710 200 OFFCURVE",
"1731 248 OFFCURVE",
"1731 265 CURVE SMOOTH",
"1731 339 OFFCURVE",
"1580 352 OFFCURVE",
"1527 357 CURVE",
"1567 435 OFFCURVE",
"1617 508 OFFCURVE",
"1670 578 CURVE SMOOTH",
"1788 732 OFFCURVE",
"2026 986 OFFCURVE",
"2215 1046 CURVE SMOOTH",
"2232 1051 OFFCURVE",
"2251 1054 OFFCURVE",
"2269 1054 CURVE SMOOTH",
"2284 1054 OFFCURVE",
"2322 1051 OFFCURVE",
"2322 1030 CURVE SMOOTH",
"2322 1007 OFFCURVE",
"2279 981 OFFCURVE",
"2263 971 CURVE SMOOTH",
"2235 953 OFFCURVE",
"2205 938 OFFCURVE",
"2174 927 CURVE SMOOTH",
"2164 923 OFFCURVE",
"2152 920 OFFCURVE",
"2141 916 CURVE SMOOTH",
"2135 914 OFFCURVE",
"2127 911 OFFCURVE",
"2127 903 CURVE SMOOTH",
"2127 896 OFFCURVE",
"2134 893 OFFCURVE",
"2140 893 CURVE",
"2140 893 LINE",
"2147 894 LINE",
"2193 907 OFFCURVE",
"2242 922 OFFCURVE",
"2282 946 CURVE SMOOTH",
"2313 965 OFFCURVE",
"2371 1004 OFFCURVE",
"2371 1045 CURVE SMOOTH",
"2371 1086 OFFCURVE",
"2315 1097 OFFCURVE",
"2284 1097 CURVE SMOOTH",
"2256 1097 OFFCURVE",
"2228 1091 OFFCURVE",
"2202 1082 CURVE SMOOTH",
"1948 989 OFFCURVE",
"1606 594 OFFCURVE",
"1479 361 CURVE",
"1435 364 OFFCURVE",
"1390 366 OFFCURVE",
"1345 366 CURVE SMOOTH",
"1332 366 OFFCURVE",
"1320 365 OFFCURVE",
"1307 365 CURVE",
"1342 411 OFFCURVE",
"1370 466 OFFCURVE",
"1370 525 CURVE SMOOTH",
"1370 615 OFFCURVE",
"1303 675 OFFCURVE",
"1228 711 CURVE SMOOTH",
"1138 753 OFFCURVE",
"1025 766 OFFCURVE",
"927 766 CURVE SMOOTH",
"833 766 OFFCURVE",
"739 755 OFFCURVE",
"647 736 CURVE SMOOTH",
"452 697 OFFCURVE",
"138 589 OFFCURVE",
"35 404 CURVE SMOOTH",
"20 376 OFFCURVE",
"9 343 OFFCURVE",
"9 311 CURVE SMOOTH",
"9 248 OFFCURVE",
"53 205 OFFCURVE",
"105 175 CURVE",
"89 151 OFFCURVE",
"76 123 OFFCURVE",
"76 93 CURVE SMOOTH",
"76 -36 OFFCURVE",
"305 -52 OFFCURVE",
"397 -52 CURVE SMOOTH"
);
},
{
closed = 1;
nodes = (
"318 -22 OFFCURVE",
"125 -11 OFFCURVE",
"125 93 CURVE SMOOTH",
"125 115 OFFCURVE",
"133 137 OFFCURVE",
"144 157 CURVE",
"185 140 OFFCURVE",
"247 124 OFFCURVE",
"292 124 CURVE SMOOTH",
"298 124 OFFCURVE",
"303 128 OFFCURVE",
"303 135 CURVE SMOOTH",
"303 143 OFFCURVE",
"298 147 OFFCURVE",
"290 148 CURVE SMOOTH",
"277 150 OFFCURVE",
"262 150 OFFCURVE",
"249 152 CURVE SMOOTH",
"216 156 OFFCURVE",
"184 162 OFFCURVE",
"153 171 CURVE",
"185 222 OFFCURVE",
"231 246 OFFCURVE",
"283 273 CURVE SMOOTH",
"287 275 OFFCURVE",
"289 278 OFFCURVE",
"289 282 CURVE SMOOTH",
"289 289 OFFCURVE",
"283 296 OFFCURVE",
"276 296 CURVE SMOOTH",
"274 296 OFFCURVE",
"273 295 OFFCURVE",
"271 295 CURVE",
"220 272 OFFCURVE",
"156 236 OFFCURVE",
"119 193 CURVE",
"79 217 OFFCURVE",
"52 252 OFFCURVE",
"52 300 CURVE SMOOTH",
"52 332 OFFCURVE",
"64 366 OFFCURVE",
"79 393 CURVE SMOOTH",
"177 567 OFFCURVE",
"465 671 OFFCURVE",
"649 710 CURVE SMOOTH",
"736 728 OFFCURVE",
"824 739 OFFCURVE",
"912 739 CURVE SMOOTH",
"1011 739 OFFCURVE",
"1125 725 OFFCURVE",
"1213 678 CURVE SMOOTH",
"1268 648 OFFCURVE",
"1314 604 OFFCURVE",
"1314 538 CURVE SMOOTH",
"1314 472 OFFCURVE",
"1269 408 OFFCURVE",
"1227 362 CURVE",
"1094 353 OFFCURVE",
"763 315 OFFCURVE",
"648 257 CURVE SMOOTH",
"635 250 OFFCURVE",
"612 237 OFFCURVE",
"612 219 CURVE SMOOTH",
"612 189 OFFCURVE",
"667 180 OFFCURVE",
"689 180 CURVE SMOOTH",
"702 180 OFFCURVE",
"742 182 OFFCURVE",
"742 201 CURVE SMOOTH",
"742 206 OFFCURVE",
"739 210 OFFCURVE",
"734 210 CURVE SMOOTH",
"733 210 OFFCURVE",
"731 210 OFFCURVE",
"730 209 CURVE",
"716 205 OFFCURVE",
"703 203 OFFCURVE",
"689 203 CURVE SMOOTH",
"686 203 OFFCURVE",
"672 203 OFFCURVE",
"672 207 CURVE SMOOTH",
"672 212 OFFCURVE",
"694 226 OFFCURVE",
"695 227 CURVE",
"772 276 OFFCURVE",
"1102 324 OFFCURVE",
"1199 333 CURVE",
"1009 145 OFFCURVE",
"661 -22 OFFCURVE",
"391 -22 CURVE SMOOTH"
);
}
);
width = 1828;
}
);
note = H;
unicode = 0048;
},
{
glyphname = I;
lastChange = "2021-09-15 00:52:07 +0000";
layers = (
{
background = {
paths = (
{
closed = 1;
nodes = (
"194 -99 OFFCURVE",
"215 -97 OFFCURVE",
"235 -92 CURVE SMOOTH",
"290 -80 OFFCURVE",
"339 -61 OFFCURVE",
"387 -32 CURVE SMOOTH",
"603 96 OFFCURVE",
"784 401 OFFCURVE",
"860 636 CURVE SMOOTH",
"873 675 OFFCURVE",
"879 715 OFFCURVE",
"879 755 CURVE SMOOTH",
"879 857 OFFCURVE",
"835 974 OFFCURVE",
"716 974 CURVE SMOOTH",
"631 974 OFFCURVE",
"539 914 OFFCURVE",
"475 863 CURVE SMOOTH",
"365 776 OFFCURVE",
"254 639 OFFCURVE",
"227 498 CURVE SMOOTH",
"224 482 OFFCURVE",
"222 466 OFFCURVE",
"222 450 CURVE SMOOTH",
"222 382 OFFCURVE",
"258 309 OFFCURVE",
"335 309 CURVE SMOOTH",
"471 309 OFFCURVE",
"610 499 OFFCURVE",
"641 619 CURVE SMOOTH",
"644 634 OFFCURVE",
"647 650 OFFCURVE",
"647 665 CURVE SMOOTH",
"647 691 OFFCURVE",
"638 714 OFFCURVE",
"609 714 CURVE SMOOTH",
"577 714 OFFCURVE",
"543 687 OFFCURVE",
"522 665 CURVE SMOOTH",
"520 663 OFFCURVE",
"518 660 OFFCURVE",
"518 657 CURVE SMOOTH",
"518 650 OFFCURVE",
"524 645 OFFCURVE",
"531 645 CURVE SMOOTH",
"542 645 OFFCURVE",
"569 685 OFFCURVE",
"597 685 CURVE SMOOTH",
"607 685 OFFCURVE",
"608 668 OFFCURVE",
"608 663 CURVE SMOOTH",
"608 647 OFFCURVE",
"604 632 OFFCURVE",
"600 617 CURVE SMOOTH",
"572 503 OFFCURVE",
"470 350 OFFCURVE",
"345 333 CURVE SMOOTH",
"342 333 OFFCURVE",
"339 333 OFFCURVE",
"336 333 CURVE SMOOTH",
"281 333 OFFCURVE",
"265 388 OFFCURVE",
"265 434 CURVE SMOOTH",
"265 590 OFFCURVE",
"396 753 OFFCURVE",
"511 845 CURVE SMOOTH",
"565 888 OFFCURVE",
"650 946 OFFCURVE",
"723 946 CURVE SMOOTH",
"809 946 OFFCURVE",
"834 863 OFFCURVE",
"834 791 CURVE SMOOTH",
"834 745 OFFCURVE",
"825 698 OFFCURVE",
"811 654 CURVE SMOOTH",
"735 420 OFFCURVE",
"583 102 OFFCURVE",
"359 -18 CURVE SMOOTH",
"322 -38 OFFCURVE",
"284 -51 OFFCURVE",
"243 -60 CURVE SMOOTH",
"233 -63 OFFCURVE",
"223 -63 OFFCURVE",
"213 -63 CURVE SMOOTH",
"147 -63 OFFCURVE",
"95 -16 OFFCURVE",
"95 51 CURVE SMOOTH",
"95 130 OFFCURVE",
"165 188 OFFCURVE",
"165 198 CURVE SMOOTH",
"165 204 OFFCURVE",
"159 210 OFFCURVE",
"153 210 CURVE SMOOTH",
"149 210 OFFCURVE",
"146 208 OFFCURVE",
"144 206 CURVE SMOOTH",
"96 157 OFFCURVE",
"50 81 OFFCURVE",
"50 10 CURVE SMOOTH",
"50 -65 OFFCURVE",
"103 -99 OFFCURVE",
"173 -99 CURVE SMOOTH"
);
}
);
};
layerId = "95C423A7-595F-441F-915A-E5EF8B5EF971";
paths = (
{
closed = 1;
nodes = (
"194 -99 OFFCURVE",
"215 -97 OFFCURVE",
"235 -92 CURVE SMOOTH",
"290 -80 OFFCURVE",
"339 -61 OFFCURVE",
"387 -32 CURVE SMOOTH",
"603 96 OFFCURVE",
"784 401 OFFCURVE",
"860 636 CURVE SMOOTH",
"873 675 OFFCURVE",
"879 715 OFFCURVE",
"879 755 CURVE SMOOTH",
"879 857 OFFCURVE",
"835 974 OFFCURVE",
"716 974 CURVE SMOOTH",
"631 974 OFFCURVE",
"539 914 OFFCURVE",
"475 863 CURVE SMOOTH",
"365 776 OFFCURVE",
"254 639 OFFCURVE",
"227 498 CURVE SMOOTH",
"224 482 OFFCURVE",
"222 466 OFFCURVE",
"222 450 CURVE SMOOTH",
"222 382 OFFCURVE",
"258 309 OFFCURVE",
"335 309 CURVE SMOOTH",
"471 309 OFFCURVE",
"610 499 OFFCURVE",
"641 619 CURVE SMOOTH",
"644 634 OFFCURVE",
"647 650 OFFCURVE",
"647 665 CURVE SMOOTH",
"647 691 OFFCURVE",
"638 714 OFFCURVE",
"609 714 CURVE SMOOTH",
"577 714 OFFCURVE",
"543 687 OFFCURVE",
"522 665 CURVE SMOOTH",
"520 663 OFFCURVE",
"518 660 OFFCURVE",
"518 657 CURVE SMOOTH",
"518 650 OFFCURVE",
"524 645 OFFCURVE",
"531 645 CURVE SMOOTH",
"542 645 OFFCURVE",
"569 685 OFFCURVE",
"597 685 CURVE SMOOTH",
"607 685 OFFCURVE",
"608 668 OFFCURVE",
"608 663 CURVE SMOOTH",
"608 647 OFFCURVE",
"604 632 OFFCURVE",
"600 617 CURVE SMOOTH",
"572 503 OFFCURVE",
"470 350 OFFCURVE",
"345 333 CURVE",
"336 333 LINE SMOOTH",
"281 333 OFFCURVE",
"265 388 OFFCURVE",
"265 434 CURVE SMOOTH",
"265 590 OFFCURVE",
"396 753 OFFCURVE",
"511 845 CURVE SMOOTH",
"565 888 OFFCURVE",
"650 946 OFFCURVE",
"723 946 CURVE SMOOTH",
"809 946 OFFCURVE",
"834 863 OFFCURVE",
"834 791 CURVE SMOOTH",
"834 745 OFFCURVE",
"825 698 OFFCURVE",
"811 654 CURVE SMOOTH",
"735 420 OFFCURVE",
"583 102 OFFCURVE",
"359 -18 CURVE SMOOTH",
"322 -38 OFFCURVE",
"284 -51 OFFCURVE",
"243 -60 CURVE SMOOTH",
"233 -63 OFFCURVE",
"223 -63 OFFCURVE",
"213 -63 CURVE SMOOTH",
"147 -63 OFFCURVE",
"95 -16 OFFCURVE",
"95 51 CURVE SMOOTH",
"95 130 OFFCURVE",
"165 188 OFFCURVE",
"165 198 CURVE SMOOTH",
"165 204 OFFCURVE",
"159 210 OFFCURVE",
"153 210 CURVE SMOOTH",
"149 210 OFFCURVE",
"146 208 OFFCURVE",
"144 206 CURVE SMOOTH",
"96 157 OFFCURVE",
"50 81 OFFCURVE",
"50 10 CURVE SMOOTH",
"50 -65 OFFCURVE",
"103 -99 OFFCURVE",
"173 -99 CURVE SMOOTH"
);
}
);
width = 875;
}
);
note = I;
unicode = 0049;
},
{
color = 11;
glyphname = Iacute;
lastChange = "2021-09-15 00:52:07 +0000";
layers = (
{
background = {
paths = (
{
closed = 1;
nodes = (
"725 957 OFFCURVE",
"728 958 OFFCURVE",
"730 960 CURVE",
"776 987 OFFCURVE",
"823 1011 OFFCURVE",
"870 1036 CURVE SMOOTH",
"882 1042 OFFCURVE",
"904 1055 OFFCURVE",
"904 1071 CURVE SMOOTH",
"904 1083 OFFCURVE",
"891 1087 OFFCURVE",
"881 1087 CURVE SMOOTH",
"863 1087 OFFCURVE",
"847 1077 OFFCURVE",
"835 1066 CURVE SMOOTH",
"818 1051 OFFCURVE",
"715 980 OFFCURVE",
"715 964 CURVE SMOOTH",
"715 960 OFFCURVE",
"717 957 OFFCURVE",
"721 957 CURVE SMOOTH"
);
},
{
closed = 1;
nodes = (
"192 -132 OFFCURVE",
"213 -130 OFFCURVE",
"233 -125 CURVE SMOOTH",
"288 -113 OFFCURVE",
"337 -94 OFFCURVE",
"385 -65 CURVE SMOOTH",
"601 63 OFFCURVE",
"782 368 OFFCURVE",
"858 603 CURVE SMOOTH",
"871 642 OFFCURVE",
"877 682 OFFCURVE",
"877 722 CURVE SMOOTH",
"877 824 OFFCURVE",
"833 941 OFFCURVE",
"714 941 CURVE SMOOTH",
"629 941 OFFCURVE",
"537 881 OFFCURVE",
"473 830 CURVE SMOOTH",
"363 743 OFFCURVE",
"252 606 OFFCURVE",
"225 465 CURVE SMOOTH",
"222 449 OFFCURVE",
"220 433 OFFCURVE",
"220 417 CURVE SMOOTH",
"220 349 OFFCURVE",
"256 276 OFFCURVE",
"333 276 CURVE SMOOTH",
"469 276 OFFCURVE",
"608 466 OFFCURVE",
"639 586 CURVE SMOOTH",
"642 601 OFFCURVE",
"645 617 OFFCURVE",
"645 632 CURVE SMOOTH",
"645 658 OFFCURVE",
"636 681 OFFCURVE",
"607 681 CURVE SMOOTH",
"575 681 OFFCURVE",
"541 654 OFFCURVE",
"520 632 CURVE SMOOTH",
"518 630 OFFCURVE",
"516 627 OFFCURVE",
"516 624 CURVE SMOOTH",
"516 617 OFFCURVE",
"522 612 OFFCURVE",
"529 612 CURVE SMOOTH",
"540 612 OFFCURVE",
"567 652 OFFCURVE",
"595 652 CURVE SMOOTH",
"605 652 OFFCURVE",
"606 635 OFFCURVE",
"606 630 CURVE SMOOTH",
"606 614 OFFCURVE",
"602 599 OFFCURVE",
"598 584 CURVE SMOOTH",
"570 470 OFFCURVE",
"468 317 OFFCURVE",
"343 300 CURVE SMOOTH",
"340 300 OFFCURVE",
"337 300 OFFCURVE",
"334 300 CURVE SMOOTH",
"279 300 OFFCURVE",
"263 355 OFFCURVE",
"263 401 CURVE SMOOTH",
"263 557 OFFCURVE",
"394 720 OFFCURVE",
"509 812 CURVE SMOOTH",
"563 855 OFFCURVE",
"648 913 OFFCURVE",
"721 913 CURVE SMOOTH",
"807 913 OFFCURVE",
"832 830 OFFCURVE",
"832 758 CURVE SMOOTH",
"832 712 OFFCURVE",
"823 665 OFFCURVE",
"809 621 CURVE SMOOTH",
"733 387 OFFCURVE",
"581 69 OFFCURVE",
"357 -51 CURVE SMOOTH",
"320 -71 OFFCURVE",
"282 -84 OFFCURVE",
"241 -93 CURVE SMOOTH",
"231 -96 OFFCURVE",
"221 -96 OFFCURVE",
"211 -96 CURVE SMOOTH",
"145 -96 OFFCURVE",
"93 -49 OFFCURVE",
"93 18 CURVE SMOOTH",
"93 97 OFFCURVE",
"163 155 OFFCURVE",
"163 165 CURVE SMOOTH",
"163 171 OFFCURVE",
"157 177 OFFCURVE",
"151 177 CURVE SMOOTH",
"147 177 OFFCURVE",
"144 175 OFFCURVE",
"142 173 CURVE SMOOTH",
"94 124 OFFCURVE",
"48 48 OFFCURVE",
"48 -23 CURVE SMOOTH",
"48 -98 OFFCURVE",
"101 -132 OFFCURVE",
"171 -132 CURVE SMOOTH"
);
}
);
};
layerId = "95C423A7-595F-441F-915A-E5EF8B5EF971";
paths = (
{
closed = 1;
nodes = (
"192 -132 OFFCURVE",
"213 -130 OFFCURVE",
"233 -125 CURVE SMOOTH",
"288 -113 OFFCURVE",
"337 -94 OFFCURVE",
"385 -65 CURVE SMOOTH",
"601 63 OFFCURVE",
"782 368 OFFCURVE",
"858 603 CURVE SMOOTH",
"871 642 OFFCURVE",
"877 682 OFFCURVE",
"877 722 CURVE SMOOTH",
"877 824 OFFCURVE",
"833 941 OFFCURVE",
"714 941 CURVE SMOOTH",
"629 941 OFFCURVE",
"537 881 OFFCURVE",
"473 830 CURVE SMOOTH",
"363 743 OFFCURVE",
"252 606 OFFCURVE",
"225 465 CURVE SMOOTH",
"222 449 OFFCURVE",
"220 433 OFFCURVE",
"220 417 CURVE SMOOTH",
"220 349 OFFCURVE",
"256 276 OFFCURVE",
"333 276 CURVE SMOOTH",
"469 276 OFFCURVE",
"608 466 OFFCURVE",
"639 586 CURVE SMOOTH",
"642 601 OFFCURVE",
"645 617 OFFCURVE",
"645 632 CURVE SMOOTH",
"645 658 OFFCURVE",
"636 681 OFFCURVE",
"607 681 CURVE SMOOTH",
"575 681 OFFCURVE",
"541 654 OFFCURVE",
"520 632 CURVE SMOOTH",
"518 630 OFFCURVE",
"516 627 OFFCURVE",
"516 624 CURVE SMOOTH",
"516 617 OFFCURVE",
"522 612 OFFCURVE",
"529 612 CURVE SMOOTH",
"540 612 OFFCURVE",
"567 652 OFFCURVE",
"595 652 CURVE SMOOTH",
"605 652 OFFCURVE",
"606 635 OFFCURVE",
"606 630 CURVE SMOOTH",
"606 614 OFFCURVE",
"602 599 OFFCURVE",
"598 584 CURVE SMOOTH",
"570 470 OFFCURVE",
"468 317 OFFCURVE",
"343 300 CURVE",
"334 300 LINE SMOOTH",
"279 300 OFFCURVE",
"263 355 OFFCURVE",
"263 401 CURVE SMOOTH",
"263 557 OFFCURVE",
"394 720 OFFCURVE",
"509 812 CURVE SMOOTH",
"563 855 OFFCURVE",
"648 913 OFFCURVE",
"721 913 CURVE SMOOTH",
"807 913 OFFCURVE",
"832 830 OFFCURVE",
"832 758 CURVE SMOOTH",
"832 712 OFFCURVE",
"823 665 OFFCURVE",
"809 621 CURVE SMOOTH",
"733 387 OFFCURVE",
"581 69 OFFCURVE",
"357 -51 CURVE SMOOTH",
"320 -71 OFFCURVE",
"282 -84 OFFCURVE",
"241 -93 CURVE SMOOTH",
"231 -96 OFFCURVE",
"221 -96 OFFCURVE",
"211 -96 CURVE SMOOTH",
"145 -96 OFFCURVE",
"93 -49 OFFCURVE",
"93 18 CURVE SMOOTH",
"93 97 OFFCURVE",
"163 155 OFFCURVE",
"163 165 CURVE SMOOTH",
"163 171 OFFCURVE",
"157 177 OFFCURVE",
"151 177 CURVE SMOOTH",
"147 177 OFFCURVE",
"144 175 OFFCURVE",
"142 173 CURVE SMOOTH",
"94 124 OFFCURVE",
"48 48 OFFCURVE",
"48 -23 CURVE SMOOTH",
"48 -98 OFFCURVE",
"101 -132 OFFCURVE",
"171 -132 CURVE SMOOTH"
);
},
{
closed = 1;
nodes = (
"725 957 OFFCURVE",
"728 958 OFFCURVE",
"730 960 CURVE",
"776 987 OFFCURVE",
"823 1011 OFFCURVE",
"870 1036 CURVE SMOOTH",
"882 1042 OFFCURVE",
"904 1055 OFFCURVE",
"904 1071 CURVE SMOOTH",
"904 1083 OFFCURVE",
"891 1087 OFFCURVE",
"881 1087 CURVE SMOOTH",
"863 1087 OFFCURVE",
"847 1077 OFFCURVE",
"835 1066 CURVE SMOOTH",
"818 1051 OFFCURVE",
"715 980 OFFCURVE",
"715 964 CURVE SMOOTH",
"715 960 OFFCURVE",
"717 957 OFFCURVE",
"721 957 CURVE SMOOTH"
);
}
);
width = 875;
}
);
note = Iacute;
unicode = 00CD;
},
{
color = 11;
glyphname = Icircumflex;
lastChange = "2021-09-15 00:52:07 +0000";
layers = (
{
background = {
paths = (
{
closed = 1;
nodes = (
"933 981 LINE",
"889 1014 OFFCURVE",
"845 1048 OFFCURVE",
"808 1089 CURVE",
"802 1091 LINE",
"786 1090 OFFCURVE",
"666 991 OFFCURVE",
"666 978 CURVE SMOOTH",
"666 975 OFFCURVE",
"670 968 OFFCURVE",
"674 968 CURVE SMOOTH",
"684 968 OFFCURVE",
"774 1040 OFFCURVE",
"788 1052 CURVE",
"808 1030 OFFCURVE",
"906 965 OFFCURVE",
"934 964 CURVE",
"938 971 LINE"
);
},
{
closed = 1;
nodes = (
"191 -119 OFFCURVE",
"212 -117 OFFCURVE",
"232 -112 CURVE SMOOTH",
"287 -100 OFFCURVE",
"336 -81 OFFCURVE",
"384 -52 CURVE SMOOTH",
"600 76 OFFCURVE",
"781 381 OFFCURVE",
"857 616 CURVE SMOOTH",
"870 655 OFFCURVE",
"876 695 OFFCURVE",
"876 735 CURVE SMOOTH",
"876 837 OFFCURVE",
"832 954 OFFCURVE",
"713 954 CURVE SMOOTH",
"628 954 OFFCURVE",
"536 894 OFFCURVE",
"472 843 CURVE SMOOTH",
"362 756 OFFCURVE",
"251 619 OFFCURVE",
"224 478 CURVE SMOOTH",
"221 462 OFFCURVE",
"219 446 OFFCURVE",
"219 430 CURVE SMOOTH",
"219 362 OFFCURVE",
"255 289 OFFCURVE",
"332 289 CURVE SMOOTH",
"468 289 OFFCURVE",
"607 479 OFFCURVE",
"638 599 CURVE SMOOTH",
"641 614 OFFCURVE",
"644 630 OFFCURVE",
"644 645 CURVE SMOOTH",
"644 671 OFFCURVE",
"635 694 OFFCURVE",
"606 694 CURVE SMOOTH",
"574 694 OFFCURVE",
"540 667 OFFCURVE",
"519 645 CURVE SMOOTH",
"517 643 OFFCURVE",
"515 640 OFFCURVE",
"515 637 CURVE SMOOTH",
"515 630 OFFCURVE",
"521 625 OFFCURVE",
"528 625 CURVE SMOOTH",
"539 625 OFFCURVE",
"566 665 OFFCURVE",
"594 665 CURVE SMOOTH",
"604 665 OFFCURVE",
"605 648 OFFCURVE",
"605 643 CURVE SMOOTH",
"605 627 OFFCURVE",
"601 612 OFFCURVE",
"597 597 CURVE SMOOTH",
"569 483 OFFCURVE",
"467 330 OFFCURVE",
"342 313 CURVE SMOOTH",
"339 313 OFFCURVE",
"336 313 OFFCURVE",
"333 313 CURVE SMOOTH",
"278 313 OFFCURVE",
"262 368 OFFCURVE",
"262 414 CURVE SMOOTH",
"262 570 OFFCURVE",
"393 733 OFFCURVE",
"508 825 CURVE SMOOTH",
"562 868 OFFCURVE",
"647 926 OFFCURVE",
"720 926 CURVE SMOOTH",
"806 926 OFFCURVE",
"831 843 OFFCURVE",
"831 771 CURVE SMOOTH",
"831 725 OFFCURVE",
"822 678 OFFCURVE",
"808 634 CURVE SMOOTH",
"732 400 OFFCURVE",
"580 82 OFFCURVE",
"356 -38 CURVE SMOOTH",
"319 -58 OFFCURVE",
"281 -71 OFFCURVE",
"240 -80 CURVE SMOOTH",
"230 -83 OFFCURVE",
"220 -83 OFFCURVE",
"210 -83 CURVE SMOOTH",
"144 -83 OFFCURVE",
"92 -36 OFFCURVE",
"92 31 CURVE SMOOTH",
"92 110 OFFCURVE",
"162 168 OFFCURVE",
"162 178 CURVE SMOOTH",
"162 184 OFFCURVE",
"156 190 OFFCURVE",
"150 190 CURVE SMOOTH",
"146 190 OFFCURVE",
"143 188 OFFCURVE",
"141 186 CURVE SMOOTH",
"93 137 OFFCURVE",
"47 61 OFFCURVE",
"47 -10 CURVE SMOOTH",
"47 -85 OFFCURVE",
"100 -119 OFFCURVE",
"170 -119 CURVE SMOOTH"
);
}
);
};
layerId = "95C423A7-595F-441F-915A-E5EF8B5EF971";
paths = (
{
closed = 1;
nodes = (
"191 -119 OFFCURVE",
"212 -117 OFFCURVE",
"232 -112 CURVE SMOOTH",
"287 -100 OFFCURVE",
"336 -81 OFFCURVE",
"384 -52 CURVE SMOOTH",
"600 76 OFFCURVE",
"781 381 OFFCURVE",
"857 616 CURVE SMOOTH",
"870 655 OFFCURVE",
"876 695 OFFCURVE",
"876 735 CURVE SMOOTH",
"876 837 OFFCURVE",
"832 954 OFFCURVE",
"713 954 CURVE SMOOTH",
"628 954 OFFCURVE",
"536 894 OFFCURVE",
"472 843 CURVE SMOOTH",
"362 756 OFFCURVE",
"251 619 OFFCURVE",
"224 478 CURVE SMOOTH",
"221 462 OFFCURVE",
"219 446 OFFCURVE",
"219 430 CURVE SMOOTH",
"219 362 OFFCURVE",
"255 289 OFFCURVE",
"332 289 CURVE SMOOTH",
"468 289 OFFCURVE",
"607 479 OFFCURVE",
"638 599 CURVE SMOOTH",
"641 614 OFFCURVE",
"644 630 OFFCURVE",
"644 645 CURVE SMOOTH",
"644 671 OFFCURVE",
"635 694 OFFCURVE",
"606 694 CURVE SMOOTH",
"574 694 OFFCURVE",
"540 667 OFFCURVE",
"519 645 CURVE SMOOTH",
"517 643 OFFCURVE",
"515 640 OFFCURVE",
"515 637 CURVE SMOOTH",
"515 630 OFFCURVE",
"521 625 OFFCURVE",
"528 625 CURVE SMOOTH",
"539 625 OFFCURVE",
"566 665 OFFCURVE",
"594 665 CURVE SMOOTH",
"604 665 OFFCURVE",
"605 648 OFFCURVE",
"605 643 CURVE SMOOTH",
"605 627 OFFCURVE",
"601 612 OFFCURVE",
"597 597 CURVE SMOOTH",
"569 483 OFFCURVE",
"467 330 OFFCURVE",
"342 313 CURVE",
"333 313 LINE SMOOTH",
"278 313 OFFCURVE",
"262 368 OFFCURVE",
"262 414 CURVE SMOOTH",
"262 570 OFFCURVE",
"393 733 OFFCURVE",
"508 825 CURVE SMOOTH",
"562 868 OFFCURVE",
"647 926 OFFCURVE",
"720 926 CURVE SMOOTH",
"806 926 OFFCURVE",
"831 843 OFFCURVE",
"831 771 CURVE SMOOTH",
"831 725 OFFCURVE",
"822 678 OFFCURVE",
"808 634 CURVE SMOOTH",
"732 400 OFFCURVE",
"580 82 OFFCURVE",
"356 -38 CURVE SMOOTH",
"319 -58 OFFCURVE",
"281 -71 OFFCURVE",
"240 -80 CURVE SMOOTH",
"230 -83 OFFCURVE",
"220 -83 OFFCURVE",
"210 -83 CURVE SMOOTH",
"144 -83 OFFCURVE",
"92 -36 OFFCURVE",
"92 31 CURVE SMOOTH",
"92 110 OFFCURVE",
"162 168 OFFCURVE",
"162 178 CURVE SMOOTH",
"162 184 OFFCURVE",
"156 190 OFFCURVE",
"150 190 CURVE SMOOTH",
"146 190 OFFCURVE",
"143 188 OFFCURVE",
"141 186 CURVE SMOOTH",
"93 137 OFFCURVE",
"47 61 OFFCURVE",
"47 -10 CURVE SMOOTH",
"47 -85 OFFCURVE",
"100 -119 OFFCURVE",
"170 -119 CURVE SMOOTH"
);
},
{
closed = 1;
nodes = (
"938 971 LINE",
"933 981 LINE",
"889 1014 OFFCURVE",
"845 1048 OFFCURVE",
"808 1089 CURVE",
"802 1091 LINE",
"786 1090 OFFCURVE",
"666 991 OFFCURVE",
"666 978 CURVE SMOOTH",
"666 975 OFFCURVE",
"670 968 OFFCURVE",
"674 968 CURVE SMOOTH",
"684 968 OFFCURVE",
"774 1040 OFFCURVE",
"788 1052 CURVE",
"808 1030 OFFCURVE",
"906 965 OFFCURVE",
"934 964 CURVE"
);
}
);
width = 875;
}
);
note = Icircumflex;
unicode = 00CE;
},
{
color = 11;
glyphname = Idieresis;
lastChange = "2021-09-15 00:52:07 +0000";
layers = (
{
background = {
paths = (
{
closed = 1;
nodes = (
"761 1089 LINE SMOOTH",
"761 1091 OFFCURVE",
"759 1091 OFFCURVE",
"758 1091 CURVE SMOOTH",
"739 1091 OFFCURVE",
"682 1055 OFFCURVE",
"682 1033 CURVE SMOOTH",
"682 1024 OFFCURVE",
"693 1004 OFFCURVE",
"703 1004 CURVE SMOOTH",
"719 1004 OFFCURVE",
"729 1025 OFFCURVE",
"732 1037 CURVE SMOOTH",
"736 1049 OFFCURVE",
"740 1061 OFFCURVE",
"747 1071 CURVE SMOOTH",
"749 1074 OFFCURVE",
"761 1087 OFFCURVE",
"761 1088 CURVE SMOOTH",
"761 1090 LINE"
);
},
{
closed = 1;
nodes = (
"882 1089 LINE SMOOTH",
"882 1091 OFFCURVE",
"880 1091 OFFCURVE",
"879 1091 CURVE SMOOTH",
"860 1091 OFFCURVE",
"803 1055 OFFCURVE",
"803 1033 CURVE SMOOTH",
"803 1024 OFFCURVE",
"814 1004 OFFCURVE",
"824 1004 CURVE SMOOTH",
"840 1004 OFFCURVE",
"850 1025 OFFCURVE",
"853 1037 CURVE SMOOTH",
"857 1049 OFFCURVE",
"861 1061 OFFCURVE",
"868 1071 CURVE SMOOTH",
"870 1074 OFFCURVE",
"882 1087 OFFCURVE",
"882 1088 CURVE SMOOTH",
"882 1090 LINE"
);
},
{
closed = 1;
nodes = (
"194 -99 OFFCURVE",
"215 -97 OFFCURVE",
"235 -92 CURVE SMOOTH",
"290 -80 OFFCURVE",
"339 -61 OFFCURVE",
"387 -32 CURVE SMOOTH",
"603 96 OFFCURVE",
"784 401 OFFCURVE",
"860 636 CURVE SMOOTH",
"873 675 OFFCURVE",
"879 715 OFFCURVE",
"879 755 CURVE SMOOTH",
"879 857 OFFCURVE",
"835 974 OFFCURVE",
"716 974 CURVE SMOOTH",
"631 974 OFFCURVE",
"539 914 OFFCURVE",
"475 863 CURVE SMOOTH",
"365 776 OFFCURVE",
"254 639 OFFCURVE",
"227 498 CURVE SMOOTH",
"224 482 OFFCURVE",
"222 466 OFFCURVE",
"222 450 CURVE SMOOTH",
"222 382 OFFCURVE",
"258 309 OFFCURVE",
"335 309 CURVE SMOOTH",
"471 309 OFFCURVE",
"610 499 OFFCURVE",
"641 619 CURVE SMOOTH",
"644 634 OFFCURVE",
"647 650 OFFCURVE",
"647 665 CURVE SMOOTH",
"647 691 OFFCURVE",
"638 714 OFFCURVE",
"609 714 CURVE SMOOTH",
"577 714 OFFCURVE",
"543 687 OFFCURVE",
"522 665 CURVE SMOOTH",
"520 663 OFFCURVE",
"518 660 OFFCURVE",
"518 657 CURVE SMOOTH",
"518 650 OFFCURVE",
"524 645 OFFCURVE",
"531 645 CURVE SMOOTH",
"542 645 OFFCURVE",
"569 685 OFFCURVE",
"597 685 CURVE SMOOTH",
"607 685 OFFCURVE",
"608 668 OFFCURVE",
"608 663 CURVE SMOOTH",
"608 647 OFFCURVE",
"604 632 OFFCURVE",
"600 617 CURVE SMOOTH",
"572 503 OFFCURVE",
"470 350 OFFCURVE",
"345 333 CURVE SMOOTH",
"342 333 OFFCURVE",
"339 333 OFFCURVE",
"336 333 CURVE SMOOTH",
"281 333 OFFCURVE",
"265 388 OFFCURVE",
"265 434 CURVE SMOOTH",
"265 590 OFFCURVE",
"396 753 OFFCURVE",
"511 845 CURVE SMOOTH",
"565 888 OFFCURVE",
"650 946 OFFCURVE",
"723 946 CURVE SMOOTH",
"809 946 OFFCURVE",
"834 863 OFFCURVE",
"834 791 CURVE SMOOTH",
"834 745 OFFCURVE",
"825 698 OFFCURVE",
"811 654 CURVE SMOOTH",
"735 420 OFFCURVE",
"583 102 OFFCURVE",
"359 -18 CURVE SMOOTH",
"322 -38 OFFCURVE",
"284 -51 OFFCURVE",
"243 -60 CURVE SMOOTH",
"233 -63 OFFCURVE",
"223 -63 OFFCURVE",
"213 -63 CURVE SMOOTH",
"147 -63 OFFCURVE",
"95 -16 OFFCURVE",
"95 51 CURVE SMOOTH",
"95 130 OFFCURVE",
"165 188 OFFCURVE",
"165 198 CURVE SMOOTH",
"165 204 OFFCURVE",
"159 210 OFFCURVE",
"153 210 CURVE SMOOTH",
"149 210 OFFCURVE",
"146 208 OFFCURVE",
"144 206 CURVE SMOOTH",
"96 157 OFFCURVE",
"50 81 OFFCURVE",
"50 10 CURVE SMOOTH",
"50 -65 OFFCURVE",
"103 -99 OFFCURVE",
"173 -99 CURVE SMOOTH"
);
}
);
};
layerId = "95C423A7-595F-441F-915A-E5EF8B5EF971";
paths = (
{
closed = 1;
nodes = (
"194 -99 OFFCURVE",
"215 -97 OFFCURVE",
"235 -92 CURVE SMOOTH",
"290 -80 OFFCURVE",
"339 -61 OFFCURVE",
"387 -32 CURVE SMOOTH",
"603 96 OFFCURVE",
"784 401 OFFCURVE",
"860 636 CURVE SMOOTH",
"873 675 OFFCURVE",
"879 715 OFFCURVE",
"879 755 CURVE SMOOTH",
"879 857 OFFCURVE",
"835 974 OFFCURVE",
"716 974 CURVE SMOOTH",
"631 974 OFFCURVE",
"539 914 OFFCURVE",
"475 863 CURVE SMOOTH",
"365 776 OFFCURVE",
"254 639 OFFCURVE",
"227 498 CURVE SMOOTH",
"224 482 OFFCURVE",
"222 466 OFFCURVE",
"222 450 CURVE SMOOTH",
"222 382 OFFCURVE",
"258 309 OFFCURVE",
"335 309 CURVE SMOOTH",
"471 309 OFFCURVE",
"610 499 OFFCURVE",
"641 619 CURVE SMOOTH",
"644 634 OFFCURVE",
"647 650 OFFCURVE",
"647 665 CURVE SMOOTH",
"647 691 OFFCURVE",
"638 714 OFFCURVE",
"609 714 CURVE SMOOTH",
"577 714 OFFCURVE",
"543 687 OFFCURVE",
"522 665 CURVE SMOOTH",
"520 663 OFFCURVE",
"518 660 OFFCURVE",
"518 657 CURVE SMOOTH",
"518 650 OFFCURVE",
"524 645 OFFCURVE",
"531 645 CURVE SMOOTH",
"542 645 OFFCURVE",
"569 685 OFFCURVE",
"597 685 CURVE SMOOTH",
"607 685 OFFCURVE",
"608 668 OFFCURVE",
"608 663 CURVE SMOOTH",
"608 647 OFFCURVE",
"604 632 OFFCURVE",
"600 617 CURVE SMOOTH",
"572 503 OFFCURVE",
"470 350 OFFCURVE",
"345 333 CURVE",
"336 333 LINE SMOOTH",
"281 333 OFFCURVE",
"265 388 OFFCURVE",
"265 434 CURVE SMOOTH",
"265 590 OFFCURVE",
"396 753 OFFCURVE",
"511 845 CURVE SMOOTH",
"565 888 OFFCURVE",
"650 946 OFFCURVE",
"723 946 CURVE SMOOTH",
"809 946 OFFCURVE",
"834 863 OFFCURVE",
"834 791 CURVE SMOOTH",
"834 745 OFFCURVE",
"825 698 OFFCURVE",
"811 654 CURVE SMOOTH",
"735 420 OFFCURVE",
"583 102 OFFCURVE",
"359 -18 CURVE SMOOTH",
"322 -38 OFFCURVE",
"284 -51 OFFCURVE",
"243 -60 CURVE SMOOTH",
"233 -63 OFFCURVE",
"223 -63 OFFCURVE",
"213 -63 CURVE SMOOTH",
"147 -63 OFFCURVE",
"95 -16 OFFCURVE",
"95 51 CURVE SMOOTH",
"95 130 OFFCURVE",
"165 188 OFFCURVE",
"165 198 CURVE SMOOTH",
"165 204 OFFCURVE",
"159 210 OFFCURVE",
"153 210 CURVE SMOOTH",
"149 210 OFFCURVE",
"146 208 OFFCURVE",
"144 206 CURVE SMOOTH",
"96 157 OFFCURVE",
"50 81 OFFCURVE",
"50 10 CURVE SMOOTH",
"50 -65 OFFCURVE",
"103 -99 OFFCURVE",
"173 -99 CURVE SMOOTH"
);
},
{
closed = 1;
nodes = (
"719 1004 OFFCURVE",
"729 1025 OFFCURVE",
"732 1037 CURVE SMOOTH",
"736 1049 OFFCURVE",
"740 1061 OFFCURVE",
"747 1071 CURVE SMOOTH",
"749 1074 OFFCURVE",
"761 1087 OFFCURVE",
"761 1088 CURVE SMOOTH",
"761 1089 LINE SMOOTH",
"761 1091 OFFCURVE",
"759 1091 OFFCURVE",
"758 1091 CURVE SMOOTH",
"739 1091 OFFCURVE",
"682 1055 OFFCURVE",
"682 1033 CURVE SMOOTH",
"682 1024 OFFCURVE",
"693 1004 OFFCURVE",
"703 1004 CURVE SMOOTH"
);
},
{
closed = 1;
nodes = (
"840 1004 OFFCURVE",
"850 1025 OFFCURVE",
"853 1037 CURVE SMOOTH",
"857 1049 OFFCURVE",
"861 1061 OFFCURVE",
"868 1071 CURVE SMOOTH",
"870 1074 OFFCURVE",
"882 1087 OFFCURVE",
"882 1088 CURVE SMOOTH",
"882 1089 LINE SMOOTH",
"882 1091 OFFCURVE",
"880 1091 OFFCURVE",
"879 1091 CURVE SMOOTH",
"860 1091 OFFCURVE",
"803 1055 OFFCURVE",
"803 1033 CURVE SMOOTH",
"803 1024 OFFCURVE",
"814 1004 OFFCURVE",
"824 1004 CURVE SMOOTH"
);
}
);
width = 875;
}
);
note = Idieresis;
unicode = 00CF;
},
{
color = 11;
glyphname = Igrave;
lastChange = "2021-09-15 00:52:07 +0000";
layers = (
{
background = {
paths = (
{
closed = 1;
nodes = (
"867 954 OFFCURVE",
"869 957 OFFCURVE",
"869 961 CURVE SMOOTH",
"869 977 OFFCURVE",
"766 1048 OFFCURVE",
"749 1063 CURVE SMOOTH",
"737 1074 OFFCURVE",
"721 1084 OFFCURVE",
"703 1084 CURVE SMOOTH",
"694 1084 OFFCURVE",
"680 1079 OFFCURVE",
"680 1068 CURVE SMOOTH",
"680 1052 OFFCURVE",
"702 1039 OFFCURVE",
"714 1033 CURVE SMOOTH",
"761 1008 OFFCURVE",
"808 984 OFFCURVE",
"854 957 CURVE SMOOTH",
"857 955 OFFCURVE",
"860 954 OFFCURVE",
"863 954 CURVE SMOOTH"
);
},
{
closed = 1;
nodes = (
"191 -116 OFFCURVE",
"212 -114 OFFCURVE",
"232 -109 CURVE SMOOTH",
"287 -97 OFFCURVE",
"336 -78 OFFCURVE",
"384 -49 CURVE SMOOTH",
"600 79 OFFCURVE",
"781 384 OFFCURVE",
"857 619 CURVE SMOOTH",
"870 658 OFFCURVE",
"876 698 OFFCURVE",
"876 738 CURVE SMOOTH",
"876 840 OFFCURVE",
"832 957 OFFCURVE",
"713 957 CURVE SMOOTH",
"628 957 OFFCURVE",
"536 897 OFFCURVE",
"472 846 CURVE SMOOTH",
"362 759 OFFCURVE",
"251 622 OFFCURVE",
"224 481 CURVE SMOOTH",
"221 465 OFFCURVE",
"219 449 OFFCURVE",
"219 433 CURVE SMOOTH",
"219 365 OFFCURVE",
"255 292 OFFCURVE",
"332 292 CURVE SMOOTH",
"468 292 OFFCURVE",
"607 482 OFFCURVE",
"638 602 CURVE SMOOTH",
"641 617 OFFCURVE",
"644 633 OFFCURVE",
"644 648 CURVE SMOOTH",
"644 674 OFFCURVE",
"635 697 OFFCURVE",
"606 697 CURVE SMOOTH",
"574 697 OFFCURVE",
"540 670 OFFCURVE",
"519 648 CURVE SMOOTH",
"517 646 OFFCURVE",
"515 643 OFFCURVE",
"515 640 CURVE SMOOTH",
"515 633 OFFCURVE",
"521 628 OFFCURVE",
"528 628 CURVE SMOOTH",
"539 628 OFFCURVE",
"566 668 OFFCURVE",
"594 668 CURVE SMOOTH",
"604 668 OFFCURVE",
"605 651 OFFCURVE",
"605 646 CURVE SMOOTH",
"605 630 OFFCURVE",
"601 615 OFFCURVE",
"597 600 CURVE SMOOTH",
"569 486 OFFCURVE",
"467 333 OFFCURVE",
"342 316 CURVE SMOOTH",
"339 316 OFFCURVE",
"336 316 OFFCURVE",
"333 316 CURVE SMOOTH",
"278 316 OFFCURVE",
"262 371 OFFCURVE",
"262 417 CURVE SMOOTH",
"262 573 OFFCURVE",
"393 736 OFFCURVE",
"508 828 CURVE SMOOTH",
"562 871 OFFCURVE",
"647 929 OFFCURVE",
"720 929 CURVE SMOOTH",
"806 929 OFFCURVE",
"831 846 OFFCURVE",
"831 774 CURVE SMOOTH",
"831 728 OFFCURVE",
"822 681 OFFCURVE",
"808 637 CURVE SMOOTH",
"732 403 OFFCURVE",
"580 85 OFFCURVE",
"356 -35 CURVE SMOOTH",
"319 -55 OFFCURVE",
"281 -68 OFFCURVE",
"240 -77 CURVE SMOOTH",
"230 -80 OFFCURVE",
"220 -80 OFFCURVE",
"210 -80 CURVE SMOOTH",
"144 -80 OFFCURVE",
"92 -33 OFFCURVE",
"92 34 CURVE SMOOTH",
"92 113 OFFCURVE",
"162 171 OFFCURVE",
"162 181 CURVE SMOOTH",
"162 187 OFFCURVE",
"156 193 OFFCURVE",
"150 193 CURVE SMOOTH",
"146 193 OFFCURVE",
"143 191 OFFCURVE",
"141 189 CURVE SMOOTH",
"93 140 OFFCURVE",
"47 64 OFFCURVE",
"47 -7 CURVE SMOOTH",
"47 -82 OFFCURVE",
"100 -116 OFFCURVE",
"170 -116 CURVE SMOOTH"
);
}
);
};
layerId = "95C423A7-595F-441F-915A-E5EF8B5EF971";
paths = (
{
closed = 1;
nodes = (
"191 -116 OFFCURVE",
"212 -114 OFFCURVE",
"232 -109 CURVE SMOOTH",
"287 -97 OFFCURVE",
"336 -78 OFFCURVE",
"384 -49 CURVE SMOOTH",
"600 79 OFFCURVE",
"781 384 OFFCURVE",
"857 619 CURVE SMOOTH",
"870 658 OFFCURVE",
"876 698 OFFCURVE",
"876 738 CURVE SMOOTH",
"876 840 OFFCURVE",
"832 957 OFFCURVE",
"713 957 CURVE SMOOTH",
"628 957 OFFCURVE",
"536 897 OFFCURVE",
"472 846 CURVE SMOOTH",
"362 759 OFFCURVE",
"251 622 OFFCURVE",
"224 481 CURVE SMOOTH",
"221 465 OFFCURVE",
"219 449 OFFCURVE",
"219 433 CURVE SMOOTH",
"219 365 OFFCURVE",
"255 292 OFFCURVE",
"332 292 CURVE SMOOTH",
"468 292 OFFCURVE",
"607 482 OFFCURVE",
"638 602 CURVE SMOOTH",
"641 617 OFFCURVE",
"644 633 OFFCURVE",
"644 648 CURVE SMOOTH",
"644 674 OFFCURVE",
"635 697 OFFCURVE",
"606 697 CURVE SMOOTH",
"574 697 OFFCURVE",
"540 670 OFFCURVE",
"519 648 CURVE SMOOTH",
"517 646 OFFCURVE",
"515 643 OFFCURVE",
"515 640 CURVE SMOOTH",
"515 633 OFFCURVE",
"521 628 OFFCURVE",
"528 628 CURVE SMOOTH",
"539 628 OFFCURVE",
"566 668 OFFCURVE",
"594 668 CURVE SMOOTH",
"604 668 OFFCURVE",
"605 651 OFFCURVE",
"605 646 CURVE SMOOTH",
"605 630 OFFCURVE",
"601 615 OFFCURVE",
"597 600 CURVE SMOOTH",
"569 486 OFFCURVE",
"467 333 OFFCURVE",
"342 316 CURVE",
"333 316 LINE SMOOTH",
"278 316 OFFCURVE",
"262 371 OFFCURVE",
"262 417 CURVE SMOOTH",
"262 573 OFFCURVE",
"393 736 OFFCURVE",
"508 828 CURVE SMOOTH",
"562 871 OFFCURVE",
"647 929 OFFCURVE",
"720 929 CURVE SMOOTH",
"806 929 OFFCURVE",
"831 846 OFFCURVE",
"831 774 CURVE SMOOTH",
"831 728 OFFCURVE",
"822 681 OFFCURVE",
"808 637 CURVE SMOOTH",
"732 403 OFFCURVE",
"580 85 OFFCURVE",
"356 -35 CURVE SMOOTH",
"319 -55 OFFCURVE",
"281 -68 OFFCURVE",
"240 -77 CURVE SMOOTH",
"230 -80 OFFCURVE",
"220 -80 OFFCURVE",
"210 -80 CURVE SMOOTH",
"144 -80 OFFCURVE",
"92 -33 OFFCURVE",
"92 34 CURVE SMOOTH",
"92 113 OFFCURVE",
"162 171 OFFCURVE",
"162 181 CURVE SMOOTH",
"162 187 OFFCURVE",
"156 193 OFFCURVE",
"150 193 CURVE SMOOTH",
"146 193 OFFCURVE",
"143 191 OFFCURVE",
"141 189 CURVE SMOOTH",
"93 140 OFFCURVE",
"47 64 OFFCURVE",
"47 -7 CURVE SMOOTH",
"47 -82 OFFCURVE",
"100 -116 OFFCURVE",
"170 -116 CURVE SMOOTH"
);
},
{
closed = 1;
nodes = (
"867 954 OFFCURVE",
"869 957 OFFCURVE",
"869 961 CURVE SMOOTH",
"869 977 OFFCURVE",
"766 1048 OFFCURVE",
"749 1063 CURVE SMOOTH",
"737 1074 OFFCURVE",
"721 1084 OFFCURVE",
"703 1084 CURVE SMOOTH",
"694 1084 OFFCURVE",
"680 1079 OFFCURVE",
"680 1068 CURVE SMOOTH",
"680 1052 OFFCURVE",
"702 1039 OFFCURVE",
"714 1033 CURVE SMOOTH",
"761 1008 OFFCURVE",
"808 984 OFFCURVE",
"854 957 CURVE SMOOTH",
"857 955 OFFCURVE",
"860 954 OFFCURVE",
"863 954 CURVE SMOOTH"
);
}
);
width = 875;
}
);
note = Igrave;
unicode = 00CC;
},
{
glyphname = J;
lastChange = "2021-09-15 00:52:07 +0000";
layers = (
{
background = {
paths = (
{
closed = 1;
nodes = (
"969 370 OFFCURVE",
"1047 520 OFFCURVE",
"1047 655 CURVE SMOOTH",
"1047 836 OFFCURVE",
"892 888 OFFCURVE",
"738 888 CURVE SMOOTH",
"553 888 OFFCURVE",
"251 803 OFFCURVE",
"119 667 CURVE SMOOTH",
"83 630 OFFCURVE",
"51 579 OFFCURVE",
"51 526 CURVE SMOOTH",
"51 401 OFFCURVE",
"220 384 OFFCURVE",
"313 384 CURVE SMOOTH",
"361 384 OFFCURVE",
"410 389 OFFCURVE",
"458 398 CURVE SMOOTH",
"543 413 OFFCURVE",
"706 460 OFFCURVE",
"764 528 CURVE SMOOTH",
"780 548 OFFCURVE",
"797 572 OFFCURVE",
"797 598 CURVE SMOOTH",
"797 678 OFFCURVE",
"655 689 OFFCURVE",
"598 689 CURVE SMOOTH",
"508 689 OFFCURVE",
"287 656 OFFCURVE",
"262 555 CURVE",
"261 553 OFFCURVE",
"261 550 OFFCURVE",
"261 547 CURVE SMOOTH",
"261 532 OFFCURVE",
"275 509 OFFCURVE",
"292 509 CURVE SMOOTH",
"298 509 OFFCURVE",
"302 513 OFFCURVE",
"302 519 CURVE SMOOTH",
"302 530 OFFCURVE",
"282 531 OFFCURVE",
"282 546 CURVE SMOOTH",
"282 578 OFFCURVE",
"358 608 OFFCURVE",
"380 617 CURVE SMOOTH",
"456 646 OFFCURVE",
"542 666 OFFCURVE",
"624 666 CURVE SMOOTH",
"661 666 OFFCURVE",
"766 659 OFFCURVE",
"766 606 CURVE SMOOTH",
"766 584 OFFCURVE",
"750 563 OFFCURVE",
"737 547 CURVE SMOOTH",
"722 528 OFFCURVE",
"696 511 OFFCURVE",
"675 499 CURVE SMOOTH",
"582 446 OFFCURVE",
"454 418 OFFCURVE",
"348 418 CURVE SMOOTH",
"268 418 OFFCURVE",
"91 438 OFFCURVE",
"91 546 CURVE SMOOTH",
"91 586 OFFCURVE",
"117 621 OFFCURVE",
"143 649 CURVE SMOOTH",
"272 784 OFFCURVE",
"509 838 OFFCURVE",
"686 859 CURVE SMOOTH",
"707 861 OFFCURVE",
"728 863 OFFCURVE",
"748 863 CURVE SMOOTH",
"891 863 OFFCURVE",
"989 792 OFFCURVE",
"989 643 CURVE SMOOTH",
"989 511 OFFCURVE",
"914 369 OFFCURVE",
"835 269 CURVE",
"756 269 OFFCURVE",
"673 261 OFFCURVE",
"595 245 CURVE SMOOTH",
"476 220 OFFCURVE",
"339 173 OFFCURVE",
"244 92 CURVE SMOOTH",
"225 75 OFFCURVE",
"203 54 OFFCURVE",
"190 31 CURVE SMOOTH",
"181 15 OFFCURVE",
"173 -1 OFFCURVE",
"173 -19 CURVE SMOOTH",
"173 -72 OFFCURVE",
"233 -83 OFFCURVE",
"274 -83 CURVE SMOOTH",
"309 -83 OFFCURVE",
"344 -77 OFFCURVE",
"378 -69 CURVE SMOOTH",
"564 -24 OFFCURVE",
"742 97 OFFCURVE",
"866 241 CURVE",
"884 240 OFFCURVE",
"964 238 OFFCURVE",
"964 211 CURVE SMOOTH",
"964 208 OFFCURVE",
"963 206 OFFCURVE",
"963 203 CURVE SMOOTH",
"963 198 OFFCURVE",
"969 196 OFFCURVE",
"973 196 CURVE SMOOTH",
"986 196 OFFCURVE",
"990 205 OFFCURVE",
"990 216 CURVE SMOOTH",
"990 255 OFFCURVE",
"915 264 OFFCURVE",
"886 266 CURVE"
);
},
{
closed = 1;
nodes = (
"223 1 OFFCURVE",
"231 13 OFFCURVE",
"237 24 CURVE SMOOTH",
"248 41 OFFCURVE",
"263 57 OFFCURVE",
"278 72 CURVE SMOOTH",
"363 156 OFFCURVE",
"484 201 OFFCURVE",
"600 225 CURVE SMOOTH",
"669 239 OFFCURVE",
"742 243 OFFCURVE",
"813 243 CURVE",
"702 112 OFFCURVE",
"552 10 OFFCURVE",
"384 -30 CURVE SMOOTH",
"353 -37 OFFCURVE",
"321 -41 OFFCURVE",
"289 -41 CURVE SMOOTH",
"269 -41 OFFCURVE",
"223 -39 OFFCURVE",
"223 -11 CURVE SMOOTH"
);
}
);
};
layerId = "95C423A7-595F-441F-915A-E5EF8B5EF971";
paths = (
{
closed = 1;
nodes = (
"309 -83 OFFCURVE",
"344 -77 OFFCURVE",
"378 -69 CURVE SMOOTH",
"564 -24 OFFCURVE",
"742 97 OFFCURVE",
"866 241 CURVE",
"884 240 OFFCURVE",
"964 238 OFFCURVE",
"964 211 CURVE SMOOTH",
"964 208 OFFCURVE",
"963 206 OFFCURVE",
"963 203 CURVE SMOOTH",
"963 198 OFFCURVE",
"969 196 OFFCURVE",
"973 196 CURVE SMOOTH",
"986 196 OFFCURVE",
"990 205 OFFCURVE",
"990 216 CURVE SMOOTH",
"990 255 OFFCURVE",
"915 264 OFFCURVE",
"886 266 CURVE",
"969 370 OFFCURVE",
"1047 520 OFFCURVE",
"1047 655 CURVE SMOOTH",
"1047 836 OFFCURVE",
"892 888 OFFCURVE",
"738 888 CURVE SMOOTH",
"553 888 OFFCURVE",
"251 803 OFFCURVE",
"119 667 CURVE SMOOTH",
"83 630 OFFCURVE",
"51 579 OFFCURVE",
"51 526 CURVE SMOOTH",
"51 401 OFFCURVE",
"220 384 OFFCURVE",
"313 384 CURVE SMOOTH",
"361 384 OFFCURVE",
"410 389 OFFCURVE",
"458 398 CURVE SMOOTH",
"543 413 OFFCURVE",
"706 460 OFFCURVE",
"764 528 CURVE SMOOTH",
"780 548 OFFCURVE",
"797 572 OFFCURVE",
"797 598 CURVE SMOOTH",
"797 678 OFFCURVE",
"655 689 OFFCURVE",
"598 689 CURVE SMOOTH",
"508 689 OFFCURVE",
"287 656 OFFCURVE",
"262 555 CURVE",
"261 553 OFFCURVE",
"261 550 OFFCURVE",
"261 547 CURVE SMOOTH",
"261 532 OFFCURVE",
"275 509 OFFCURVE",
"292 509 CURVE SMOOTH",
"298 509 OFFCURVE",
"302 513 OFFCURVE",
"302 519 CURVE SMOOTH",
"302 530 OFFCURVE",
"282 531 OFFCURVE",
"282 546 CURVE SMOOTH",
"282 578 OFFCURVE",
"358 608 OFFCURVE",
"380 617 CURVE SMOOTH",
"456 646 OFFCURVE",
"542 666 OFFCURVE",
"624 666 CURVE SMOOTH",
"661 666 OFFCURVE",
"766 659 OFFCURVE",
"766 606 CURVE SMOOTH",
"766 584 OFFCURVE",
"750 563 OFFCURVE",
"737 547 CURVE SMOOTH",
"722 528 OFFCURVE",
"696 511 OFFCURVE",
"675 499 CURVE SMOOTH",
"582 446 OFFCURVE",
"454 418 OFFCURVE",
"348 418 CURVE SMOOTH",
"268 418 OFFCURVE",
"91 438 OFFCURVE",
"91 546 CURVE SMOOTH",
"91 586 OFFCURVE",
"117 621 OFFCURVE",
"143 649 CURVE SMOOTH",
"272 784 OFFCURVE",
"509 838 OFFCURVE",
"686 859 CURVE SMOOTH",
"707 861 OFFCURVE",
"728 863 OFFCURVE",
"748 863 CURVE SMOOTH",
"891 863 OFFCURVE",
"989 792 OFFCURVE",
"989 643 CURVE SMOOTH",
"989 511 OFFCURVE",
"914 369 OFFCURVE",
"835 269 CURVE",
"756 269 OFFCURVE",
"673 261 OFFCURVE",
"595 245 CURVE SMOOTH",
"476 220 OFFCURVE",
"339 173 OFFCURVE",
"244 92 CURVE SMOOTH",
"225 75 OFFCURVE",
"203 54 OFFCURVE",
"190 31 CURVE SMOOTH",
"181 15 OFFCURVE",
"173 -1 OFFCURVE",
"173 -19 CURVE SMOOTH",
"173 -72 OFFCURVE",
"233 -83 OFFCURVE",
"274 -83 CURVE SMOOTH"
);
},
{
closed = 1;
nodes = (
"269 -41 OFFCURVE",
"223 -39 OFFCURVE",
"223 -11 CURVE SMOOTH",
"223 1 OFFCURVE",
"231 13 OFFCURVE",
"237 24 CURVE SMOOTH",
"248 41 OFFCURVE",
"263 57 OFFCURVE",
"278 72 CURVE SMOOTH",
"363 156 OFFCURVE",
"484 201 OFFCURVE",
"600 225 CURVE SMOOTH",
"669 239 OFFCURVE",
"742 243 OFFCURVE",
"813 243 CURVE",
"702 112 OFFCURVE",
"552 10 OFFCURVE",
"384 -30 CURVE SMOOTH",
"353 -37 OFFCURVE",
"321 -41 OFFCURVE",
"289 -41 CURVE SMOOTH"
);
}
);
width = 1015;
}
);
note = J;
unicode = 004A;
},
